<svg version="1.2" xmlns="http://www.w3.org/2000/svg" xmlns:xlink="http://www.w3.org/1999/xlink" overflow="visible" preserveAspectRatio="none" viewBox="0 0 24 24" width="27" height="27"><g><path xmlns:default="http://www.w3.org/2000/svg" id="search-plus" d="M14,10.32c-0.01-0.18-0.15-0.32-0.33-0.33h-2.34V7.66C11.32,7.48,11.18,7.34,11,7.33h-0.67  C10.15,7.34,10,7.48,10,7.66v2.33H7.67C7.49,10,7.34,10.14,7.34,10.32v0.67c0.01,0.18,0.15,0.32,0.33,0.33H10v2.33  c0.01,0.18,0.15,0.32,0.33,0.33H11c0.18-0.01,0.32-0.15,0.33-0.33v-2.33h2.33c0.18,0,0.33-0.15,0.34-0.33V10.32L14,10.32z   M15.33,10.65c-0.01,2.57-2.09,4.65-4.66,4.66c-1.23,0.03-2.43-0.44-3.3-1.32c-0.9-0.87-1.4-2.08-1.37-3.33  c-0.02-1.24,0.48-2.44,1.37-3.3c0.86-0.89,2.06-1.39,3.3-1.37c1.25-0.03,2.46,0.47,3.33,1.37c0.89,0.86,1.39,2.06,1.37,3.3l0,0  L15.33,10.65z M20.66,19.31c0.01-0.35-0.14-0.69-0.39-0.94L16.7,14.8c0.85-1.21,1.31-2.66,1.3-4.14c0-0.98-0.19-1.95-0.58-2.85  c-0.73-1.77-2.13-3.17-3.9-3.9c-1.82-0.77-3.88-0.77-5.7,0c-1.77,0.73-3.17,2.13-3.9,3.9c-0.77,1.82-0.77,3.88,0,5.7  c0.73,1.77,2.13,3.17,3.9,3.9c0.9,0.39,1.87,0.58,2.85,0.58c1.48,0.01,2.93-0.44,4.15-1.29l3.57,3.56c0.24,0.26,0.58,0.41,0.94,0.4  c0.73,0,1.33-0.6,1.33-1.33l0,0V19.31z" style="fill: rgb(18, 18, 18);" vector-effect="non-scaling-stroke"/></g></svg>