<svg id="Réteg_1" data-name="Réteg 1" xmlns="http://www.w3.org/2000/svg" viewBox="0 0 536.86 324.55"><defs><style>.cls-1{fill:#07565e;}</style></defs><path class="cls-1" d="M253.94,357.4q0,9.17-1.89,13.92c-1.25,3.17-3,4.76-5.11,4.76H226.29v42a4.85,4.85,0,0,1-1.08,3.14,7.94,7.94,0,0,1-3.77,2.25,33.66,33.66,0,0,1-7,1.35q-4.32.44-11.13.44c-4.31,0-7.94-.15-10.87-.44a32.11,32.11,0,0,1-7-1.35,7.26,7.26,0,0,1-3.59-2.25,5.13,5.13,0,0,1-1-3.14v-42H92a14.8,14.8,0,0,1-4.49-.63,6.13,6.13,0,0,1-3.32-2.87,18,18,0,0,1-2-6.47,79.29,79.29,0,0,1-.63-11.22q0-5.75.27-10a63.3,63.3,0,0,1,.9-7.63,35.91,35.91,0,0,1,1.79-6.46,61.65,61.65,0,0,1,3-6.46l72.18-127.31a7.41,7.41,0,0,1,3.06-2.78,22.62,22.62,0,0,1,6-2,71.28,71.28,0,0,1,9.79-1.16q5.92-.36,14.36-.36,9.17,0,15.62.45a61.3,61.3,0,0,1,10.33,1.43,15.3,15.3,0,0,1,5.65,2.43,4.25,4.25,0,0,1,1.8,3.41V338.37h20.65c1.91,0,3.56,1.47,4.93,4.4S253.94,350.58,253.94,357.4ZM180.86,231.54h-.36L119.27,338.37h61.59ZM437.8,307.13a257.49,257.49,0,0,1-4.49,50.27q-4.49,22.46-14.63,38.25a68.42,68.42,0,0,1-26.4,24.24q-16.25,8.43-39.77,8.44-23.88,0-39.5-8.17a61.74,61.74,0,0,1-24.78-23.52q-9.15-15.36-12.83-37.53a307.83,307.83,0,0,1-3.68-50.19,253,253,0,0,1,4.57-50.18q4.59-22.53,14.73-38.33a68.31,68.31,0,0,1,26.39-24.24q16.24-8.44,39.59-8.44,23.88,0,39.59,8.17a61.33,61.33,0,0,1,24.87,23.52q9.17,15.35,12.75,37.52A316.73,316.73,0,0,1,437.8,307.13Zm-47.58,2.33q0-16.51-.9-29.17a175.18,175.18,0,0,0-2.78-22,80.77,80.77,0,0,0-4.67-15.8,31.89,31.89,0,0,0-6.73-10.32,22.66,22.66,0,0,0-9-5.48A36.14,36.14,0,0,0,355,225.07q-10.61,0-17.51,5.12t-10.95,15.35q-4,10.25-5.66,25.5a344.3,344.3,0,0,0-1.61,35.55q0,24.78,2,41t6.2,25.85q4.21,9.61,10.86,13.47a31.21,31.21,0,0,0,16,3.86,32.1,32.1,0,0,0,12.39-2.24,26.09,26.09,0,0,0,9.43-6.74,37.15,37.15,0,0,0,6.73-11.31,88.48,88.48,0,0,0,4.4-15.8,157.11,157.11,0,0,0,2.33-20.29Q390.22,323.11,390.22,309.46Zm228.21,46.69q0,17.42-6.64,30.88a64,64,0,0,1-18.5,22.62,83.58,83.58,0,0,1-28.37,13.92,130.05,130.05,0,0,1-36.09,4.76,137.4,137.4,0,0,1-22.26-1.71,133.42,133.42,0,0,1-18.4-4.22,83,83,0,0,1-13.2-5.21,38.43,38.43,0,0,1-6.82-4.12,9.59,9.59,0,0,1-2.43-3.24,26.2,26.2,0,0,1-1.44-4.22,35,35,0,0,1-.89-6.1c-.18-2.45-.27-5.42-.27-8.89q0-8.61,1.43-11.94t4.31-3.32c1.2,0,3.26.81,6.2,2.42A106.81,106.81,0,0,0,486.28,383a132.5,132.5,0,0,0,16,5.21,81.85,81.85,0,0,0,20.83,2.42,59.25,59.25,0,0,0,17.42-2.33,38.73,38.73,0,0,0,12.83-6.56,26.21,26.21,0,0,0,7.9-10.23,33.27,33.27,0,0,0,2.61-13.38,32.77,32.77,0,0,0-3.15-14.54,29.8,29.8,0,0,0-9.33-11,46,46,0,0,0-15.62-7.1,87,87,0,0,0-22.18-2.51H493.46a10.91,10.91,0,0,1-3.95-.63,5.38,5.38,0,0,1-2.69-2.6,15.82,15.82,0,0,1-1.53-5.48,73.71,73.71,0,0,1-.45-9.07,65.57,65.57,0,0,1,.45-8.52,15,15,0,0,1,1.44-5.12,5.65,5.65,0,0,1,2.51-2.52,8.75,8.75,0,0,1,3.68-.71h20.29a64.34,64.34,0,0,0,18.5-2.43,38.57,38.57,0,0,0,13.55-6.91,29.53,29.53,0,0,0,8.35-10.86,33.85,33.85,0,0,0,2.87-14.1,31.76,31.76,0,0,0-2-11.22,25.3,25.3,0,0,0-5.84-9.16,27.07,27.07,0,0,0-10-6.1,41.51,41.51,0,0,0-14.36-2.25,54.59,54.59,0,0,0-17.6,2.79,110.87,110.87,0,0,0-14.81,6.1c-4.38,2.22-8.08,4.28-11.14,6.19s-5.29,2.88-6.73,2.88a4.85,4.85,0,0,1-2.51-.63,4.71,4.71,0,0,1-1.8-2.42,20.54,20.54,0,0,1-1.08-5.21,87,87,0,0,1-.36-8.8c0-3,.06-5.48.18-7.45a24.82,24.82,0,0,1,.72-4.94,15.15,15.15,0,0,1,1.35-3.41,14.28,14.28,0,0,1,2.6-3.14,51.19,51.19,0,0,1,7.36-5.12,85.69,85.69,0,0,1,14-6.64A123.19,123.19,0,0,1,514,190a120.84,120.84,0,0,1,24-2.24,102.9,102.9,0,0,1,29.9,4,61.26,61.26,0,0,1,21.9,11.4,47.68,47.68,0,0,1,13.47,18.31,62.66,62.66,0,0,1,4.58,24.51,69.48,69.48,0,0,1-2.7,19.75,52.87,52.87,0,0,1-7.9,16.34,47.91,47.91,0,0,1-13,12.21,59.11,59.11,0,0,1-18.05,7.54v.54a67.37,67.37,0,0,1,21.91,6.2,56.13,56.13,0,0,1,16.43,11.94,51.26,51.26,0,0,1,10.32,16.25A52.49,52.49,0,0,1,618.43,356.15Z" transform="translate(-81.57 -187.73)"/><path class="cls-1" d="M119.87,503.85a7.08,7.08,0,0,1,.31,1.2.7.7,0,0,1-.16.66,1.4,1.4,0,0,1-.82.28c-.4,0-.93.05-1.62.05s-1.27,0-1.67,0a4.16,4.16,0,0,1-.91-.13.81.81,0,0,1-.44-.26,1.2,1.2,0,0,1-.21-.44l-1.83-5.46h-10.2L100.59,505a1.48,1.48,0,0,1-.22.49.85.85,0,0,1-.44.32,3.14,3.14,0,0,1-.86.16c-.37,0-.86,0-1.46,0A11.89,11.89,0,0,1,96.1,506a1.12,1.12,0,0,1-.75-.3.82.82,0,0,1-.15-.68,7.21,7.21,0,0,1,.31-1.18l8.38-24.1a1.85,1.85,0,0,1,.3-.58.93.93,0,0,1,.53-.33,4,4,0,0,1,1-.15c.43,0,1,0,1.72,0s1.48,0,2,0a5.1,5.1,0,0,1,1.15.15,1.09,1.09,0,0,1,.59.34,2.31,2.31,0,0,1,.3.63ZM107.4,483.93h0l-3.85,11.55h7.71Z" transform="translate(-81.57 -187.73)"/><path class="cls-1" d="M142,501.8c0,.35,0,.64,0,.89s-.06.45-.1.63a1.83,1.83,0,0,1-.17.45,2.15,2.15,0,0,1-.33.43,4.25,4.25,0,0,1-.9.62,10.78,10.78,0,0,1-1.61.72,12.85,12.85,0,0,1-2.19.58,15.26,15.26,0,0,1-7.69-.63,9.89,9.89,0,0,1-3.82-2.57,11.47,11.47,0,0,1-2.42-4.27,19.21,19.21,0,0,1-.84-6,18.75,18.75,0,0,1,.93-6.15,12.67,12.67,0,0,1,2.58-4.51,10.79,10.79,0,0,1,4-2.77,13.4,13.4,0,0,1,5.11-.95,12.81,12.81,0,0,1,2.18.19,14.61,14.61,0,0,1,2,.49,9.87,9.87,0,0,1,1.6.71,4.52,4.52,0,0,1,1,.68,2.55,2.55,0,0,1,.39.47,2.14,2.14,0,0,1,.17.49,5.32,5.32,0,0,1,.09.69q0,.39,0,1c0,.42,0,.77,0,1.07a2.82,2.82,0,0,1-.15.71,1,1,0,0,1-.25.4.52.52,0,0,1-.33.12,1.47,1.47,0,0,1-.8-.36,11.84,11.84,0,0,0-1.25-.82,9.81,9.81,0,0,0-1.83-.82,7.85,7.85,0,0,0-2.53-.37,6.11,6.11,0,0,0-2.88.66,6.21,6.21,0,0,0-2.17,1.89,9,9,0,0,0-1.35,3,17.42,17.42,0,0,0,0,8.08,7.91,7.91,0,0,0,1.41,2.88,5.64,5.64,0,0,0,2.2,1.69,7.13,7.13,0,0,0,2.91.56,8,8,0,0,0,2.54-.35,10.76,10.76,0,0,0,1.84-.76,14.28,14.28,0,0,0,1.26-.76,1.57,1.57,0,0,1,.76-.33.59.59,0,0,1,.34.08.71.71,0,0,1,.21.34,3.11,3.11,0,0,1,.12.7C141.94,500.89,142,501.29,142,501.8Z" transform="translate(-81.57 -187.73)"/><path class="cls-1" d="M164.72,501.8c0,.35,0,.64,0,.89s-.06.45-.1.63a1.83,1.83,0,0,1-.17.45,2.15,2.15,0,0,1-.33.43,4.25,4.25,0,0,1-.9.62,10.78,10.78,0,0,1-1.61.72,12.85,12.85,0,0,1-2.19.58,15.26,15.26,0,0,1-7.69-.63,9.89,9.89,0,0,1-3.82-2.57,11.47,11.47,0,0,1-2.42-4.27,19.21,19.21,0,0,1-.84-6,18.75,18.75,0,0,1,.93-6.15,12.67,12.67,0,0,1,2.58-4.51,10.71,10.71,0,0,1,4-2.77,13.4,13.4,0,0,1,5.11-.95,12.81,12.81,0,0,1,2.18.19,14.61,14.61,0,0,1,1.95.49,9.87,9.87,0,0,1,1.6.71,4.52,4.52,0,0,1,1,.68,2.55,2.55,0,0,1,.39.47,2.14,2.14,0,0,1,.17.49,5.32,5.32,0,0,1,.09.69q0,.39,0,1c0,.42,0,.77,0,1.07a2.82,2.82,0,0,1-.15.71,1,1,0,0,1-.25.4.52.52,0,0,1-.34.12,1.48,1.48,0,0,1-.79-.36,11.84,11.84,0,0,0-1.25-.82,9.81,9.81,0,0,0-1.83-.82,7.9,7.9,0,0,0-2.53-.37,6.18,6.18,0,0,0-2.89.66,6.27,6.27,0,0,0-2.16,1.89,9,9,0,0,0-1.35,3,17.42,17.42,0,0,0,0,8.08,7.91,7.91,0,0,0,1.41,2.88,5.64,5.64,0,0,0,2.2,1.69,7.13,7.13,0,0,0,2.91.56,8,8,0,0,0,2.54-.35,10.76,10.76,0,0,0,1.84-.76,14.28,14.28,0,0,0,1.26-.76,1.54,1.54,0,0,1,.76-.33.59.59,0,0,1,.34.08.71.71,0,0,1,.21.34,3.11,3.11,0,0,1,.12.7C164.7,500.89,164.72,501.29,164.72,501.8Z" transform="translate(-81.57 -187.73)"/><path class="cls-1" d="M184.79,503.75a9.35,9.35,0,0,1,0,1,2.9,2.9,0,0,1-.16.66.9.9,0,0,1-.26.37.63.63,0,0,1-.35.11H170.32a1.66,1.66,0,0,1-1.16-.41,1.64,1.64,0,0,1-.47-1.33V480.49a1.68,1.68,0,0,1,.47-1.34,1.71,1.71,0,0,1,1.16-.41h13.57a.57.57,0,0,1,.33.11.77.77,0,0,1,.25.37,2.44,2.44,0,0,1,.16.67,7.59,7.59,0,0,1,.05,1,7.07,7.07,0,0,1-.05,1,2.44,2.44,0,0,1-.16.67.85.85,0,0,1-.25.36.52.52,0,0,1-.33.12h-9.7v6.63h8.2a.55.55,0,0,1,.35.12.78.78,0,0,1,.26.36,2.19,2.19,0,0,1,.16.65,10,10,0,0,1,0,2,2.2,2.2,0,0,1-.16.64.75.75,0,0,1-.26.35.6.6,0,0,1-.35.1h-8.2v7.67H184a.63.63,0,0,1,.35.11.9.9,0,0,1,.26.37,2.9,2.9,0,0,1,.16.66A9.35,9.35,0,0,1,184.79,503.75Z" transform="translate(-81.57 -187.73)"/><path class="cls-1" d="M205.34,497.77a8.38,8.38,0,0,1-.79,3.75,7.88,7.88,0,0,1-2.17,2.7,9.35,9.35,0,0,1-3.19,1.63,13.72,13.72,0,0,1-3.9.54,13.52,13.52,0,0,1-2.62-.23,14.28,14.28,0,0,1-2.13-.55,10.45,10.45,0,0,1-1.54-.68,4.32,4.32,0,0,1-.9-.64,1.51,1.51,0,0,1-.38-.78,6.93,6.93,0,0,1-.12-1.48c0-.44,0-.8,0-1.09a3.39,3.39,0,0,1,.14-.72.82.82,0,0,1,.25-.39.67.67,0,0,1,.37-.11,1.72,1.72,0,0,1,.83.34,12.94,12.94,0,0,0,1.37.77,12.29,12.29,0,0,0,2,.77,9.58,9.58,0,0,0,2.7.34,6.23,6.23,0,0,0,1.8-.24,4.13,4.13,0,0,0,1.36-.68,2.93,2.93,0,0,0,.85-1.09,3.61,3.61,0,0,0,.29-1.45,2.58,2.58,0,0,0-.5-1.59,5.14,5.14,0,0,0-1.31-1.17,14.32,14.32,0,0,0-1.84-1l-2.12-.95a18.85,18.85,0,0,1-2.12-1.15,8.19,8.19,0,0,1-1.84-1.53,7,7,0,0,1-1.31-2.11,7.52,7.52,0,0,1-.51-2.92,7.76,7.76,0,0,1,.73-3.43,7,7,0,0,1,2-2.46,8.42,8.42,0,0,1,2.9-1.46,13,13,0,0,1,5.47-.33,11.88,11.88,0,0,1,1.8.4,9.12,9.12,0,0,1,1.49.56,3.65,3.65,0,0,1,.87.53,2.1,2.1,0,0,1,.28.35,1.5,1.5,0,0,1,.12.39,4.14,4.14,0,0,1,.08.61c0,.25,0,.55,0,.92s0,.74,0,1a3.68,3.68,0,0,1-.11.7.89.89,0,0,1-.21.4.53.53,0,0,1-.37.12,1.85,1.85,0,0,1-.73-.29c-.34-.2-.75-.41-1.24-.64a12.21,12.21,0,0,0-1.7-.63,7.44,7.44,0,0,0-2.12-.29,4.9,4.9,0,0,0-1.57.23,3.12,3.12,0,0,0-1.13.6,2.42,2.42,0,0,0-.67.94,3,3,0,0,0-.22,1.15,2.55,2.55,0,0,0,.49,1.57,4.64,4.64,0,0,0,1.33,1.17,13,13,0,0,0,1.87,1l2.15.95a22.18,22.18,0,0,1,2.14,1.15,8.93,8.93,0,0,1,1.87,1.53,7.49,7.49,0,0,1,1.32,2.1A7.3,7.3,0,0,1,205.34,497.77Z" transform="translate(-81.57 -187.73)"/><path class="cls-1" d="M225.67,497.77a8.38,8.38,0,0,1-.8,3.75,7.74,7.74,0,0,1-2.16,2.7,9.44,9.44,0,0,1-3.19,1.63,13.74,13.74,0,0,1-3.91.54,13.34,13.34,0,0,1-2.61-.23,14.12,14.12,0,0,1-2.14-.55,10.45,10.45,0,0,1-1.54-.68,4.2,4.2,0,0,1-.89-.64,1.59,1.59,0,0,1-.39-.78,7.06,7.06,0,0,1-.11-1.48c0-.44,0-.8,0-1.09a3.47,3.47,0,0,1,.13-.72.83.83,0,0,1,.26-.39.61.61,0,0,1,.36-.11,1.69,1.69,0,0,1,.83.34,13.21,13.21,0,0,0,1.38.77,12.51,12.51,0,0,0,2,.77,9.58,9.58,0,0,0,2.7.34,6.35,6.35,0,0,0,1.81-.24,4.08,4.08,0,0,0,1.35-.68,2.84,2.84,0,0,0,.85-1.09,3.45,3.45,0,0,0,.3-1.45,2.52,2.52,0,0,0-.51-1.59,4.83,4.83,0,0,0-1.31-1.17,13.69,13.69,0,0,0-1.84-1l-2.12-.95a19.77,19.77,0,0,1-2.12-1.15,8.19,8.19,0,0,1-1.84-1.53,7.24,7.24,0,0,1-1.31-2.11,8.64,8.64,0,0,1,.22-6.35,7.19,7.19,0,0,1,1.95-2.46,8.51,8.51,0,0,1,2.9-1.46,12.72,12.72,0,0,1,3.54-.48,12.55,12.55,0,0,1,1.93.15,11.75,11.75,0,0,1,1.81.4,9.49,9.49,0,0,1,1.49.56,3.53,3.53,0,0,1,.86.53,1.68,1.68,0,0,1,.28.35,2,2,0,0,1,.13.39,4.3,4.3,0,0,1,.07.61c0,.25,0,.55,0,.92s0,.74,0,1a3.77,3.77,0,0,1-.1.7.89.89,0,0,1-.21.4.57.57,0,0,1-.37.12,1.87,1.87,0,0,1-.74-.29c-.33-.2-.75-.41-1.23-.64a11.9,11.9,0,0,0-1.71-.63,7.44,7.44,0,0,0-2.12-.29,5,5,0,0,0-1.57.23,3.07,3.07,0,0,0-1.12.6,2.35,2.35,0,0,0-.68.94,3.18,3.18,0,0,0-.22,1.15,2.56,2.56,0,0,0,.5,1.57,4.73,4.73,0,0,0,1.32,1.17,13.18,13.18,0,0,0,1.88,1c.7.3,1.41.62,2.14.95a21.06,21.06,0,0,1,2.14,1.15,8.93,8.93,0,0,1,1.87,1.53,7.06,7.06,0,0,1,1.32,2.1A7.29,7.29,0,0,1,225.67,497.77Z" transform="translate(-81.57 -187.73)"/><path class="cls-1" d="M262.18,491.93a18.58,18.58,0,0,1-1,6.39,10.84,10.84,0,0,1-2.8,4.34,11.19,11.19,0,0,1-4.44,2.46,21.55,21.55,0,0,1-6.23.79h-6.48a1.53,1.53,0,0,1-1.64-1.74V480.49a1.72,1.72,0,0,1,.47-1.34,1.74,1.74,0,0,1,1.17-.41h7a19.7,19.7,0,0,1,6.16.85,11.17,11.17,0,0,1,4.26,2.52,10.91,10.91,0,0,1,2.64,4.13A16.49,16.49,0,0,1,262.18,491.93Zm-5.71.19a13.63,13.63,0,0,0-.45-3.59,7.67,7.67,0,0,0-1.45-2.88,6.85,6.85,0,0,0-2.56-1.9,10.51,10.51,0,0,0-4.11-.68h-2.79v18.47H248a10.93,10.93,0,0,0,3.82-.58,6.4,6.4,0,0,0,2.59-1.78,7.62,7.62,0,0,0,1.55-2.95A14.41,14.41,0,0,0,256.47,492.12Z" transform="translate(-81.57 -187.73)"/><path class="cls-1" d="M282.82,503.75a9.35,9.35,0,0,1-.05,1,2.9,2.9,0,0,1-.16.66.9.9,0,0,1-.26.37.66.66,0,0,1-.35.11H268.35a1.66,1.66,0,0,1-1.16-.41,1.65,1.65,0,0,1-.48-1.33V480.49a1.68,1.68,0,0,1,.48-1.34,1.71,1.71,0,0,1,1.16-.41h13.57a.57.57,0,0,1,.33.11.77.77,0,0,1,.25.37,2.44,2.44,0,0,1,.16.67,9.62,9.62,0,0,1,0,1,9,9,0,0,1,0,1,2.44,2.44,0,0,1-.16.67.85.85,0,0,1-.25.36.52.52,0,0,1-.33.12h-9.71v6.63h8.21a.55.55,0,0,1,.35.12.78.78,0,0,1,.26.36,2.19,2.19,0,0,1,.16.65,10,10,0,0,1,0,2,2.2,2.2,0,0,1-.16.64.75.75,0,0,1-.26.35.6.6,0,0,1-.35.1h-8.21v7.67H282a.66.66,0,0,1,.35.11.9.9,0,0,1,.26.37,2.9,2.9,0,0,1,.16.66A9.35,9.35,0,0,1,282.82,503.75Z" transform="translate(-81.57 -187.73)"/><path class="cls-1" d="M310.09,504a2,2,0,0,1-.17.86,1.81,1.81,0,0,1-.45.63,1.75,1.75,0,0,1-.67.37,2.65,2.65,0,0,1-.79.11h-2.35a4.79,4.79,0,0,1-1.27-.14,2.54,2.54,0,0,1-1-.54,4.76,4.76,0,0,1-.87-1c-.28-.44-.59-1-.94-1.71l-6.76-12.7c-.39-.76-.79-1.57-1.2-2.45s-.77-1.72-1.09-2.55h0c.05,1,.09,2,.12,3s0,2,0,3.1v14.21a.61.61,0,0,1-.11.38.92.92,0,0,1-.4.29,3.44,3.44,0,0,1-.77.17,8.38,8.38,0,0,1-1.24.07,8.12,8.12,0,0,1-1.21-.07,3.21,3.21,0,0,1-.76-.17.85.85,0,0,1-.38-.29.67.67,0,0,1-.1-.38V480.72a1.82,1.82,0,0,1,.58-1.48,2.08,2.08,0,0,1,1.41-.5h3a5.71,5.71,0,0,1,1.35.14,2.7,2.7,0,0,1,1,.45,3.42,3.42,0,0,1,.81.87,11.71,11.71,0,0,1,.78,1.38l5.29,9.93.91,1.77c.3.58.59,1.17.87,1.75s.56,1.15.82,1.71.53,1.12.78,1.68h0c0-1-.07-2-.09-3.07s0-2.08,0-3V479.56a.67.67,0,0,1,.13-.38,1.07,1.07,0,0,1,.42-.29,3.22,3.22,0,0,1,.78-.18c.32,0,.73,0,1.24,0s.87,0,1.19,0a2.65,2.65,0,0,1,.75.18.87.87,0,0,1,.37.29.72.72,0,0,1,.1.38Z" transform="translate(-81.57 -187.73)"/><path class="cls-1" d="M321.56,505.16a.57.57,0,0,1-.14.37.89.89,0,0,1-.45.28,4.33,4.33,0,0,1-.84.16,12.86,12.86,0,0,1-2.68,0,4.3,4.3,0,0,1-.85-.16.89.89,0,0,1-.45-.28.57.57,0,0,1-.14-.37V479.5a.59.59,0,0,1,.14-.38,1,1,0,0,1,.46-.27,4.52,4.52,0,0,1,.85-.17,12,12,0,0,1,1.32-.06,12.32,12.32,0,0,1,1.35.06,4.24,4.24,0,0,1,.84.17,1,1,0,0,1,.45.27.59.59,0,0,1,.14.38Z" transform="translate(-81.57 -187.73)"/><path class="cls-1" d="M343.58,503.75a9.35,9.35,0,0,1-.05,1,2.9,2.9,0,0,1-.16.66.9.9,0,0,1-.26.37.63.63,0,0,1-.35.11H329.11a1.66,1.66,0,0,1-1.16-.41,1.64,1.64,0,0,1-.47-1.33V480.49a1.68,1.68,0,0,1,.47-1.34,1.71,1.71,0,0,1,1.16-.41h13.57a.55.55,0,0,1,.33.11.78.78,0,0,1,.26.37,2.47,2.47,0,0,1,.15.67,7.37,7.37,0,0,1,.06,1,6.9,6.9,0,0,1-.06,1,2.47,2.47,0,0,1-.15.67.86.86,0,0,1-.26.36.5.5,0,0,1-.33.12H333v6.63h8.21a.54.54,0,0,1,.34.12.8.8,0,0,1,.27.36,2.23,2.23,0,0,1,.15.65,8.36,8.36,0,0,1,0,2,2.23,2.23,0,0,1-.15.64.76.76,0,0,1-.27.35.59.59,0,0,1-.34.1H333v7.67h9.78a.63.63,0,0,1,.35.11.9.9,0,0,1,.26.37,2.9,2.9,0,0,1,.16.66A9.35,9.35,0,0,1,343.58,503.75Z" transform="translate(-81.57 -187.73)"/><path class="cls-1" d="M371,491.93a18.6,18.6,0,0,1-1,6.39,10.86,10.86,0,0,1-2.81,4.34,11.06,11.06,0,0,1-4.44,2.46,21.53,21.53,0,0,1-6.22.79h-6.49a1.71,1.71,0,0,1-1.17-.41,1.68,1.68,0,0,1-.47-1.33V480.49a1.72,1.72,0,0,1,.47-1.34,1.76,1.76,0,0,1,1.17-.41h7a19.65,19.65,0,0,1,6.16.85,11.17,11.17,0,0,1,4.26,2.52,10.79,10.79,0,0,1,2.64,4.13A16.49,16.49,0,0,1,371,491.93Zm-5.71.19a13.63,13.63,0,0,0-.45-3.59,7.53,7.53,0,0,0-1.45-2.88,6.77,6.77,0,0,0-2.56-1.9,10.46,10.46,0,0,0-4.1-.68H354v18.47h2.88a10.93,10.93,0,0,0,3.82-.58,6.33,6.33,0,0,0,2.59-1.78,7.63,7.63,0,0,0,1.56-2.95A14.8,14.8,0,0,0,365.31,492.12Z" transform="translate(-81.57 -187.73)"/><path class="cls-1" d="M377.89,511.35a1.15,1.15,0,0,1-.28.44,1.17,1.17,0,0,1-.47.27,3.25,3.25,0,0,1-.75.16,9.32,9.32,0,0,1-1.15,0,9,9,0,0,1-1.4-.08,2.48,2.48,0,0,1-.83-.25.63.63,0,0,1-.33-.43,1.2,1.2,0,0,1,.09-.62l12.55-35.25a1.19,1.19,0,0,1,.25-.46,1.38,1.38,0,0,1,.46-.28,4,4,0,0,1,.77-.16c.32,0,.7-.05,1.14-.05a8.87,8.87,0,0,1,1.42.09,2.15,2.15,0,0,1,.81.25.62.62,0,0,1,.32.43,1.59,1.59,0,0,1-.07.62Z" transform="translate(-81.57 -187.73)"/><path class="cls-1" d="M409.28,481a10.32,10.32,0,0,1,0,1.06,2.67,2.67,0,0,1-.17.68,1.06,1.06,0,0,1-.27.38.51.51,0,0,1-.33.13h-8.88v7.3h8.33a.58.58,0,0,1,.34.11.88.88,0,0,1,.26.36,2.31,2.31,0,0,1,.17.67,11,11,0,0,1,0,2.1,2.67,2.67,0,0,1-.17.69,1,1,0,0,1-.26.39.51.51,0,0,1-.34.11h-8.33v10.12a.66.66,0,0,1-.13.4,1,1,0,0,1-.45.29,4.52,4.52,0,0,1-.85.17,12.86,12.86,0,0,1-2.68,0,4.36,4.36,0,0,1-.85-.17,1.06,1.06,0,0,1-.45-.29.61.61,0,0,1-.14-.4V480.49a1.68,1.68,0,0,1,.48-1.34,1.71,1.71,0,0,1,1.16-.41h12.79a.5.5,0,0,1,.33.12,1,1,0,0,1,.27.38,3,3,0,0,1,.17.7A10.53,10.53,0,0,1,409.28,481Z" transform="translate(-81.57 -187.73)"/><path class="cls-1" d="M437.9,492a20.1,20.1,0,0,1-.84,6.05,12.17,12.17,0,0,1-2.5,4.52,10.8,10.8,0,0,1-4.11,2.84,15.18,15.18,0,0,1-5.66,1,16.81,16.81,0,0,1-5.53-.82,9.75,9.75,0,0,1-3.94-2.53,11,11,0,0,1-2.36-4.33,21.93,21.93,0,0,1-.78-6.21,19.55,19.55,0,0,1,.84-5.94,12.07,12.07,0,0,1,2.49-4.48,11,11,0,0,1,4.11-2.83,15,15,0,0,1,5.68-1,16.57,16.57,0,0,1,5.45.82,9.43,9.43,0,0,1,3.94,2.52,10.91,10.91,0,0,1,2.4,4.29A20.63,20.63,0,0,1,437.9,492Zm-5.8.3a21.18,21.18,0,0,0-.33-3.9,8.43,8.43,0,0,0-1.15-3,5.48,5.48,0,0,0-2.15-1.93,7.34,7.34,0,0,0-3.36-.69,6.87,6.87,0,0,0-3.4.77,6.22,6.22,0,0,0-2.21,2.05,8.4,8.4,0,0,0-1.18,3,18.3,18.3,0,0,0-.35,3.62,21,21,0,0,0,.34,4,8.56,8.56,0,0,0,1.13,3,5.22,5.22,0,0,0,2.14,1.92,7.65,7.65,0,0,0,3.38.66,6.87,6.87,0,0,0,3.4-.76,6.13,6.13,0,0,0,2.21-2.05,8.66,8.66,0,0,0,1.18-3A18.76,18.76,0,0,0,432.1,492.31Z" transform="translate(-81.57 -187.73)"/><path class="cls-1" d="M462.69,505.2a.93.93,0,0,1-.08.39.71.71,0,0,1-.4.26,4.06,4.06,0,0,1-.92.15c-.41,0-1,0-1.66,0s-1.06,0-1.41,0a3,3,0,0,1-.83-.16.91.91,0,0,1-.43-.3,1.72,1.72,0,0,1-.21-.43l-2.44-6.06c-.29-.69-.58-1.3-.86-1.83a5.78,5.78,0,0,0-.93-1.33,3.32,3.32,0,0,0-1.19-.81,4.08,4.08,0,0,0-1.55-.28h-1.72v10.36a.57.57,0,0,1-.14.37.89.89,0,0,1-.45.28,4.33,4.33,0,0,1-.84.16,12.86,12.86,0,0,1-2.68,0,4.45,4.45,0,0,1-.85-.16.86.86,0,0,1-.44-.28.61.61,0,0,1-.12-.37V480.49a1.68,1.68,0,0,1,.47-1.34,1.71,1.71,0,0,1,1.16-.41h7c.71,0,1.3,0,1.76.05s.88.06,1.26.1a11.18,11.18,0,0,1,2.95.8,7.06,7.06,0,0,1,2.23,1.48,6.13,6.13,0,0,1,1.39,2.16,8,8,0,0,1,.49,2.87,8.35,8.35,0,0,1-.35,2.48,6.35,6.35,0,0,1-1,2,6.58,6.58,0,0,1-1.66,1.53,8.72,8.72,0,0,1-2.24,1,6.83,6.83,0,0,1,1.14.72,6.43,6.43,0,0,1,1,1,10.46,10.46,0,0,1,.89,1.37,18.85,18.85,0,0,1,.82,1.73l2.29,5.36c.21.53.35.92.42,1.16A2.25,2.25,0,0,1,462.69,505.2Zm-7.12-18.44a4.05,4.05,0,0,0-.6-2.26,3.37,3.37,0,0,0-2-1.31,7.5,7.5,0,0,0-1-.16,11.47,11.47,0,0,0-1.48-.07h-2.48v7.71h2.81a7,7,0,0,0,2.06-.28,4.14,4.14,0,0,0,1.47-.8,3.36,3.36,0,0,0,.88-1.23A4.11,4.11,0,0,0,455.57,486.76Z" transform="translate(-81.57 -187.73)"/><path class="cls-1" d="M486.42,497.77a8,8,0,0,1-.4,2.62,6.87,6.87,0,0,1-2.78,3.63,9.59,9.59,0,0,1-2.15,1.07,13.17,13.17,0,0,1-2.51.62,19.32,19.32,0,0,1-3,.2h-7.22a1.66,1.66,0,0,1-1.16-.41,1.64,1.64,0,0,1-.47-1.33V480.49a1.68,1.68,0,0,1,.47-1.34,1.71,1.71,0,0,1,1.16-.41h6.83a18.3,18.3,0,0,1,4.23.42,8.58,8.58,0,0,1,2.92,1.27,5.65,5.65,0,0,1,1.81,2.16,6.91,6.91,0,0,1,.63,3.06,6.58,6.58,0,0,1-.25,1.86,5.33,5.33,0,0,1-.74,1.58,5.22,5.22,0,0,1-1.18,1.26,6.12,6.12,0,0,1-1.61.89,7.16,7.16,0,0,1,2.13.73,5.9,5.9,0,0,1,1.7,1.36,6.16,6.16,0,0,1,1.15,1.94A7,7,0,0,1,486.42,497.77Zm-7.14-11.45a4,4,0,0,0-.25-1.47,2.69,2.69,0,0,0-.76-1.08,3.47,3.47,0,0,0-1.27-.66,7.47,7.47,0,0,0-2.05-.23h-2.79v7.05h3.09a5.28,5.28,0,0,0,1.91-.28,3.33,3.33,0,0,0,1.19-.78,3.29,3.29,0,0,0,.7-1.15A4.33,4.33,0,0,0,479.28,486.32ZM480.69,498a4.33,4.33,0,0,0-.32-1.7,3.25,3.25,0,0,0-.92-1.24,4.23,4.23,0,0,0-1.56-.78,9.12,9.12,0,0,0-2.45-.28h-3.28v7.73h4a6.71,6.71,0,0,0,1.94-.24,4.05,4.05,0,0,0,1.37-.71,3.41,3.41,0,0,0,.9-1.18A3.72,3.72,0,0,0,480.69,498Z" transform="translate(-81.57 -187.73)"/><path class="cls-1" d="M496.39,505.16a.56.56,0,0,1-.13.37,1,1,0,0,1-.46.28,4.33,4.33,0,0,1-.84.16,12.77,12.77,0,0,1-2.67,0,4.3,4.3,0,0,1-.85-.16,1,1,0,0,1-.46-.28.56.56,0,0,1-.13-.37V479.5a.58.58,0,0,1,.13-.38,1,1,0,0,1,.47-.27,4.36,4.36,0,0,1,.85-.17,12,12,0,0,1,1.32-.06,12.12,12.12,0,0,1,1.34.06,4.24,4.24,0,0,1,.84.17,1.06,1.06,0,0,1,.46.27.58.58,0,0,1,.13.38Z" transform="translate(-81.57 -187.73)"/><path class="cls-1" d="M524.88,491.93a18.6,18.6,0,0,1-1,6.39,10.86,10.86,0,0,1-2.81,4.34,11.13,11.13,0,0,1-4.44,2.46,21.53,21.53,0,0,1-6.22.79H504a1.71,1.71,0,0,1-1.17-.41,1.68,1.68,0,0,1-.47-1.33V480.49a1.72,1.72,0,0,1,.47-1.34,1.76,1.76,0,0,1,1.17-.41h7a19.7,19.7,0,0,1,6.16.85,11.17,11.17,0,0,1,4.26,2.52,10.79,10.79,0,0,1,2.64,4.13A16.49,16.49,0,0,1,524.88,491.93Zm-5.71.19a13.63,13.63,0,0,0-.45-3.59,7.53,7.53,0,0,0-1.45-2.88,6.77,6.77,0,0,0-2.56-1.9,10.48,10.48,0,0,0-4.11-.68h-2.79v18.47h2.88a10.93,10.93,0,0,0,3.82-.58,6.33,6.33,0,0,0,2.59-1.78,7.63,7.63,0,0,0,1.56-2.95A14.8,14.8,0,0,0,519.17,492.12Z" transform="translate(-81.57 -187.73)"/><path class="cls-1" d="M552,491.93a18.58,18.58,0,0,1-1,6.39,10.84,10.84,0,0,1-2.8,4.34,11.19,11.19,0,0,1-4.44,2.46,21.55,21.55,0,0,1-6.23.79h-6.48a1.71,1.71,0,0,1-1.17-.41,1.68,1.68,0,0,1-.47-1.33V480.49a1.72,1.72,0,0,1,.47-1.34,1.76,1.76,0,0,1,1.17-.41h7a19.7,19.7,0,0,1,6.16.85,11.17,11.17,0,0,1,4.26,2.52,10.91,10.91,0,0,1,2.64,4.13A16.49,16.49,0,0,1,552,491.93Zm-5.71.19a13.63,13.63,0,0,0-.45-3.59,7.67,7.67,0,0,0-1.45-2.88,6.85,6.85,0,0,0-2.56-1.9,10.51,10.51,0,0,0-4.11-.68h-2.79v18.47h2.88a10.93,10.93,0,0,0,3.82-.58,6.4,6.4,0,0,0,2.59-1.78,7.62,7.62,0,0,0,1.55-2.95A14.41,14.41,0,0,0,546.28,492.12Z" transform="translate(-81.57 -187.73)"/><path class="cls-1" d="M572.63,503.75a9.35,9.35,0,0,1,0,1,2.9,2.9,0,0,1-.16.66.9.9,0,0,1-.26.37.63.63,0,0,1-.35.11H558.16a1.66,1.66,0,0,1-1.16-.41,1.65,1.65,0,0,1-.48-1.33V480.49a1.68,1.68,0,0,1,.48-1.34,1.71,1.71,0,0,1,1.16-.41h13.57a.57.57,0,0,1,.33.11.77.77,0,0,1,.25.37,2.44,2.44,0,0,1,.16.67,7.59,7.59,0,0,1,0,1,7.07,7.07,0,0,1,0,1,2.44,2.44,0,0,1-.16.67.85.85,0,0,1-.25.36.52.52,0,0,1-.33.12H562v6.63h8.21a.55.55,0,0,1,.35.12.78.78,0,0,1,.26.36,2.19,2.19,0,0,1,.16.65,10,10,0,0,1,0,2,2.2,2.2,0,0,1-.16.64.75.75,0,0,1-.26.35.6.6,0,0,1-.35.1H562v7.67h9.79a.63.63,0,0,1,.35.11.9.9,0,0,1,.26.37,2.9,2.9,0,0,1,.16.66A9.35,9.35,0,0,1,572.63,503.75Z" transform="translate(-81.57 -187.73)"/><path class="cls-1" d="M599.9,504a2,2,0,0,1-.17.86,1.81,1.81,0,0,1-.45.63,1.75,1.75,0,0,1-.67.37,2.65,2.65,0,0,1-.79.11h-2.35a4.79,4.79,0,0,1-1.27-.14,2.61,2.61,0,0,1-1-.54,4.76,4.76,0,0,1-.87-1c-.28-.44-.59-1-.94-1.71l-6.76-12.7c-.39-.76-.79-1.57-1.2-2.45s-.77-1.72-1.09-2.55h0c.05,1,.09,2,.12,3s.05,2,.05,3.1v14.21a.62.62,0,0,1-.12.38.92.92,0,0,1-.4.29,3.44,3.44,0,0,1-.77.17,10.75,10.75,0,0,1-2.45,0,3.34,3.34,0,0,1-.76-.17.85.85,0,0,1-.38-.29.67.67,0,0,1-.1-.38V480.72a1.82,1.82,0,0,1,.58-1.48,2.08,2.08,0,0,1,1.41-.5h3a5.71,5.71,0,0,1,1.35.14,2.7,2.7,0,0,1,1,.45,3.42,3.42,0,0,1,.81.87,11.71,11.71,0,0,1,.78,1.38l5.29,9.93.91,1.77c.3.58.59,1.17.88,1.75s.55,1.15.81,1.71.53,1.12.78,1.68h0c0-1-.07-2-.09-3.07s0-2.08,0-3V479.56a.66.66,0,0,1,.12-.38,1.07,1.07,0,0,1,.42-.29,3.22,3.22,0,0,1,.78-.18c.32,0,.73,0,1.24,0s.87,0,1.19,0a2.65,2.65,0,0,1,.75.18.87.87,0,0,1,.37.29.72.72,0,0,1,.1.38Z" transform="translate(-81.57 -187.73)"/></svg>