<svg id="Réteg_1" data-name="Réteg 1" xmlns="http://www.w3.org/2000/svg" viewBox="0 0 545.12 320.24"><defs><style>.cls-1{fill:#07565e;}</style></defs><path class="cls-1" d="M249.58,350.13q0,9.17-1.88,13.92c-1.26,3.17-3,4.76-5.12,4.76H221.93v42a4.9,4.9,0,0,1-1.07,3.14,8,8,0,0,1-3.78,2.25,34.19,34.19,0,0,1-7,1.35q-4.31.44-11.13.44-6.47,0-10.86-.44a32.83,32.83,0,0,1-7-1.35,7.31,7.31,0,0,1-3.59-2.25,5.13,5.13,0,0,1-1-3.14v-42H87.63a14.71,14.71,0,0,1-4.49-.63,6.07,6.07,0,0,1-3.32-2.87,18,18,0,0,1-2-6.47,79.29,79.29,0,0,1-.63-11.22q0-5.75.27-10a65.39,65.39,0,0,1,.9-7.63,37.63,37.63,0,0,1,1.79-6.46,59,59,0,0,1,3-6.46l72.18-127.31a7.38,7.38,0,0,1,3.05-2.78,22.7,22.7,0,0,1,6-2,71.11,71.11,0,0,1,9.78-1.16q5.93-.36,14.37-.36,9.15,0,15.62.45a61,61,0,0,1,10.32,1.43,15.36,15.36,0,0,1,5.66,2.43,4.27,4.27,0,0,1,1.79,3.41V331.1h20.65q2.86,0,4.94,4.4T249.58,350.13ZM176.51,224.27h-.36L114.92,331.1h61.59Zm256.94,75.59A257.49,257.49,0,0,1,429,350.13q-4.5,22.46-14.64,38.25a68.47,68.47,0,0,1-26.39,24.24q-16.26,8.43-39.77,8.44-23.88,0-39.5-8.17a61.57,61.57,0,0,1-24.78-23.53Q274.71,374,271,351.84a309,309,0,0,1-3.68-50.19,252.93,252.93,0,0,1,4.58-50.18q4.57-22.53,14.72-38.34a68.42,68.42,0,0,1,26.4-24.24q16.24-8.43,39.59-8.43,23.88,0,39.59,8.17a61.46,61.46,0,0,1,24.87,23.52q9.15,15.35,12.74,37.52A315.39,315.39,0,0,1,433.45,299.86Zm-47.59,2.33q0-16.51-.89-29.17a174.78,174.78,0,0,0-2.79-22,80.09,80.09,0,0,0-4.67-15.8,31.89,31.89,0,0,0-6.73-10.33,22.68,22.68,0,0,0-9-5.47,36.14,36.14,0,0,0-11.13-1.62q-10.59,0-17.5,5.12t-11,15.35q-4,10.23-5.65,25.5a341.26,341.26,0,0,0-1.62,35.55,349.73,349.73,0,0,0,2,41q2,16.25,6.19,25.85T334,379.67a31.34,31.34,0,0,0,16,3.86,31.92,31.92,0,0,0,12.39-2.25,25.86,25.86,0,0,0,9.43-6.73,37,37,0,0,0,6.73-11.31,87.65,87.65,0,0,0,4.4-15.8,155.26,155.26,0,0,0,2.34-20.29Q385.85,315.84,385.86,302.19Zm236.47,47.94q0,9.17-1.88,13.92c-1.26,3.17-3,4.76-5.12,4.76H594.68v42a4.9,4.9,0,0,1-1.07,3.14,8,8,0,0,1-3.77,2.25,34.45,34.45,0,0,1-7,1.35q-4.3.44-11.13.44-6.47,0-10.86-.44a32.6,32.6,0,0,1-7-1.35,7.3,7.3,0,0,1-3.6-2.25,5.19,5.19,0,0,1-1-3.14v-42H460.38a14.76,14.76,0,0,1-4.49-.63,6.07,6.07,0,0,1-3.32-2.87,18,18,0,0,1-2-6.47,79.29,79.29,0,0,1-.63-11.22q0-5.75.27-10a65.39,65.39,0,0,1,.9-7.63,36.76,36.76,0,0,1,1.8-6.46,57,57,0,0,1,3-6.46l72.18-127.31a7.44,7.44,0,0,1,3-2.78,22.7,22.7,0,0,1,6-2,71.11,71.11,0,0,1,9.78-1.16q5.93-.36,14.37-.36,9.15,0,15.62.45a61,61,0,0,1,10.32,1.43,15.36,15.36,0,0,1,5.66,2.43,4.27,4.27,0,0,1,1.79,3.41V331.1h20.65c1.92,0,3.56,1.47,4.94,4.4S622.33,343.31,622.33,350.13ZM549.26,224.27h-.36L487.67,331.1h61.59Z" transform="translate(-77.21 -180.46)"/><path class="cls-1" d="M202.8,481.29a10.8,10.8,0,0,1-.71,4,7.91,7.91,0,0,1-2.08,3,9.25,9.25,0,0,1-3.35,1.83,15.48,15.48,0,0,1-4.67.63h-2.27v8.67a.59.59,0,0,1-.14.38.89.89,0,0,1-.45.27,4.24,4.24,0,0,1-.84.17,12.77,12.77,0,0,1-2.67,0,4.2,4.2,0,0,1-.85-.17.89.89,0,0,1-.45-.27.64.64,0,0,1-.12-.38V475a2,2,0,0,1,.51-1.48,1.94,1.94,0,0,1,1.36-.49h6.4c.64,0,1.26,0,1.84.07a20,20,0,0,1,2.09.32,9.27,9.27,0,0,1,2.46.89A7.51,7.51,0,0,1,201,476a7,7,0,0,1,1.34,2.33A9.07,9.07,0,0,1,202.8,481.29Zm-5.77.4a4.84,4.84,0,0,0-.51-2.35,3.37,3.37,0,0,0-1.24-1.36,4,4,0,0,0-1.54-.56,11.32,11.32,0,0,0-1.67-.12h-2.35v9.22h2.48a5.91,5.91,0,0,0,2.21-.36,3.74,3.74,0,0,0,1.46-1,4.21,4.21,0,0,0,.86-1.54A6,6,0,0,0,197,481.69Z" transform="translate(-77.21 -180.46)"/><path class="cls-1" d="M226.42,498.15a8.5,8.5,0,0,1,.32,1.2.74.74,0,0,1-.17.66,1.34,1.34,0,0,1-.82.27q-.58.06-1.62.06c-.71,0-1.27,0-1.67,0a4.27,4.27,0,0,1-.91-.12.81.81,0,0,1-.44-.26,1.8,1.8,0,0,1-.21-.44L219.07,494h-10.2l-1.72,5.31a1.85,1.85,0,0,1-.22.49.89.89,0,0,1-.44.32,3.27,3.27,0,0,1-.86.15c-.38,0-.86,0-1.46,0a12.07,12.07,0,0,1-1.52-.07,1.14,1.14,0,0,1-.75-.3.82.82,0,0,1-.15-.68,6.48,6.48,0,0,1,.32-1.18l8.37-24.1a2.4,2.4,0,0,1,.3-.58,1,1,0,0,1,.53-.34,4.71,4.71,0,0,1,1-.14c.44,0,1,0,1.72,0s1.49,0,2,0a5.66,5.66,0,0,1,1.14.14,1.16,1.16,0,0,1,.59.35,1.85,1.85,0,0,1,.3.63ZM214,478.23h0l-3.84,11.54h7.7Z" transform="translate(-77.21 -180.46)"/><path class="cls-1" d="M251.49,477.26a10.26,10.26,0,0,1-.05,1.05,3.78,3.78,0,0,1-.15.7.76.76,0,0,1-.23.37.52.52,0,0,1-.33.11,2.11,2.11,0,0,1-.88-.38,12.4,12.4,0,0,0-1.61-.82,18.19,18.19,0,0,0-2.41-.82,12.53,12.53,0,0,0-3.24-.38,8.88,8.88,0,0,0-3.57.69,7.8,7.8,0,0,0-2.73,1.93,8.4,8.4,0,0,0-1.74,3,11.64,11.64,0,0,0-.61,3.87,12.51,12.51,0,0,0,.62,4.11,8.34,8.34,0,0,0,1.73,3,7,7,0,0,0,2.68,1.8,9.33,9.33,0,0,0,3.45.61,8,8,0,0,0,1.83-.21,6.77,6.77,0,0,0,1.68-.63v-6.3h-5.15c-.25,0-.44-.15-.58-.47a4.25,4.25,0,0,1-.22-1.6,6.81,6.81,0,0,1,.06-1,2.2,2.2,0,0,1,.16-.64.92.92,0,0,1,.25-.36.57.57,0,0,1,.33-.11H250a1.64,1.64,0,0,1,.6.11,1.28,1.28,0,0,1,.46.35,1.58,1.58,0,0,1,.3.56,2.35,2.35,0,0,1,.11.74v10.81a2.75,2.75,0,0,1-.22,1.11,1.6,1.6,0,0,1-.9.74c-.46.18-1,.37-1.7.57s-1.36.36-2.08.5-1.45.25-2.19.32-1.47.1-2.21.1a17.1,17.1,0,0,1-5.83-.93,11.43,11.43,0,0,1-7.09-7,16.53,16.53,0,0,1-.94-5.78,16.89,16.89,0,0,1,1-6,12.68,12.68,0,0,1,2.85-4.51,12.22,12.22,0,0,1,4.46-2.84,16.4,16.4,0,0,1,5.83-1,19.62,19.62,0,0,1,3.21.24,18,18,0,0,1,2.53.59,10.56,10.56,0,0,1,1.8.74,4.7,4.7,0,0,1,1,.7,1.75,1.75,0,0,1,.41.83A7.69,7.69,0,0,1,251.49,477.26Z" transform="translate(-77.21 -180.46)"/><path class="cls-1" d="M273.2,498.05a9.63,9.63,0,0,1-.05,1,2.9,2.9,0,0,1-.16.66.8.8,0,0,1-.26.36.57.57,0,0,1-.35.12H258.73a1.73,1.73,0,0,1-1.16-.41,1.69,1.69,0,0,1-.47-1.33V474.78a1.69,1.69,0,0,1,.47-1.33,1.73,1.73,0,0,1,1.16-.41H272.3a.6.6,0,0,1,.34.11.87.87,0,0,1,.25.36,2.65,2.65,0,0,1,.15.68,7.22,7.22,0,0,1,.06,1,7,7,0,0,1-.06,1,2.31,2.31,0,0,1-.15.66,1,1,0,0,1-.25.37.54.54,0,0,1-.34.12h-9.7V484h8.21a.54.54,0,0,1,.34.12.76.76,0,0,1,.27.35,2.31,2.31,0,0,1,.15.65,7.15,7.15,0,0,1,.06,1,7,7,0,0,1-.06,1,2.23,2.23,0,0,1-.15.64.76.76,0,0,1-.27.35.59.59,0,0,1-.34.1H262.6v7.66h9.78a.57.57,0,0,1,.35.12.9.9,0,0,1,.26.37,2.9,2.9,0,0,1,.16.66A9.35,9.35,0,0,1,273.2,498.05Z" transform="translate(-77.21 -180.46)"/><path class="cls-1" d="M310.2,498.28a2.13,2.13,0,0,1-.17.86,1.73,1.73,0,0,1-1.13,1,2.94,2.94,0,0,1-.78.11h-2.35a4.71,4.71,0,0,1-1.27-.15,2.39,2.39,0,0,1-1-.53,4.76,4.76,0,0,1-.87-1.05,19.42,19.42,0,0,1-.95-1.71l-6.76-12.7c-.39-.76-.79-1.57-1.2-2.45s-.76-1.73-1.09-2.55h0c.06,1,.1,2,.13,3s0,2,0,3.1v14.21a.64.64,0,0,1-.12.38.79.79,0,0,1-.4.28,2.83,2.83,0,0,1-.76.18,8.47,8.47,0,0,1-1.24.07,8.27,8.27,0,0,1-1.22-.07,2.74,2.74,0,0,1-.75-.18.73.73,0,0,1-.38-.28.7.7,0,0,1-.11-.38V475a1.84,1.84,0,0,1,.58-1.48,2.17,2.17,0,0,1,1.42-.49h3a5.62,5.62,0,0,1,1.34.14,2.75,2.75,0,0,1,1,.45,3.82,3.82,0,0,1,.81.87,10.49,10.49,0,0,1,.77,1.38l5.29,9.93.92,1.77q.45.87.87,1.74l.82,1.71c.26.56.52,1.12.77,1.68h0c-.05-1-.08-2-.1-3.06s0-2.08,0-3V473.86a.58.58,0,0,1,.13-.38.94.94,0,0,1,.42-.29,2.36,2.36,0,0,1,.77-.18,10.75,10.75,0,0,1,1.24-.05,10.22,10.22,0,0,1,1.2.05,2,2,0,0,1,.74.18.81.81,0,0,1,.37.29.7.7,0,0,1,.11.38Z" transform="translate(-77.21 -180.46)"/><path class="cls-1" d="M340.56,486.31a20.15,20.15,0,0,1-.84,6.05,12.32,12.32,0,0,1-2.5,4.52,10.8,10.8,0,0,1-4.11,2.84,15.17,15.17,0,0,1-5.65,1,16.56,16.56,0,0,1-5.54-.83,9.51,9.51,0,0,1-3.93-2.53,10.85,10.85,0,0,1-2.37-4.32,22,22,0,0,1-.78-6.22,19.53,19.53,0,0,1,.84-5.93,12.21,12.21,0,0,1,2.49-4.48,11,11,0,0,1,4.11-2.84,15.25,15.25,0,0,1,5.68-1,16.52,16.52,0,0,1,5.45.82,9.43,9.43,0,0,1,3.94,2.52,10.91,10.91,0,0,1,2.4,4.29A20.63,20.63,0,0,1,340.56,486.31Zm-5.8.29a21.14,21.14,0,0,0-.33-3.89,8.43,8.43,0,0,0-1.15-3,5.48,5.48,0,0,0-2.15-1.93,7.34,7.34,0,0,0-3.36-.69,6.87,6.87,0,0,0-3.4.77,6.22,6.22,0,0,0-2.21,2.05,8.4,8.4,0,0,0-1.18,3,18.3,18.3,0,0,0-.35,3.62,21.09,21.09,0,0,0,.34,4,8.57,8.57,0,0,0,1.13,3,5.32,5.32,0,0,0,2.14,1.93,7.68,7.68,0,0,0,3.38.66,7,7,0,0,0,3.4-.76,6.07,6.07,0,0,0,2.21-2.06,8.81,8.81,0,0,0,1.19-3A18.89,18.89,0,0,0,334.76,486.6Z" transform="translate(-77.21 -180.46)"/><path class="cls-1" d="M362.33,475.31a10.2,10.2,0,0,1-.05,1,3.07,3.07,0,0,1-.16.69,1,1,0,0,1-.26.39.58.58,0,0,1-.35.13h-6.8v21.89a.59.59,0,0,1-.14.38.89.89,0,0,1-.45.27,4.2,4.2,0,0,1-.85.17,10,10,0,0,1-1.33.07,10.13,10.13,0,0,1-1.34-.07,4.36,4.36,0,0,1-.85-.17.89.89,0,0,1-.45-.27.59.59,0,0,1-.14-.38V477.56h-6.8a.52.52,0,0,1-.35-.13,1,1,0,0,1-.26-.39,2.64,2.64,0,0,1-.15-.69,7.78,7.78,0,0,1-.06-1,8.05,8.05,0,0,1,.06-1.07,2.72,2.72,0,0,1,.15-.71.84.84,0,0,1,.26-.37.51.51,0,0,1,.35-.12h19.15a.57.57,0,0,1,.35.12.84.84,0,0,1,.26.37,3.14,3.14,0,0,1,.16.71A10.53,10.53,0,0,1,362.33,475.31Z" transform="translate(-77.21 -180.46)"/><path class="cls-1" d="M390.51,475.31a10.32,10.32,0,0,1-.05,1.06,2.79,2.79,0,0,1-.17.68,1.16,1.16,0,0,1-.27.38.51.51,0,0,1-.33.13h-8.88v7.3h8.33a.58.58,0,0,1,.34.11.91.91,0,0,1,.26.35,2.49,2.49,0,0,1,.17.68,10,10,0,0,1,0,1.05,9.62,9.62,0,0,1,0,1,2.65,2.65,0,0,1-.17.7,1,1,0,0,1-.26.39.58.58,0,0,1-.34.11h-8.33v10.12a.66.66,0,0,1-.13.4.87.87,0,0,1-.45.28,3.78,3.78,0,0,1-.85.18,12.86,12.86,0,0,1-2.68,0,3.66,3.66,0,0,1-.85-.18,1,1,0,0,1-.45-.28.61.61,0,0,1-.14-.4V474.78a1.66,1.66,0,0,1,.48-1.33,1.71,1.71,0,0,1,1.16-.41h12.79a.5.5,0,0,1,.33.12.93.93,0,0,1,.27.37,3.08,3.08,0,0,1,.17.71A10.53,10.53,0,0,1,390.51,475.31Z" transform="translate(-77.21 -180.46)"/><path class="cls-1" d="M419.13,486.31a20.15,20.15,0,0,1-.84,6.05,12.32,12.32,0,0,1-2.5,4.52,10.8,10.8,0,0,1-4.11,2.84,15.18,15.18,0,0,1-5.66,1,16.54,16.54,0,0,1-5.53-.83,9.54,9.54,0,0,1-3.94-2.53,10.84,10.84,0,0,1-2.36-4.32,22,22,0,0,1-.78-6.22,19.53,19.53,0,0,1,.84-5.93,12.07,12.07,0,0,1,2.49-4.48,11,11,0,0,1,4.11-2.84,15.25,15.25,0,0,1,5.68-1,16.57,16.57,0,0,1,5.45.82,9.43,9.43,0,0,1,3.94,2.52,10.91,10.91,0,0,1,2.4,4.29A20.63,20.63,0,0,1,419.13,486.31Zm-5.8.29a21.14,21.14,0,0,0-.33-3.89,8.43,8.43,0,0,0-1.15-3,5.48,5.48,0,0,0-2.15-1.93,7.34,7.34,0,0,0-3.36-.69,6.87,6.87,0,0,0-3.4.77,6.22,6.22,0,0,0-2.21,2.05,8.4,8.4,0,0,0-1.18,3,18.3,18.3,0,0,0-.35,3.62,21.09,21.09,0,0,0,.34,4,8.57,8.57,0,0,0,1.13,3,5.32,5.32,0,0,0,2.14,1.93,7.65,7.65,0,0,0,3.38.66,7,7,0,0,0,3.4-.76,6.07,6.07,0,0,0,2.21-2.06,8.61,8.61,0,0,0,1.18-3A18.87,18.87,0,0,0,413.33,486.6Z" transform="translate(-77.21 -180.46)"/><path class="cls-1" d="M445.94,490.09a12.7,12.7,0,0,1-.74,4.47A8.77,8.77,0,0,1,443,497.9a9.45,9.45,0,0,1-3.53,2.08,14.88,14.88,0,0,1-4.83.71,15.15,15.15,0,0,1-4.59-.64,8.84,8.84,0,0,1-3.45-1.94,8.64,8.64,0,0,1-2.15-3.24,12.62,12.62,0,0,1-.74-4.55V473.8a.64.64,0,0,1,.12-.38,1,1,0,0,1,.45-.27,4.52,4.52,0,0,1,.85-.17,12.32,12.32,0,0,1,1.35-.06,12,12,0,0,1,1.32.06,4.24,4.24,0,0,1,.84.17,1,1,0,0,1,.45.27.59.59,0,0,1,.14.38v16a8.67,8.67,0,0,0,.4,2.8,5,5,0,0,0,1.14,2,4.76,4.76,0,0,0,1.78,1.17,7.07,7.07,0,0,0,4.66,0,4.77,4.77,0,0,0,1.74-1.17,5.32,5.32,0,0,0,1.1-1.89,7.72,7.72,0,0,0,.39-2.55V473.8a.64.64,0,0,1,.12-.38,1,1,0,0,1,.45-.27,4.2,4.2,0,0,1,.85-.17,12.18,12.18,0,0,1,1.33-.06,11.66,11.66,0,0,1,1.31.06,4.27,4.27,0,0,1,.83.17.88.88,0,0,1,.44.27.58.58,0,0,1,.13.38Z" transform="translate(-77.21 -180.46)"/><path class="cls-1" d="M474.24,498.28a2,2,0,0,1-.17.86,1.81,1.81,0,0,1-.45.63,1.75,1.75,0,0,1-.67.37,3,3,0,0,1-.79.11h-2.35a4.76,4.76,0,0,1-1.27-.15,2.39,2.39,0,0,1-1-.53,4.76,4.76,0,0,1-.87-1.05c-.28-.44-.59-1-.94-1.71L459,484.11c-.4-.76-.79-1.57-1.2-2.45s-.77-1.73-1.09-2.55h0c.05,1,.09,2,.12,3s0,2,0,3.1v14.21a.63.63,0,0,1-.11.38.84.84,0,0,1-.4.28,2.91,2.91,0,0,1-.77.18,8.38,8.38,0,0,1-1.24.07,8.12,8.12,0,0,1-1.21-.07,2.73,2.73,0,0,1-.76-.18.77.77,0,0,1-.38-.28.7.7,0,0,1-.1-.38V475a1.84,1.84,0,0,1,.58-1.48,2.12,2.12,0,0,1,1.41-.49h3a5.71,5.71,0,0,1,1.35.14,2.7,2.7,0,0,1,1,.45,3.42,3.42,0,0,1,.81.87,11.71,11.71,0,0,1,.78,1.38l5.29,9.93.91,1.77q.45.87.87,1.74c.28.58.56,1.15.82,1.71s.53,1.12.78,1.68h0q-.06-1.47-.09-3.06c0-1.07,0-2.08,0-3V473.86a.65.65,0,0,1,.13-.38,1.07,1.07,0,0,1,.42-.29,2.49,2.49,0,0,1,.78-.18,10.65,10.65,0,0,1,1.24-.05A10.14,10.14,0,0,1,473,473a2.11,2.11,0,0,1,.75.18.87.87,0,0,1,.37.29.7.7,0,0,1,.1.38Z" transform="translate(-77.21 -180.46)"/><path class="cls-1" d="M502.73,486.23a18.6,18.6,0,0,1-1,6.39A10.86,10.86,0,0,1,499,497a11.06,11.06,0,0,1-4.44,2.46,21.48,21.48,0,0,1-6.22.79H481.8a1.76,1.76,0,0,1-1.17-.41,1.69,1.69,0,0,1-.47-1.33V474.78a1.69,1.69,0,0,1,.47-1.33,1.76,1.76,0,0,1,1.17-.41h7a19.36,19.36,0,0,1,6.16.85,11.29,11.29,0,0,1,4.27,2.52,10.81,10.81,0,0,1,2.63,4.13A16.45,16.45,0,0,1,502.73,486.23Zm-5.71.19a13.63,13.63,0,0,0-.45-3.59,7.53,7.53,0,0,0-1.45-2.88,6.67,6.67,0,0,0-2.56-1.9,10.28,10.28,0,0,0-4.1-.68h-2.8v18.47h2.88a10.65,10.65,0,0,0,3.82-.59,6.31,6.31,0,0,0,2.59-1.77,7.5,7.5,0,0,0,1.56-3A14.9,14.9,0,0,0,497,486.42Z" transform="translate(-77.21 -180.46)"/><path class="cls-1" d="M515.06,497.46a6.59,6.59,0,0,1-.14,1.45,1.91,1.91,0,0,1-.48.94,2,2,0,0,1-.92.52,5.61,5.61,0,0,1-1.42.15,5.78,5.78,0,0,1-1.44-.15,1.89,1.89,0,0,1-.91-.52,1.91,1.91,0,0,1-.48-.94,6.65,6.65,0,0,1-.13-1.45,6.89,6.89,0,0,1,.13-1.48,2.06,2.06,0,0,1,.48-1,1.81,1.81,0,0,1,.91-.52,5.3,5.3,0,0,1,1.44-.16,5.14,5.14,0,0,1,1.42.16,1.94,1.94,0,0,1,.92.52,2.06,2.06,0,0,1,.48,1A6.82,6.82,0,0,1,515.06,497.46Zm-.65-6.15a1,1,0,0,1-.13.38.8.8,0,0,1-.37.28,2.51,2.51,0,0,1-.71.18,8.55,8.55,0,0,1-1.1.06,8.67,8.67,0,0,1-1.12-.06,2.62,2.62,0,0,1-.7-.18.86.86,0,0,1-.37-.28.85.85,0,0,1-.12-.38l-.55-19.07a.86.86,0,0,1,.13-.48.88.88,0,0,1,.45-.35,3.72,3.72,0,0,1,.88-.2,13.48,13.48,0,0,1,1.4-.06,12.57,12.57,0,0,1,1.38.07,3.46,3.46,0,0,1,.87.21,1.19,1.19,0,0,1,.47.34.81.81,0,0,1,.13.47Z" transform="translate(-77.21 -180.46)"/></svg>