<svg id="Réteg_1" data-name="Réteg 1" xmlns="http://www.w3.org/2000/svg" viewBox="0 0 648.21 376.15"><defs><style>.cls-1{fill:#07565e;}</style></defs><path class="cls-1" d="M244.42,332.65q0,9.23-1.9,14t-5.15,4.78H216.6v42.28a4.87,4.87,0,0,1-1.09,3.16,8,8,0,0,1-3.79,2.26,34.08,34.08,0,0,1-7.05,1.35q-4.33.45-11.2.45c-4.33,0-8-.15-10.93-.45a32.42,32.42,0,0,1-7-1.35,7.38,7.38,0,0,1-3.62-2.26,5.21,5.21,0,0,1-1-3.16V351.44H81.46a14.85,14.85,0,0,1-4.51-.63,6.11,6.11,0,0,1-3.35-2.89,18.06,18.06,0,0,1-2-6.5,78.72,78.72,0,0,1-.64-11.3q0-5.78.28-10a62,62,0,0,1,.9-7.68,37,37,0,0,1,1.8-6.5,60.72,60.72,0,0,1,3-6.51l72.62-128.09a7.48,7.48,0,0,1,3.07-2.8,23.26,23.26,0,0,1,6.06-2,70.2,70.2,0,0,1,9.84-1.17q6-.36,14.45-.36,9.22,0,15.72.45a60.67,60.67,0,0,1,10.39,1.44,15.54,15.54,0,0,1,5.69,2.44,4.32,4.32,0,0,1,1.81,3.44V313.5h20.77q2.9,0,5,4.43T244.42,332.65ZM170.89,206h-.36L108.92,313.5h62ZM422.56,381.79a57.74,57.74,0,0,1-.55,8.59,20.67,20.67,0,0,1-1.53,5.6,7.72,7.72,0,0,1-2.26,3,4.86,4.86,0,0,1-2.89.9h-129a4.61,4.61,0,0,1-2.71-.9,7.61,7.61,0,0,1-2.25-3,20.28,20.28,0,0,1-1.54-5.6,57.88,57.88,0,0,1-.54-8.59,71,71,0,0,1,.45-8.76,19.7,19.7,0,0,1,1.45-5.69,8.4,8.4,0,0,1,2.25-3.16,4.56,4.56,0,0,1,2.89-1h43.54V211.07L292.3,231.84a27.49,27.49,0,0,1-6.78,2.44,4.45,4.45,0,0,1-4.15-1.08q-1.55-1.53-2.08-5.33a80.4,80.4,0,0,1-.54-10.66q0-4.34.18-7.14a17.38,17.38,0,0,1,.9-4.78,8.68,8.68,0,0,1,2-3.26,23.44,23.44,0,0,1,3.43-2.71l50.23-32.52a7.23,7.23,0,0,1,2.25-1.17,19,19,0,0,1,3.53-.72q2.16-.27,5.69-.36t9.12-.09q6.87,0,11.11.27a31.94,31.94,0,0,1,6.42.9,5.05,5.05,0,0,1,2.89,1.72,4.78,4.78,0,0,1,.72,2.71V363.19h38.12a4.94,4.94,0,0,1,3,1,8,8,0,0,1,2.35,3.16A20.06,20.06,0,0,1,422.1,373,70.79,70.79,0,0,1,422.56,381.79ZM612.79,272.31q0,14.28-1.44,29.54a172.73,172.73,0,0,1-5.51,29.9,133.39,133.39,0,0,1-11.2,27.82,82.26,82.26,0,0,1-18.43,23,84.6,84.6,0,0,1-27.46,15.62Q532.58,404,510.54,404a110.82,110.82,0,0,1-15.45-1.09,126.73,126.73,0,0,1-14-2.71,84.4,84.4,0,0,1-10.75-3.43,20.82,20.82,0,0,1-6.41-3.7,11.12,11.12,0,0,1-2.89-5.51,43.47,43.47,0,0,1-.91-10.12q0-6,.28-9.58a19,19,0,0,1,1.08-5.6,5,5,0,0,1,2-2.62,5.82,5.82,0,0,1,2.8-.63,21.84,21.84,0,0,1,6.14,1.27q4,1.26,9.66,2.89A127.61,127.61,0,0,0,495,366.08a94,94,0,0,0,16.08,1.26q15.18,0,25.66-5.42a46.68,46.68,0,0,0,17-14.63A64,64,0,0,0,563.29,326a116.44,116.44,0,0,0,3.44-25.47,91.84,91.84,0,0,1-20.06,9.12,85.63,85.63,0,0,1-26.92,3.88q-18.6,0-31.61-4.87A51.82,51.82,0,0,1,467,294.53a56.31,56.31,0,0,1-11.84-22.4,110.69,110.69,0,0,1-3.7-29.81,95.69,95.69,0,0,1,5.24-32.25,68.4,68.4,0,0,1,41.19-42.18q15.36-6,35.59-6,16.26,0,28.46,3.79a62.88,62.88,0,0,1,21,10.84,61.86,61.86,0,0,1,14.63,17.07,91.89,91.89,0,0,1,9.21,22.31,157.84,157.84,0,0,1,4.7,26.56Q612.79,256.78,612.79,272.31Zm-47.15-6.5a201,201,0,0,0-2.17-32.34q-2.16-13-6.5-20.78t-10.84-11A33.5,33.5,0,0,0,531,198.42a33.15,33.15,0,0,0-14.63,3,27.7,27.7,0,0,0-10.21,8.4,37.15,37.15,0,0,0-6.05,12.83,62.45,62.45,0,0,0-2,16.26,74.1,74.1,0,0,0,1.72,16.89,31.07,31.07,0,0,0,5.42,12.11,22.23,22.23,0,0,0,9.66,7.13,39.43,39.43,0,0,0,14.46,2.35,61,61,0,0,0,19.78-3.16A62.08,62.08,0,0,0,565.64,265.81Z" transform="translate(-25.89 -161.93)"/><path class="cls-1" d="M43.64,477.84a8.43,8.43,0,0,1-.8,3.76,7.74,7.74,0,0,1-2.16,2.7,9.58,9.58,0,0,1-3.2,1.63,13.67,13.67,0,0,1-3.9.54,13.34,13.34,0,0,1-2.61-.23,15.41,15.41,0,0,1-2.14-.55,9.45,9.45,0,0,1-1.54-.69,3.89,3.89,0,0,1-.89-.63,1.59,1.59,0,0,1-.39-.78,7,7,0,0,1-.12-1.48c0-.44,0-.8.05-1.1a2.91,2.91,0,0,1,.13-.71.91.91,0,0,1,.25-.39.67.67,0,0,1,.37-.11,1.72,1.72,0,0,1,.83.34,15.35,15.35,0,0,0,1.38.77,13.54,13.54,0,0,0,2,.77,9.58,9.58,0,0,0,2.7.34,6.35,6.35,0,0,0,1.81-.24,4.08,4.08,0,0,0,1.35-.68,2.93,2.93,0,0,0,.85-1.09,3.45,3.45,0,0,0,.29-1.45,2.52,2.52,0,0,0-.5-1.59,5,5,0,0,0-1.31-1.17,12.63,12.63,0,0,0-1.84-1l-2.12-.95A19.77,19.77,0,0,1,30,472.73a8.47,8.47,0,0,1-1.84-1.53,7.37,7.37,0,0,1-1.31-2.11,7.56,7.56,0,0,1-.5-2.92,7.73,7.73,0,0,1,.72-3.43,7,7,0,0,1,2-2.46,8.34,8.34,0,0,1,2.9-1.46,12.72,12.72,0,0,1,3.54-.48,12.55,12.55,0,0,1,1.93.15,12,12,0,0,1,1.81.4,9.49,9.49,0,0,1,1.49.56,3.53,3.53,0,0,1,.86.53,1.68,1.68,0,0,1,.28.35,2,2,0,0,1,.13.39,4.3,4.3,0,0,1,.07.61c0,.25,0,.55,0,.91s0,.75,0,1a5.09,5.09,0,0,1-.1.7.8.8,0,0,1-.21.39.52.52,0,0,1-.37.13,1.82,1.82,0,0,1-.74-.29,13.8,13.8,0,0,0-1.24-.64,11.75,11.75,0,0,0-1.7-.63,7.44,7.44,0,0,0-2.12-.29,5.26,5.26,0,0,0-1.57.22,3.39,3.39,0,0,0-1.13.61,2.42,2.42,0,0,0-.67.94,3.18,3.18,0,0,0-.22,1.15,2.56,2.56,0,0,0,.5,1.57,4.59,4.59,0,0,0,1.32,1.17,13.18,13.18,0,0,0,1.88,1c.7.3,1.41.62,2.14,1a21.06,21.06,0,0,1,2.14,1.15,8.63,8.63,0,0,1,1.87,1.53,7,7,0,0,1,1.32,2.1A7.24,7.24,0,0,1,43.64,477.84Z" transform="translate(-25.89 -161.93)"/><path class="cls-1" d="M72.3,472.09a20.1,20.1,0,0,1-.84,6.05,12.24,12.24,0,0,1-2.5,4.52,10.8,10.8,0,0,1-4.11,2.84,15.18,15.18,0,0,1-5.66,1,16.54,16.54,0,0,1-5.53-.83,9.44,9.44,0,0,1-3.93-2.53,10.85,10.85,0,0,1-2.37-4.32,22,22,0,0,1-.78-6.22,19.53,19.53,0,0,1,.84-5.93,12.21,12.21,0,0,1,2.49-4.48A10.89,10.89,0,0,1,54,459.33a15,15,0,0,1,5.68-1,16.52,16.52,0,0,1,5.45.82,9.43,9.43,0,0,1,3.94,2.52,10.91,10.91,0,0,1,2.4,4.29A20.63,20.63,0,0,1,72.3,472.09Zm-5.8.3a21.18,21.18,0,0,0-.33-3.9,8.43,8.43,0,0,0-1.15-3,5.48,5.48,0,0,0-2.15-1.93,7.34,7.34,0,0,0-3.36-.69,6.87,6.87,0,0,0-3.4.77,6.22,6.22,0,0,0-2.21,2.05,8.4,8.4,0,0,0-1.18,3,18.3,18.3,0,0,0-.35,3.62,21.09,21.09,0,0,0,.34,4,8.57,8.57,0,0,0,1.13,3A5.24,5.24,0,0,0,56,481.26a7.65,7.65,0,0,0,3.38.66,6.87,6.87,0,0,0,3.4-.76A6.07,6.07,0,0,0,65,479.1a8.53,8.53,0,0,0,1.18-3A18,18,0,0,0,66.5,472.39Z" transform="translate(-25.89 -161.93)"/><path class="cls-1" d="M97.09,485.28a.93.93,0,0,1-.08.39.71.71,0,0,1-.4.26,3.64,3.64,0,0,1-.92.14c-.41,0-1,.05-1.66.05s-1.06,0-1.41-.05a3.09,3.09,0,0,1-.83-.15.91.91,0,0,1-.43-.3,1.91,1.91,0,0,1-.21-.43l-2.44-6.06c-.29-.69-.58-1.3-.86-1.83a5.78,5.78,0,0,0-.93-1.33,3.32,3.32,0,0,0-1.19-.81,4.12,4.12,0,0,0-1.55-.28H82.46v10.35a.59.59,0,0,1-.14.38.89.89,0,0,1-.45.28,4.33,4.33,0,0,1-.84.16,12.86,12.86,0,0,1-2.68,0,4.45,4.45,0,0,1-.85-.16.86.86,0,0,1-.44-.28.64.64,0,0,1-.12-.38V460.57a1.67,1.67,0,0,1,.47-1.34,1.71,1.71,0,0,1,1.16-.41h7c.71,0,1.3,0,1.76,0s.88.07,1.26.11a11.18,11.18,0,0,1,3,.8,7.18,7.18,0,0,1,2.23,1.48,6.27,6.27,0,0,1,1.39,2.16,8,8,0,0,1,.49,2.87,8.35,8.35,0,0,1-.35,2.48,6.35,6.35,0,0,1-1,2,6.58,6.58,0,0,1-1.66,1.53,9,9,0,0,1-2.25,1.05,6.17,6.17,0,0,1,2.16,1.73,10.46,10.46,0,0,1,.89,1.37,18.85,18.85,0,0,1,.82,1.73l2.29,5.35c.21.54.35.92.42,1.17A2.19,2.19,0,0,1,97.09,485.28ZM90,466.84a4.11,4.11,0,0,0-.6-2.27,3.36,3.36,0,0,0-2-1.3,7.5,7.5,0,0,0-1-.16,11.57,11.57,0,0,0-1.48-.07H82.46v7.71h2.81a6.69,6.69,0,0,0,2.06-.29,4.13,4.13,0,0,0,1.47-.79,3.44,3.44,0,0,0,.88-1.23A4.11,4.11,0,0,0,90,466.84Z" transform="translate(-25.89 -161.93)"/><path class="cls-1" d="M121.3,485.28a.93.93,0,0,1-.08.39.71.71,0,0,1-.4.26,3.65,3.65,0,0,1-.93.14c-.4,0-1,.05-1.66.05s-1,0-1.4-.05a3.09,3.09,0,0,1-.83-.15.91.91,0,0,1-.43-.3,1.33,1.33,0,0,1-.21-.43l-2.44-6.06c-.29-.69-.58-1.3-.86-1.83a5.78,5.78,0,0,0-.93-1.33,3.41,3.41,0,0,0-1.19-.81,4.12,4.12,0,0,0-1.55-.28h-1.72v10.35a.59.59,0,0,1-.14.38.89.89,0,0,1-.45.28,4.33,4.33,0,0,1-.84.16,12.86,12.86,0,0,1-2.68,0,4.3,4.3,0,0,1-.85-.16.82.82,0,0,1-.44-.28.64.64,0,0,1-.12-.38V460.57a1.67,1.67,0,0,1,.47-1.34,1.71,1.71,0,0,1,1.16-.41h7c.71,0,1.3,0,1.76,0s.88.07,1.26.11a11.28,11.28,0,0,1,3,.8,7.18,7.18,0,0,1,2.23,1.48,6.27,6.27,0,0,1,1.39,2.16,8,8,0,0,1,.48,2.87,8.36,8.36,0,0,1-.34,2.48,6.35,6.35,0,0,1-1,2,6.58,6.58,0,0,1-1.66,1.53,9,9,0,0,1-2.25,1.05,6.17,6.17,0,0,1,2.16,1.73,10.46,10.46,0,0,1,.89,1.37,18.85,18.85,0,0,1,.82,1.73l2.29,5.35c.21.54.35.92.42,1.17A2.19,2.19,0,0,1,121.3,485.28Zm-7.12-18.44a4,4,0,0,0-.61-2.27,3.31,3.31,0,0,0-2-1.3,7.37,7.37,0,0,0-1-.16,11.37,11.37,0,0,0-1.48-.07h-2.47v7.71h2.81a6.74,6.74,0,0,0,2.06-.29,4.13,4.13,0,0,0,1.47-.79,3.44,3.44,0,0,0,.88-1.23A4.11,4.11,0,0,0,114.18,466.84Z" transform="translate(-25.89 -161.93)"/><path class="cls-1" d="M135.54,475.68v9.55a.59.59,0,0,1-.14.38.89.89,0,0,1-.45.28,4.3,4.3,0,0,1-.85.16,12.86,12.86,0,0,1-2.68,0,4.62,4.62,0,0,1-.85-.16.81.81,0,0,1-.45-.28.65.65,0,0,1-.13-.38v-9.55l-7.43-14.8a6.54,6.54,0,0,1-.51-1.21.61.61,0,0,1,.12-.65,1.48,1.48,0,0,1,.89-.27c.44,0,1-.05,1.81-.05s1.16,0,1.54,0a3.75,3.75,0,0,1,.92.16,1,1,0,0,1,.49.3,2.19,2.19,0,0,1,.3.48l3,6.68q.43,1,.87,2c.29.71.58,1.46.87,2.24h0c.27-.75.54-1.49.82-2.2s.56-1.39.82-2l3-6.63a1.7,1.7,0,0,1,.26-.54,1.16,1.16,0,0,1,.48-.32,2.82,2.82,0,0,1,.86-.17c.36,0,.84,0,1.45,0,.79,0,1.41,0,1.85.05a1.5,1.5,0,0,1,.91.27.6.6,0,0,1,.11.66,6.91,6.91,0,0,1-.5,1.2Z" transform="translate(-25.89 -161.93)"/><path class="cls-1" d="M147.8,482.13a11.73,11.73,0,0,1-.09,1.52,6.55,6.55,0,0,1-.27,1.29,7.58,7.58,0,0,1-1.22,2.37l-2.81,4a1.91,1.91,0,0,1-.33.36,1.11,1.11,0,0,1-.43.23,3.56,3.56,0,0,1-.6.14,7.39,7.39,0,0,1-.91.05,8.43,8.43,0,0,1-1-.05,1.51,1.51,0,0,1-.55-.16.35.35,0,0,1-.18-.27.84.84,0,0,1,.1-.4l2.56-5.8v-3.31a3.16,3.16,0,0,1,.17-1.16,1.31,1.31,0,0,1,.52-.67,2.27,2.27,0,0,1,.9-.3,10,10,0,0,1,1.33-.08,9,9,0,0,1,1.26.08,2.13,2.13,0,0,1,.87.3,1.27,1.27,0,0,1,.5.67A3.41,3.41,0,0,1,147.8,482.13Z" transform="translate(-25.89 -161.93)"/><path class="cls-1" d="M173.69,475.68v9.55a.59.59,0,0,1-.14.38.89.89,0,0,1-.45.28,4.45,4.45,0,0,1-.85.16,12.86,12.86,0,0,1-2.68,0,4.62,4.62,0,0,1-.85-.16.81.81,0,0,1-.45-.28.65.65,0,0,1-.13-.38v-9.55l-7.43-14.8a5.91,5.91,0,0,1-.51-1.21.61.61,0,0,1,.12-.65,1.48,1.48,0,0,1,.89-.27c.44,0,1-.05,1.81-.05s1.16,0,1.54,0a3.75,3.75,0,0,1,.92.16,1,1,0,0,1,.49.3,2.65,2.65,0,0,1,.3.48l3,6.68q.44,1,.87,2c.29.71.58,1.46.87,2.24h0c.27-.75.54-1.49.82-2.2s.55-1.39.82-2l3-6.63a1.7,1.7,0,0,1,.26-.54,1.16,1.16,0,0,1,.48-.32,2.82,2.82,0,0,1,.86-.17c.36,0,.84,0,1.45,0,.79,0,1.41,0,1.85.05a1.5,1.5,0,0,1,.91.27.6.6,0,0,1,.11.66,6.91,6.91,0,0,1-.5,1.2Z" transform="translate(-25.89 -161.93)"/><path class="cls-1" d="M207.87,472.09a20.1,20.1,0,0,1-.84,6.05,12.24,12.24,0,0,1-2.5,4.52,10.8,10.8,0,0,1-4.11,2.84,15.17,15.17,0,0,1-5.65,1,16.56,16.56,0,0,1-5.54-.83,9.51,9.51,0,0,1-3.93-2.53,10.85,10.85,0,0,1-2.37-4.32,22,22,0,0,1-.78-6.22,19.53,19.53,0,0,1,.84-5.93,12.21,12.21,0,0,1,2.49-4.48,10.89,10.89,0,0,1,4.11-2.83,15,15,0,0,1,5.68-1,16.52,16.52,0,0,1,5.45.82,9.52,9.52,0,0,1,3.95,2.52,11,11,0,0,1,2.39,4.29A20.63,20.63,0,0,1,207.87,472.09Zm-5.8.3a21.18,21.18,0,0,0-.33-3.9,8.43,8.43,0,0,0-1.15-3,5.42,5.42,0,0,0-2.15-1.93,7.34,7.34,0,0,0-3.36-.69,6.87,6.87,0,0,0-3.4.77,6.1,6.1,0,0,0-2.2,2.05,8.23,8.23,0,0,0-1.19,3,18.3,18.3,0,0,0-.35,3.62,21.09,21.09,0,0,0,.34,4,8.57,8.57,0,0,0,1.13,3,5.24,5.24,0,0,0,2.14,1.93,7.68,7.68,0,0,0,3.38.66,6.84,6.84,0,0,0,3.4-.76,6.07,6.07,0,0,0,2.21-2.06,8.73,8.73,0,0,0,1.19-3A18.78,18.78,0,0,0,202.07,472.39Z" transform="translate(-25.89 -161.93)"/><path class="cls-1" d="M234.68,475.87a12.47,12.47,0,0,1-.74,4.47,8.77,8.77,0,0,1-2.16,3.34,9.45,9.45,0,0,1-3.53,2.08,14.82,14.82,0,0,1-4.82.71,15.22,15.22,0,0,1-4.6-.64,8.84,8.84,0,0,1-3.45-1.94,8.64,8.64,0,0,1-2.15-3.24,12.62,12.62,0,0,1-.74-4.55V459.58a.64.64,0,0,1,.12-.38,1,1,0,0,1,.45-.27,4.52,4.52,0,0,1,.85-.17,12.32,12.32,0,0,1,1.35-.06,12,12,0,0,1,1.32.06,4.24,4.24,0,0,1,.84.17,1,1,0,0,1,.45.27.59.59,0,0,1,.14.38v16a8.67,8.67,0,0,0,.4,2.8,5.22,5.22,0,0,0,1.14,2,4.82,4.82,0,0,0,1.79,1.16,6.53,6.53,0,0,0,2.32.39,6.36,6.36,0,0,0,2.33-.4,4.65,4.65,0,0,0,1.74-1.17,5.18,5.18,0,0,0,1.1-1.89,7.68,7.68,0,0,0,.39-2.55V459.58a.58.58,0,0,1,.13-.38.88.88,0,0,1,.44-.27,4.2,4.2,0,0,1,.85-.17,12.18,12.18,0,0,1,1.33-.06,11.66,11.66,0,0,1,1.31.06,4.12,4.12,0,0,1,.83.17.88.88,0,0,1,.44.27.58.58,0,0,1,.13.38Z" transform="translate(-25.89 -161.93)"/><path class="cls-1" d="M260.74,485.28a.8.8,0,0,1-.09.39.67.67,0,0,1-.4.26,3.56,3.56,0,0,1-.92.14c-.41,0-1,.05-1.66.05s-1.06,0-1.41-.05a3,3,0,0,1-.82-.15,1,1,0,0,1-.44-.3,1.91,1.91,0,0,1-.21-.43l-2.43-6.06c-.3-.69-.58-1.3-.86-1.83a5.51,5.51,0,0,0-.94-1.33,3.28,3.28,0,0,0-1.18-.81,4.17,4.17,0,0,0-1.56-.28H246.1v10.35a.58.58,0,0,1-.13.38,1,1,0,0,1-.46.28,4.33,4.33,0,0,1-.84.16,12.77,12.77,0,0,1-2.67,0,4.3,4.3,0,0,1-.85-.16.82.82,0,0,1-.44-.28.58.58,0,0,1-.13-.38V460.57a1.7,1.7,0,0,1,.47-1.34,1.76,1.76,0,0,1,1.17-.41h7c.72,0,1.3,0,1.77,0s.88.07,1.25.11a11.25,11.25,0,0,1,3,.8,7.13,7.13,0,0,1,2.22,1.48,6.29,6.29,0,0,1,1.4,2.16,8,8,0,0,1,.48,2.87,8.35,8.35,0,0,1-.35,2.48,6.55,6.55,0,0,1-1,2,6.76,6.76,0,0,1-1.66,1.53,9,9,0,0,1-2.25,1.05,6.26,6.26,0,0,1,2.15,1.73,9.53,9.53,0,0,1,.89,1.37,16.55,16.55,0,0,1,.82,1.73l2.29,5.35c.21.54.35.92.42,1.17A2.28,2.28,0,0,1,260.74,485.28Zm-7.12-18.44a4,4,0,0,0-.61-2.27,3.34,3.34,0,0,0-2-1.3,7.67,7.67,0,0,0-1-.16,11.47,11.47,0,0,0-1.48-.07H246.1v7.71h2.82a6.63,6.63,0,0,0,2.05-.29,4.13,4.13,0,0,0,1.47-.79,3.32,3.32,0,0,0,.88-1.23A4.11,4.11,0,0,0,253.62,466.84Z" transform="translate(-25.89 -161.93)"/><path class="cls-1" d="M290.61,477.84a8.42,8.42,0,0,1-.79,3.76,7.88,7.88,0,0,1-2.17,2.7,9.53,9.53,0,0,1-3.19,1.63,13.72,13.72,0,0,1-3.9.54,13.52,13.52,0,0,1-2.62-.23,15.62,15.62,0,0,1-2.13-.55,9.45,9.45,0,0,1-1.54-.69,3.67,3.67,0,0,1-.89-.63,1.44,1.44,0,0,1-.39-.78,7,7,0,0,1-.12-1.48c0-.44,0-.8,0-1.1a3.41,3.41,0,0,1,.14-.71.82.82,0,0,1,.25-.39.67.67,0,0,1,.37-.11,1.72,1.72,0,0,1,.83.34,15,15,0,0,0,1.37.77,13.27,13.27,0,0,0,2,.77,9.58,9.58,0,0,0,2.7.34,6.23,6.23,0,0,0,1.8-.24,4,4,0,0,0,1.36-.68,2.93,2.93,0,0,0,.85-1.09,3.61,3.61,0,0,0,.29-1.45,2.58,2.58,0,0,0-.5-1.59,5.14,5.14,0,0,0-1.31-1.17,13.17,13.17,0,0,0-1.84-1l-2.12-.95a18.85,18.85,0,0,1-2.12-1.15,8.47,8.47,0,0,1-1.84-1.53,7.16,7.16,0,0,1-1.31-2.11,7.55,7.55,0,0,1-.51-2.92,7.73,7.73,0,0,1,.73-3.43,7,7,0,0,1,1.95-2.46,8.34,8.34,0,0,1,2.9-1.46,13,13,0,0,1,5.47-.33,11.88,11.88,0,0,1,1.8.4,9.12,9.12,0,0,1,1.49.56,3.45,3.45,0,0,1,.87.53,1.68,1.68,0,0,1,.28.35,1.5,1.5,0,0,1,.12.39,4.14,4.14,0,0,1,.08.61c0,.25,0,.55,0,.91s0,.75,0,1a3.82,3.82,0,0,1-.11.7.8.8,0,0,1-.21.39.49.49,0,0,1-.37.13,1.85,1.85,0,0,1-.73-.29c-.34-.2-.75-.41-1.24-.64a12.21,12.21,0,0,0-1.7-.63,7.44,7.44,0,0,0-2.12-.29,5.22,5.22,0,0,0-1.57.22,3.3,3.3,0,0,0-1.13.61,2.42,2.42,0,0,0-.67.94,3,3,0,0,0-.22,1.15,2.55,2.55,0,0,0,.49,1.57,4.64,4.64,0,0,0,1.33,1.17,13.18,13.18,0,0,0,1.88,1c.7.3,1.41.62,2.14,1a22.18,22.18,0,0,1,2.14,1.15,8.63,8.63,0,0,1,1.87,1.53,7,7,0,0,1,1.82,4.94Z" transform="translate(-25.89 -161.93)"/><path class="cls-1" d="M310.94,483.83a9.63,9.63,0,0,1-.05,1,2.9,2.9,0,0,1-.16.66.9.9,0,0,1-.26.37.66.66,0,0,1-.35.11H296.47a1.71,1.71,0,0,1-1.16-.41,1.66,1.66,0,0,1-.48-1.33V460.57a1.67,1.67,0,0,1,.48-1.34,1.71,1.71,0,0,1,1.16-.41H310a.57.57,0,0,1,.33.11.79.79,0,0,1,.25.36,2.62,2.62,0,0,1,.16.68,9.62,9.62,0,0,1,.05,1,9,9,0,0,1-.05,1,2.27,2.27,0,0,1-.16.66.89.89,0,0,1-.25.37.52.52,0,0,1-.33.12h-9.71v6.63h8.21a.55.55,0,0,1,.35.12.75.75,0,0,1,.26.35,2.37,2.37,0,0,1,.16.65,7.31,7.31,0,0,1,.05,1,7.21,7.21,0,0,1-.05,1,2.2,2.2,0,0,1-.16.64.75.75,0,0,1-.26.35.6.6,0,0,1-.35.1h-8.21v7.67h9.79a.58.58,0,0,1,.35.11.9.9,0,0,1,.26.37,2.9,2.9,0,0,1,.16.66A9.35,9.35,0,0,1,310.94,483.83Z" transform="translate(-25.89 -161.93)"/><path class="cls-1" d="M331.49,477.84a8.29,8.29,0,0,1-.8,3.76,7.74,7.74,0,0,1-2.16,2.7,9.53,9.53,0,0,1-3.19,1.63,13.72,13.72,0,0,1-3.9.54,13.52,13.52,0,0,1-2.62-.23,15.62,15.62,0,0,1-2.13-.55,9.08,9.08,0,0,1-1.54-.69,4,4,0,0,1-.9-.63,1.51,1.51,0,0,1-.38-.78,7,7,0,0,1-.12-1.48c0-.44,0-.8,0-1.1a3.41,3.41,0,0,1,.14-.71.82.82,0,0,1,.25-.39.67.67,0,0,1,.37-.11,1.76,1.76,0,0,1,.83.34,13.76,13.76,0,0,0,1.37.77,13.27,13.27,0,0,0,2,.77,9.58,9.58,0,0,0,2.7.34,6.23,6.23,0,0,0,1.8-.24,4.13,4.13,0,0,0,1.36-.68,2.93,2.93,0,0,0,.85-1.09,3.61,3.61,0,0,0,.29-1.45,2.58,2.58,0,0,0-.5-1.59,5,5,0,0,0-1.32-1.17,12.5,12.5,0,0,0-1.83-1l-2.12-.95a18.85,18.85,0,0,1-2.12-1.15A8.47,8.47,0,0,1,316,471.2a7.16,7.16,0,0,1-1.31-2.11,8.51,8.51,0,0,1,.22-6.35,7,7,0,0,1,1.95-2.46,8.25,8.25,0,0,1,2.9-1.46,13,13,0,0,1,5.47-.33,11.88,11.88,0,0,1,1.8.4,9.12,9.12,0,0,1,1.49.56,3.33,3.33,0,0,1,.86.53,1.8,1.8,0,0,1,.29.35,1.5,1.5,0,0,1,.12.39,4.14,4.14,0,0,1,.08.61c0,.25,0,.55,0,.91s0,.75,0,1a3.82,3.82,0,0,1-.11.7.8.8,0,0,1-.21.39.49.49,0,0,1-.37.13,1.85,1.85,0,0,1-.73-.29c-.34-.2-.75-.41-1.24-.64a12.21,12.21,0,0,0-1.7-.63,7.44,7.44,0,0,0-2.12-.29,5.33,5.33,0,0,0-1.58.22,3.34,3.34,0,0,0-1.12.61,2.42,2.42,0,0,0-.67.94,3,3,0,0,0-.22,1.15,2.55,2.55,0,0,0,.49,1.57,4.64,4.64,0,0,0,1.33,1.17,13,13,0,0,0,1.87,1l2.15,1a22.18,22.18,0,0,1,2.14,1.15,8.63,8.63,0,0,1,1.87,1.53A7.21,7.21,0,0,1,331,475,7.43,7.43,0,0,1,331.49,477.84Z" transform="translate(-25.89 -161.93)"/><path class="cls-1" d="M351.82,477.84a8.43,8.43,0,0,1-.8,3.76,7.74,7.74,0,0,1-2.16,2.7,9.58,9.58,0,0,1-3.2,1.63,13.62,13.62,0,0,1-3.9.54,13.34,13.34,0,0,1-2.61-.23,15.41,15.41,0,0,1-2.14-.55,9.45,9.45,0,0,1-1.54-.69,3.89,3.89,0,0,1-.89-.63,1.59,1.59,0,0,1-.39-.78,7,7,0,0,1-.12-1.48c0-.44,0-.8.05-1.1a3.49,3.49,0,0,1,.13-.71.83.83,0,0,1,.26-.39.61.61,0,0,1,.36-.11,1.69,1.69,0,0,1,.83.34,15.35,15.35,0,0,0,1.38.77,13.54,13.54,0,0,0,2,.77,9.58,9.58,0,0,0,2.7.34,6.35,6.35,0,0,0,1.81-.24,4.08,4.08,0,0,0,1.35-.68,2.84,2.84,0,0,0,.85-1.09,3.45,3.45,0,0,0,.29-1.45,2.52,2.52,0,0,0-.5-1.59,5,5,0,0,0-1.31-1.17,12.63,12.63,0,0,0-1.84-1l-2.12-.95a19.77,19.77,0,0,1-2.12-1.15,8.47,8.47,0,0,1-1.84-1.53,7.37,7.37,0,0,1-1.31-2.11,8.64,8.64,0,0,1,.22-6.35,7.08,7.08,0,0,1,1.95-2.46,8.34,8.34,0,0,1,2.9-1.46,12.72,12.72,0,0,1,3.54-.48,12.55,12.55,0,0,1,1.93.15,11.75,11.75,0,0,1,1.81.4,9.49,9.49,0,0,1,1.49.56,3.53,3.53,0,0,1,.86.53,1.68,1.68,0,0,1,.28.35,2,2,0,0,1,.13.39,4.3,4.3,0,0,1,.07.61c0,.25,0,.55,0,.91s0,.75,0,1a5.09,5.09,0,0,1-.1.7.8.8,0,0,1-.21.39.52.52,0,0,1-.37.13,1.82,1.82,0,0,1-.74-.29c-.33-.2-.75-.41-1.23-.64a12.37,12.37,0,0,0-1.71-.63,7.44,7.44,0,0,0-2.12-.29,5.26,5.26,0,0,0-1.57.22,3.25,3.25,0,0,0-1.12.61,2.35,2.35,0,0,0-.68.94,3.18,3.18,0,0,0-.22,1.15,2.56,2.56,0,0,0,.5,1.57A4.73,4.73,0,0,0,342,468.3a13.18,13.18,0,0,0,1.88,1c.7.3,1.41.62,2.14,1a21.06,21.06,0,0,1,2.14,1.15A8.63,8.63,0,0,1,350,472.9a6.81,6.81,0,0,1,1.32,2.1A7.24,7.24,0,0,1,351.82,477.84Z" transform="translate(-25.89 -161.93)"/><path class="cls-1" d="M361.58,485.23a.59.59,0,0,1-.14.38.89.89,0,0,1-.45.28,4.33,4.33,0,0,1-.84.16,12.77,12.77,0,0,1-2.67,0,4.16,4.16,0,0,1-.85-.16.89.89,0,0,1-.46-.28.58.58,0,0,1-.13-.38V459.58a.58.58,0,0,1,.13-.38,1,1,0,0,1,.47-.27,4.36,4.36,0,0,1,.85-.17,12,12,0,0,1,1.32-.06,12.25,12.25,0,0,1,1.34.06,4.24,4.24,0,0,1,.84.17,1,1,0,0,1,.45.27.59.59,0,0,1,.14.38Z" transform="translate(-25.89 -161.93)"/><path class="cls-1" d="M391.94,472.09a20.1,20.1,0,0,1-.84,6.05,12.1,12.1,0,0,1-2.5,4.52,10.68,10.68,0,0,1-4.1,2.84,15.22,15.22,0,0,1-5.66,1,16.5,16.5,0,0,1-5.53-.83,9.48,9.48,0,0,1-3.94-2.53,10.72,10.72,0,0,1-2.36-4.32,21.58,21.58,0,0,1-.79-6.22,19.53,19.53,0,0,1,.84-5.93,12.09,12.09,0,0,1,2.5-4.48,10.85,10.85,0,0,1,4.1-2.83,15.08,15.08,0,0,1,5.68-1,16.48,16.48,0,0,1,5.45.82,9.46,9.46,0,0,1,3.95,2.52,10.89,10.89,0,0,1,2.39,4.29A20.63,20.63,0,0,1,391.94,472.09Zm-5.79.3a21.13,21.13,0,0,0-.34-3.9,8.42,8.42,0,0,0-1.14-3,5.44,5.44,0,0,0-2.16-1.93,7.28,7.28,0,0,0-3.36-.69,6.89,6.89,0,0,0-3.4.77,6.19,6.19,0,0,0-2.2,2.05,8.41,8.41,0,0,0-1.19,3,18.31,18.31,0,0,0-.34,3.62,22,22,0,0,0,.33,4,8.58,8.58,0,0,0,1.14,3,5.18,5.18,0,0,0,2.14,1.93,7.62,7.62,0,0,0,3.38.66,6.87,6.87,0,0,0,3.4-.76,6,6,0,0,0,2.2-2.06,8.54,8.54,0,0,0,1.19-3A18.76,18.76,0,0,0,386.15,472.39Z" transform="translate(-25.89 -161.93)"/><path class="cls-1" d="M419,484.06a2,2,0,0,1-.17.86,1.81,1.81,0,0,1-.45.63,1.75,1.75,0,0,1-.67.37,3,3,0,0,1-.79.11h-2.35a5.24,5.24,0,0,1-1.27-.14,2.57,2.57,0,0,1-1-.54,4.52,4.52,0,0,1-.88-1.05c-.28-.44-.59-1-.94-1.71l-6.76-12.7c-.39-.76-.79-1.57-1.2-2.45s-.77-1.72-1.09-2.55h0c.05,1,.1,2,.12,3s.05,2,.05,3.1v14.21a.64.64,0,0,1-.12.38.92.92,0,0,1-.4.29,3.47,3.47,0,0,1-.76.17,8.56,8.56,0,0,1-1.24.07,8.27,8.27,0,0,1-1.22-.07,3.34,3.34,0,0,1-.76-.17.81.81,0,0,1-.37-.29.63.63,0,0,1-.11-.38V460.8a1.81,1.81,0,0,1,.58-1.48,2.1,2.1,0,0,1,1.41-.5h3a5.62,5.62,0,0,1,1.34.14,2.7,2.7,0,0,1,1,.45,3.42,3.42,0,0,1,.81.87,10.44,10.44,0,0,1,.78,1.38l5.29,9.93c.31.6.61,1.19.92,1.77s.59,1.16.87,1.74l.81,1.72c.27.56.53,1.12.78,1.67h0c0-1-.07-2-.09-3.06s0-2.08,0-3V459.64a.64.64,0,0,1,.12-.38,1.07,1.07,0,0,1,.42-.29,3.22,3.22,0,0,1,.78-.18c.32,0,.73-.05,1.24-.05s.87,0,1.2.05a2.57,2.57,0,0,1,.74.18.81.81,0,0,1,.37.29.7.7,0,0,1,.1.38Z" transform="translate(-25.89 -161.93)"/><path class="cls-1" d="M455.83,485.23a.54.54,0,0,1-.14.38.89.89,0,0,1-.45.28,4.33,4.33,0,0,1-.84.16,9.71,9.71,0,0,1-1.32.07,10,10,0,0,1-1.35-.07,4,4,0,0,1-.84-.16.86.86,0,0,1-.44-.28.54.54,0,0,1-.14-.38v-11H440.15v11a.65.65,0,0,1-.13.38.82.82,0,0,1-.44.28,4.33,4.33,0,0,1-.84.16,12.86,12.86,0,0,1-2.68,0,4.45,4.45,0,0,1-.85-.16.89.89,0,0,1-.45-.28.58.58,0,0,1-.13-.38V459.58a.58.58,0,0,1,.13-.38,1,1,0,0,1,.45-.27,4.36,4.36,0,0,1,.85-.17,12.38,12.38,0,0,1,1.34-.06,12.25,12.25,0,0,1,1.34.06,4.24,4.24,0,0,1,.84.17.88.88,0,0,1,.44.27.65.65,0,0,1,.13.38v10h10.16v-10a.54.54,0,0,1,.14-.38.92.92,0,0,1,.44-.27,4,4,0,0,1,.84-.17,12.32,12.32,0,0,1,1.35-.06,12,12,0,0,1,1.32.06,4.24,4.24,0,0,1,.84.17,1,1,0,0,1,.45.27.54.54,0,0,1,.14.38Z" transform="translate(-25.89 -161.93)"/><path class="cls-1" d="M484,483.93a7.08,7.08,0,0,1,.31,1.2.71.71,0,0,1-.17.66,1.28,1.28,0,0,1-.81.27q-.6.06-1.62.06c-.71,0-1.27,0-1.67,0a4.88,4.88,0,0,1-.91-.13.81.81,0,0,1-.44-.26,1.29,1.29,0,0,1-.21-.44l-1.83-5.46h-10.2l-1.73,5.31a1.48,1.48,0,0,1-.22.49.89.89,0,0,1-.44.32,3.19,3.19,0,0,1-.86.15c-.37,0-.86.05-1.46.05a11.89,11.89,0,0,1-1.51-.07,1.17,1.17,0,0,1-.76-.3.82.82,0,0,1-.14-.68,6.31,6.31,0,0,1,.31-1.18l8.38-24.1a2.09,2.09,0,0,1,.29-.58,1.07,1.07,0,0,1,.54-.34,4.53,4.53,0,0,1,1-.14c.43,0,1,0,1.72,0s1.48,0,2,0a5.88,5.88,0,0,1,1.15.14,1.16,1.16,0,0,1,.59.35,2.06,2.06,0,0,1,.3.63ZM471.54,464h0l-3.85,11.55h7.71Z" transform="translate(-25.89 -161.93)"/><path class="cls-1" d="M503.91,477.84a8.29,8.29,0,0,1-.8,3.76,7.74,7.74,0,0,1-2.16,2.7,9.53,9.53,0,0,1-3.19,1.63,13.72,13.72,0,0,1-3.9.54,13.52,13.52,0,0,1-2.62-.23,15.62,15.62,0,0,1-2.13-.55,9.08,9.08,0,0,1-1.54-.69,4,4,0,0,1-.9-.63,1.51,1.51,0,0,1-.38-.78,7,7,0,0,1-.12-1.48c0-.44,0-.8,0-1.1a3.41,3.41,0,0,1,.14-.71.82.82,0,0,1,.25-.39.67.67,0,0,1,.37-.11,1.76,1.76,0,0,1,.83.34,13.76,13.76,0,0,0,1.37.77,13.27,13.27,0,0,0,2,.77,9.53,9.53,0,0,0,2.7.34,6.23,6.23,0,0,0,1.8-.24,4.13,4.13,0,0,0,1.36-.68,2.93,2.93,0,0,0,.85-1.09,3.61,3.61,0,0,0,.29-1.45,2.58,2.58,0,0,0-.5-1.59,5,5,0,0,0-1.32-1.17,12.5,12.5,0,0,0-1.83-1l-2.12-.95a18.85,18.85,0,0,1-2.12-1.15,8.47,8.47,0,0,1-1.84-1.53,7.16,7.16,0,0,1-1.31-2.11,8.51,8.51,0,0,1,.22-6.35,7,7,0,0,1,1.95-2.46,8.25,8.25,0,0,1,2.9-1.46,13,13,0,0,1,5.47-.33,11.88,11.88,0,0,1,1.8.4,9.12,9.12,0,0,1,1.49.56,3.33,3.33,0,0,1,.86.53,1.8,1.8,0,0,1,.29.35,1.5,1.5,0,0,1,.12.39,4.14,4.14,0,0,1,.08.61c0,.25,0,.55,0,.91s0,.75,0,1a3.82,3.82,0,0,1-.11.7.8.8,0,0,1-.21.39.49.49,0,0,1-.37.13,1.85,1.85,0,0,1-.73-.29c-.34-.2-.75-.41-1.24-.64a12.21,12.21,0,0,0-1.7-.63,7.44,7.44,0,0,0-2.12-.29,5.33,5.33,0,0,0-1.58.22,3.34,3.34,0,0,0-1.12.61,2.42,2.42,0,0,0-.67.94,3,3,0,0,0-.22,1.15,2.55,2.55,0,0,0,.49,1.57,4.64,4.64,0,0,0,1.33,1.17,13,13,0,0,0,1.87,1l2.15,1a22.18,22.18,0,0,1,2.14,1.15,8.63,8.63,0,0,1,1.87,1.53,7.21,7.21,0,0,1,1.32,2.1A7.43,7.43,0,0,1,503.91,477.84Z" transform="translate(-25.89 -161.93)"/><path class="cls-1" d="M534,483.83a7.36,7.36,0,0,1-.06,1,2.48,2.48,0,0,1-.15.66.83.83,0,0,1-.27.37.6.6,0,0,1-.34.11H519.49a1.71,1.71,0,0,1-1.16-.41,1.66,1.66,0,0,1-.48-1.33V460.57a1.67,1.67,0,0,1,.48-1.34,1.71,1.71,0,0,1,1.16-.41h13.57a.57.57,0,0,1,.33.11.79.79,0,0,1,.25.36,2.62,2.62,0,0,1,.16.68,9.62,9.62,0,0,1,.05,1,9,9,0,0,1-.05,1,2.27,2.27,0,0,1-.16.66.89.89,0,0,1-.25.37.52.52,0,0,1-.33.12h-9.71v6.63h8.21a.55.55,0,0,1,.35.12.75.75,0,0,1,.26.35,2.37,2.37,0,0,1,.16.65,9.37,9.37,0,0,1,0,1,9.15,9.15,0,0,1,0,1,2.2,2.2,0,0,1-.16.64.75.75,0,0,1-.26.35.6.6,0,0,1-.35.1h-8.21v7.67h9.79a.53.53,0,0,1,.34.11.83.83,0,0,1,.27.37,2.48,2.48,0,0,1,.15.66A7.16,7.16,0,0,1,534,483.83Z" transform="translate(-25.89 -161.93)"/><path class="cls-1" d="M558.19,483.91a6.36,6.36,0,0,1,.49,1.18.62.62,0,0,1-.14.67,1.59,1.59,0,0,1-.91.29,17.52,17.52,0,0,1-1.84.07c-.65,0-1.17,0-1.55-.05a4.14,4.14,0,0,1-.89-.13,1,1,0,0,1-.48-.26,2.12,2.12,0,0,1-.25-.42l-5.1-9.81-5.08,9.81a2.77,2.77,0,0,1-.27.42,1,1,0,0,1-.48.26,4.15,4.15,0,0,1-.9.13c-.38,0-.89.05-1.52.05a14.69,14.69,0,0,1-1.69-.07,1.29,1.29,0,0,1-.81-.29.66.66,0,0,1-.08-.67,6.18,6.18,0,0,1,.52-1.18l6.51-11.86-6.05-11.15a8.09,8.09,0,0,1-.51-1.21.61.61,0,0,1,.1-.67,1.49,1.49,0,0,1,.9-.27c.43,0,1.05-.05,1.84-.05s1.18,0,1.57,0a5.31,5.31,0,0,1,.91.13.87.87,0,0,1,.47.27,2.55,2.55,0,0,1,.27.42l4.76,9,4.64-9a2,2,0,0,1,.27-.42.85.85,0,0,1,.44-.27,4.38,4.38,0,0,1,.84-.13c.35,0,.85,0,1.48,0s1.25,0,1.66.05a1.38,1.38,0,0,1,.84.28.66.66,0,0,1,.11.67,7.15,7.15,0,0,1-.47,1.2l-6,11.09Z" transform="translate(-25.89 -161.93)"/><path class="cls-1" d="M581.11,467.07a10.7,10.7,0,0,1-.71,4.06,8,8,0,0,1-2.08,3,9.17,9.17,0,0,1-3.35,1.83,15.48,15.48,0,0,1-4.67.63H568v8.67a.58.58,0,0,1-.13.38.89.89,0,0,1-.45.28,4.33,4.33,0,0,1-.84.16,12.86,12.86,0,0,1-2.68,0,4.3,4.3,0,0,1-.85-.16.82.82,0,0,1-.44-.28.58.58,0,0,1-.13-.38V460.8a1.92,1.92,0,0,1,.52-1.48,1.86,1.86,0,0,1,1.35-.5h6.4c.65,0,1.26,0,1.84.08a17.4,17.4,0,0,1,2.09.31,9.46,9.46,0,0,1,2.47.89,7.6,7.6,0,0,1,2.13,1.65,6.9,6.9,0,0,1,1.34,2.33A9.07,9.07,0,0,1,581.11,467.07Zm-5.77.4a5,5,0,0,0-.5-2.35,3.44,3.44,0,0,0-1.24-1.36,4.08,4.08,0,0,0-1.55-.56,11.18,11.18,0,0,0-1.66-.12H568v9.22h2.48a6,6,0,0,0,2.22-.36,3.82,3.82,0,0,0,1.46-1,4.52,4.52,0,0,0,.86-1.54A6.31,6.31,0,0,0,575.34,467.47Z" transform="translate(-25.89 -161.93)"/><path class="cls-1" d="M590.94,485.23a.58.58,0,0,1-.13.38,1,1,0,0,1-.46.28,4.33,4.33,0,0,1-.84.16,12.77,12.77,0,0,1-2.67,0,4.3,4.3,0,0,1-.85-.16,1,1,0,0,1-.46-.28.58.58,0,0,1-.13-.38V459.58a.58.58,0,0,1,.13-.38,1,1,0,0,1,.47-.27,4.36,4.36,0,0,1,.85-.17,12,12,0,0,1,1.32-.06,12.12,12.12,0,0,1,1.34.06,4.24,4.24,0,0,1,.84.17,1.06,1.06,0,0,1,.46.27.58.58,0,0,1,.13.38Z" transform="translate(-25.89 -161.93)"/><path class="cls-1" d="M617,485.28a.8.8,0,0,1-.09.39.67.67,0,0,1-.4.26,3.56,3.56,0,0,1-.92.14c-.41,0-1,.05-1.66.05s-1.05,0-1.4-.05a3.09,3.09,0,0,1-.83-.15.86.86,0,0,1-.43-.3,1.33,1.33,0,0,1-.21-.43l-2.44-6.06c-.29-.69-.58-1.3-.86-1.83a5.78,5.78,0,0,0-.93-1.33,3.41,3.41,0,0,0-1.19-.81,4.17,4.17,0,0,0-1.56-.28h-1.72v10.35a.58.58,0,0,1-.13.38.89.89,0,0,1-.45.28,4.33,4.33,0,0,1-.84.16,12.86,12.86,0,0,1-2.68,0,4.3,4.3,0,0,1-.85-.16.82.82,0,0,1-.44-.28.58.58,0,0,1-.13-.38V460.57a1.7,1.7,0,0,1,.47-1.34,1.76,1.76,0,0,1,1.17-.41h7c.72,0,1.3,0,1.77,0s.88.07,1.26.11a11.28,11.28,0,0,1,3,.8,7.13,7.13,0,0,1,2.22,1.48,6.15,6.15,0,0,1,1.4,2.16,8.88,8.88,0,0,1,.13,5.35,6.29,6.29,0,0,1-2.67,3.54,9,9,0,0,1-2.25,1.05,6.26,6.26,0,0,1,2.15,1.73,10.48,10.48,0,0,1,.9,1.37,16.59,16.59,0,0,1,.81,1.73l2.29,5.35c.21.54.35.92.42,1.17A2.28,2.28,0,0,1,617,485.28Zm-7.12-18.44a4,4,0,0,0-.61-2.27,3.31,3.31,0,0,0-2-1.3,7.37,7.37,0,0,0-1-.16,11.47,11.47,0,0,0-1.48-.07h-2.48v7.71h2.82a6.63,6.63,0,0,0,2-.29,4.13,4.13,0,0,0,1.47-.79,3.35,3.35,0,0,0,.89-1.23A4.3,4.3,0,0,0,609.9,466.84Z" transform="translate(-25.89 -161.93)"/><path class="cls-1" d="M637.17,483.83a7.54,7.54,0,0,1,0,1,2.45,2.45,0,0,1-.16.66.82.82,0,0,1-.26.37.6.6,0,0,1-.34.11H622.71a1.76,1.76,0,0,1-1.17-.41,1.69,1.69,0,0,1-.47-1.33V460.57a1.7,1.7,0,0,1,.47-1.34,1.76,1.76,0,0,1,1.17-.41h13.56a.58.58,0,0,1,.34.11.79.79,0,0,1,.25.36,3.1,3.1,0,0,1,.16.68,9.62,9.62,0,0,1,.05,1,9,9,0,0,1-.05,1,2.65,2.65,0,0,1-.16.66.89.89,0,0,1-.25.37.52.52,0,0,1-.34.12h-9.7v6.63h8.21a.57.57,0,0,1,.35.12.82.82,0,0,1,.26.35,2.8,2.8,0,0,1,.16.65,9.37,9.37,0,0,1,.05,1,9.15,9.15,0,0,1-.05,1,2.58,2.58,0,0,1-.16.64.82.82,0,0,1-.26.35.62.62,0,0,1-.35.1h-8.21v7.67h9.79a.53.53,0,0,1,.34.11.82.82,0,0,1,.26.37,2.45,2.45,0,0,1,.16.66A7.36,7.36,0,0,1,637.17,483.83Z" transform="translate(-25.89 -161.93)"/><path class="cls-1" d="M664.62,472a18.58,18.58,0,0,1-1,6.39,11,11,0,0,1-2.8,4.34,11.19,11.19,0,0,1-4.44,2.46,21.6,21.6,0,0,1-6.23.79h-6.49a1.71,1.71,0,0,1-1.16-.41,1.66,1.66,0,0,1-.47-1.33V460.57a1.67,1.67,0,0,1,.47-1.34,1.71,1.71,0,0,1,1.16-.41h7a19.76,19.76,0,0,1,6.17.85,11.32,11.32,0,0,1,4.26,2.52,10.81,10.81,0,0,1,2.63,4.13A16.49,16.49,0,0,1,664.62,472Zm-5.72.19a13.63,13.63,0,0,0-.45-3.59,7.53,7.53,0,0,0-1.45-2.88,6.59,6.59,0,0,0-2.56-1.9,10.28,10.28,0,0,0-4.1-.68h-2.79v18.47h2.87a10.89,10.89,0,0,0,3.82-.58,6.54,6.54,0,0,0,2.6-1.78,7.62,7.62,0,0,0,1.55-2.95A14.85,14.85,0,0,0,658.9,472.2Z" transform="translate(-25.89 -161.93)"/><path class="cls-1" d="M674.11,483a3.69,3.69,0,0,1-.69,2.62,3.44,3.44,0,0,1-2.44.67,3.48,3.48,0,0,1-2.44-.66,3.53,3.53,0,0,1-.67-2.51,3.79,3.79,0,0,1,.68-2.64,3.51,3.51,0,0,1,2.47-.67,3.41,3.41,0,0,1,2.41.66A3.55,3.55,0,0,1,674.11,483Z" transform="translate(-25.89 -161.93)"/><path class="cls-1" d="M76.12,518.67a10.69,10.69,0,0,1-.72,4.06,7.84,7.84,0,0,1-2.08,3A9.21,9.21,0,0,1,70,527.53a15.54,15.54,0,0,1-4.68.63H63v8.68a.57.57,0,0,1-.14.37.89.89,0,0,1-.45.28,4.33,4.33,0,0,1-.84.16,12.86,12.86,0,0,1-2.68,0,4.3,4.3,0,0,1-.85-.16.82.82,0,0,1-.44-.28.61.61,0,0,1-.12-.37V512.4a2,2,0,0,1,.51-1.48,1.86,1.86,0,0,1,1.35-.5h6.41c.64,0,1.25,0,1.83.08a19.69,19.69,0,0,1,2.09.31,9.33,9.33,0,0,1,2.47.89,7.6,7.6,0,0,1,2.13,1.65,6.92,6.92,0,0,1,1.35,2.33A9.33,9.33,0,0,1,76.12,518.67Zm-5.78.4a4.84,4.84,0,0,0-.5-2.35,3.51,3.51,0,0,0-1.24-1.36,4,4,0,0,0-1.54-.56,11.43,11.43,0,0,0-1.67-.11H63v9.21h2.47a6,6,0,0,0,2.22-.36,3.71,3.71,0,0,0,1.46-1,4.41,4.41,0,0,0,.86-1.53A6.13,6.13,0,0,0,70.34,519.07Z" transform="translate(-25.89 -161.93)"/><path class="cls-1" d="M95.33,535.28a10.17,10.17,0,0,1,0,1.06,3.54,3.54,0,0,1-.16.72,1.07,1.07,0,0,1-.26.41.61.61,0,0,1-.37.12H82a1.76,1.76,0,0,1-1.17-.41,1.69,1.69,0,0,1-.47-1.33V511.18a.59.59,0,0,1,.14-.38,1,1,0,0,1,.45-.27,4.2,4.2,0,0,1,.85-.17,15,15,0,0,1,2.68,0,4.24,4.24,0,0,1,.84.17,1,1,0,0,1,.45.27.58.58,0,0,1,.13.38V533h8.55a.61.61,0,0,1,.37.12.88.88,0,0,1,.26.38,3.07,3.07,0,0,1,.16.69A10.32,10.32,0,0,1,95.33,535.28Z" transform="translate(-25.89 -161.93)"/><path class="cls-1" d="M114.69,535.43a7.36,7.36,0,0,1-.06,1,2.48,2.48,0,0,1-.15.66.83.83,0,0,1-.27.37.6.6,0,0,1-.34.11H100.22a1.71,1.71,0,0,1-1.16-.41,1.66,1.66,0,0,1-.48-1.33V512.17a1.68,1.68,0,0,1,.48-1.34,1.71,1.71,0,0,1,1.16-.41h13.56a.58.58,0,0,1,.34.11.77.77,0,0,1,.25.37,2.87,2.87,0,0,1,.16.67,9.62,9.62,0,0,1,0,1,9,9,0,0,1,0,1,2.87,2.87,0,0,1-.16.67.85.85,0,0,1-.25.36.52.52,0,0,1-.34.12h-9.7v6.63h8.21a.57.57,0,0,1,.35.12.8.8,0,0,1,.26.36,2.56,2.56,0,0,1,.16.65,9,9,0,0,1,0,1,9.15,9.15,0,0,1,0,1,2.58,2.58,0,0,1-.16.64.82.82,0,0,1-.26.35.62.62,0,0,1-.35.1h-8.21v7.67h9.79a.6.6,0,0,1,.34.11.83.83,0,0,1,.27.37,2.48,2.48,0,0,1,.15.66A7.16,7.16,0,0,1,114.69,535.43Z" transform="translate(-25.89 -161.93)"/><path class="cls-1" d="M141.29,535.53a7.08,7.08,0,0,1,.31,1.2.71.71,0,0,1-.16.66,1.34,1.34,0,0,1-.82.27q-.59.06-1.62.06c-.71,0-1.27,0-1.67,0a4.88,4.88,0,0,1-.91-.13.81.81,0,0,1-.44-.26,1.2,1.2,0,0,1-.21-.44l-1.83-5.46h-10.2L122,536.71a1.3,1.3,0,0,1-.22.49.85.85,0,0,1-.44.32,3.57,3.57,0,0,1-.86.16c-.37,0-.85,0-1.46,0a12,12,0,0,1-1.51-.07,1.14,1.14,0,0,1-.75-.3.82.82,0,0,1-.15-.68,7.21,7.21,0,0,1,.31-1.18l8.38-24.1a2.41,2.41,0,0,1,.29-.58,1,1,0,0,1,.54-.33,4.1,4.1,0,0,1,1-.15c.43,0,1,0,1.72,0s1.48,0,2,0a5,5,0,0,1,1.15.15,1.09,1.09,0,0,1,.59.34,2.31,2.31,0,0,1,.3.63Zm-12.47-19.92h0L125,527.16h7.71Z" transform="translate(-25.89 -161.93)"/><path class="cls-1" d="M161.19,529.44a8.39,8.39,0,0,1-.79,3.76,7.88,7.88,0,0,1-2.17,2.7,9.53,9.53,0,0,1-3.19,1.63,13.72,13.72,0,0,1-3.9.54,13.52,13.52,0,0,1-2.62-.23,15.62,15.62,0,0,1-2.13-.55,10.45,10.45,0,0,1-1.54-.68A4.2,4.2,0,0,1,144,536a1.44,1.44,0,0,1-.39-.78,7,7,0,0,1-.12-1.48c0-.44,0-.8,0-1.1a3.41,3.41,0,0,1,.14-.71.82.82,0,0,1,.25-.39.67.67,0,0,1,.37-.11,1.72,1.72,0,0,1,.83.34,14,14,0,0,0,1.37.77,12.29,12.29,0,0,0,2,.77,9.58,9.58,0,0,0,2.7.34,6.23,6.23,0,0,0,1.8-.24,4,4,0,0,0,1.36-.68,2.93,2.93,0,0,0,.85-1.09,3.61,3.61,0,0,0,.29-1.45,2.58,2.58,0,0,0-.5-1.59,5.14,5.14,0,0,0-1.31-1.17,14.32,14.32,0,0,0-1.84-1l-2.12-.95a18.85,18.85,0,0,1-2.12-1.15,8.19,8.19,0,0,1-1.84-1.53,7.16,7.16,0,0,1-1.31-2.11,7.55,7.55,0,0,1-.51-2.92,7.73,7.73,0,0,1,.73-3.43,7,7,0,0,1,2-2.46,8.34,8.34,0,0,1,2.9-1.46,13,13,0,0,1,5.47-.33,11.88,11.88,0,0,1,1.8.4,9.12,9.12,0,0,1,1.49.56,3.45,3.45,0,0,1,.87.53,1.68,1.68,0,0,1,.28.35,1.5,1.5,0,0,1,.12.39,4.14,4.14,0,0,1,.08.61c0,.25,0,.55,0,.92s0,.74,0,1a3.82,3.82,0,0,1-.11.7.89.89,0,0,1-.21.4.53.53,0,0,1-.37.12,1.85,1.85,0,0,1-.73-.29c-.34-.2-.75-.41-1.24-.64a12.21,12.21,0,0,0-1.7-.63,7.44,7.44,0,0,0-2.12-.29,5.22,5.22,0,0,0-1.57.22,3.3,3.3,0,0,0-1.13.61,2.42,2.42,0,0,0-.67.94,3,3,0,0,0-.22,1.15,2.55,2.55,0,0,0,.49,1.57,4.64,4.64,0,0,0,1.33,1.17,13.18,13.18,0,0,0,1.88,1c.7.3,1.41.62,2.14,1A22.18,22.18,0,0,1,157.5,523a8.93,8.93,0,0,1,1.87,1.53,7.49,7.49,0,0,1,1.32,2.1A7.24,7.24,0,0,1,161.19,529.44Z" transform="translate(-25.89 -161.93)"/><path class="cls-1" d="M181.52,535.43a9.63,9.63,0,0,1-.05,1,2.9,2.9,0,0,1-.16.66.9.9,0,0,1-.26.37.66.66,0,0,1-.35.11H167.05a1.71,1.71,0,0,1-1.16-.41,1.66,1.66,0,0,1-.48-1.33V512.17a1.68,1.68,0,0,1,.48-1.34,1.71,1.71,0,0,1,1.16-.41h13.57a.57.57,0,0,1,.33.11.77.77,0,0,1,.25.37,2.44,2.44,0,0,1,.16.67,7.59,7.59,0,0,1,0,1,7.07,7.07,0,0,1,0,1,2.44,2.44,0,0,1-.16.67.85.85,0,0,1-.25.36.52.52,0,0,1-.33.12h-9.71v6.63h8.21a.55.55,0,0,1,.35.12.73.73,0,0,1,.26.36,2.19,2.19,0,0,1,.16.65,7.07,7.07,0,0,1,.05,1,7.21,7.21,0,0,1-.05,1,2.2,2.2,0,0,1-.16.64.75.75,0,0,1-.26.35.6.6,0,0,1-.35.1h-8.21v7.67h9.79a.66.66,0,0,1,.35.11.9.9,0,0,1,.26.37,2.9,2.9,0,0,1,.16.66A9.35,9.35,0,0,1,181.52,535.43Z" transform="translate(-25.89 -161.93)"/><path class="cls-1" d="M216.27,536.88a.8.8,0,0,1-.09.39.67.67,0,0,1-.4.26,4,4,0,0,1-.92.15c-.41,0-1,0-1.66,0s-1.06,0-1.41,0a3.59,3.59,0,0,1-.83-.16,1,1,0,0,1-.43-.3,1.72,1.72,0,0,1-.21-.43l-2.43-6.06c-.3-.69-.58-1.3-.86-1.83a5.51,5.51,0,0,0-.94-1.33,3.37,3.37,0,0,0-1.18-.81,4.17,4.17,0,0,0-1.56-.28h-1.72v10.36a.52.52,0,0,1-.14.37.89.89,0,0,1-.45.28,4.33,4.33,0,0,1-.84.16,12.77,12.77,0,0,1-2.67,0,4.3,4.3,0,0,1-.85-.16.89.89,0,0,1-.45-.28.61.61,0,0,1-.12-.37V512.17a1.72,1.72,0,0,1,.47-1.34,1.76,1.76,0,0,1,1.17-.41h7c.71,0,1.3,0,1.76,0s.89.07,1.26.11a11.07,11.07,0,0,1,2.95.8,7.06,7.06,0,0,1,2.23,1.48,6.29,6.29,0,0,1,1.4,2.16,8,8,0,0,1,.48,2.87,8.35,8.35,0,0,1-.35,2.48,6.35,6.35,0,0,1-1,2,6.54,6.54,0,0,1-1.65,1.53,8.63,8.63,0,0,1-2.25,1.05,6.44,6.44,0,0,1,1.14.72,5.68,5.68,0,0,1,1,1,9.53,9.53,0,0,1,.89,1.37,16.55,16.55,0,0,1,.82,1.73l2.29,5.35q.31.81.42,1.17A2.36,2.36,0,0,1,216.27,536.88Zm-7.12-18.44a4.05,4.05,0,0,0-.61-2.26,3.34,3.34,0,0,0-2-1.31,7.2,7.2,0,0,0-.95-.16,11.47,11.47,0,0,0-1.48-.07h-2.48v7.71h2.81a7,7,0,0,0,2.06-.28,4.14,4.14,0,0,0,1.47-.8,3.32,3.32,0,0,0,.88-1.23A4.11,4.11,0,0,0,209.15,518.44Z" transform="translate(-25.89 -161.93)"/><path class="cls-1" d="M236.42,535.43a9.63,9.63,0,0,1,0,1,2.9,2.9,0,0,1-.16.66.82.82,0,0,1-.26.37.61.61,0,0,1-.35.11H222a1.74,1.74,0,0,1-1.17-.41,1.69,1.69,0,0,1-.47-1.33V512.17a1.72,1.72,0,0,1,.47-1.34,1.74,1.74,0,0,1,1.17-.41h13.56a.58.58,0,0,1,.34.11.85.85,0,0,1,.25.37,2.87,2.87,0,0,1,.16.67,9.62,9.62,0,0,1,0,1,9,9,0,0,1,0,1,2.87,2.87,0,0,1-.16.67,1,1,0,0,1-.25.36.52.52,0,0,1-.34.12h-9.7v6.63H234a.59.59,0,0,1,.35.12.8.8,0,0,1,.26.36,2.56,2.56,0,0,1,.16.65,9,9,0,0,1,0,1,9.15,9.15,0,0,1,0,1,2.58,2.58,0,0,1-.16.64.82.82,0,0,1-.26.35.64.64,0,0,1-.35.1h-8.21v7.67h9.78a.61.61,0,0,1,.35.11.82.82,0,0,1,.26.37,2.9,2.9,0,0,1,.16.66A9.35,9.35,0,0,1,236.42,535.43Z" transform="translate(-25.89 -161.93)"/><path class="cls-1" d="M256.54,512.69a7.89,7.89,0,0,1-.06,1.06,2.34,2.34,0,0,1-.16.68,1.06,1.06,0,0,1-.27.38.51.51,0,0,1-.33.13h-8.88v7.3h8.33a.58.58,0,0,1,.34.11,1,1,0,0,1,.26.35,2.49,2.49,0,0,1,.17.68,11,11,0,0,1,0,2.1,2.67,2.67,0,0,1-.17.69,1.14,1.14,0,0,1-.26.39.51.51,0,0,1-.34.11h-8.33v10.12a.66.66,0,0,1-.13.4,1,1,0,0,1-.45.29,4.52,4.52,0,0,1-.85.17,12.86,12.86,0,0,1-2.68,0,4.2,4.2,0,0,1-.85-.17,1.06,1.06,0,0,1-.45-.29.61.61,0,0,1-.14-.4V512.17a1.68,1.68,0,0,1,.48-1.34,1.71,1.71,0,0,1,1.16-.41h12.79a.5.5,0,0,1,.33.12.91.91,0,0,1,.27.38,2.59,2.59,0,0,1,.16.7A8.05,8.05,0,0,1,256.54,512.69Z" transform="translate(-25.89 -161.93)"/><path class="cls-1" d="M281.19,536.88a.8.8,0,0,1-.09.39.67.67,0,0,1-.4.26,4,4,0,0,1-.92.15c-.41,0-1,0-1.66,0s-1.06,0-1.41,0a3.59,3.59,0,0,1-.83-.16,1,1,0,0,1-.43-.3,1.72,1.72,0,0,1-.21-.43l-2.43-6.06c-.3-.69-.58-1.3-.86-1.83a5.51,5.51,0,0,0-.94-1.33,3.37,3.37,0,0,0-1.18-.81,4.17,4.17,0,0,0-1.56-.28h-1.72v10.36a.52.52,0,0,1-.14.37.89.89,0,0,1-.45.28,4.33,4.33,0,0,1-.84.16,12.77,12.77,0,0,1-2.67,0,4.3,4.3,0,0,1-.85-.16.89.89,0,0,1-.45-.28.61.61,0,0,1-.12-.37V512.17a1.72,1.72,0,0,1,.47-1.34,1.76,1.76,0,0,1,1.17-.41h7c.71,0,1.3,0,1.76,0s.89.07,1.26.11a11.07,11.07,0,0,1,2.95.8,7.06,7.06,0,0,1,2.23,1.48,6.29,6.29,0,0,1,1.4,2.16,8,8,0,0,1,.48,2.87,8.35,8.35,0,0,1-.35,2.48,6.35,6.35,0,0,1-1,2,6.54,6.54,0,0,1-1.65,1.53,8.63,8.63,0,0,1-2.25,1.05,6.44,6.44,0,0,1,1.14.72,5.68,5.68,0,0,1,1,1,9.53,9.53,0,0,1,.89,1.37,16.55,16.55,0,0,1,.82,1.73l2.29,5.35q.31.81.42,1.17A2.36,2.36,0,0,1,281.19,536.88Zm-7.12-18.44a4.05,4.05,0,0,0-.61-2.26,3.34,3.34,0,0,0-2-1.31,7.2,7.2,0,0,0-.95-.16,11.47,11.47,0,0,0-1.48-.07h-2.48v7.71h2.81a7,7,0,0,0,2.06-.28,4.14,4.14,0,0,0,1.47-.8,3.32,3.32,0,0,0,.88-1.23A4.11,4.11,0,0,0,274.07,518.44Z" transform="translate(-25.89 -161.93)"/><path class="cls-1" d="M301.34,535.43a9.63,9.63,0,0,1,0,1,2.9,2.9,0,0,1-.16.66.82.82,0,0,1-.26.37.61.61,0,0,1-.35.11H286.88a1.74,1.74,0,0,1-1.17-.41,1.69,1.69,0,0,1-.47-1.33V512.17a1.72,1.72,0,0,1,.47-1.34,1.74,1.74,0,0,1,1.17-.41h13.56a.6.6,0,0,1,.34.11.85.85,0,0,1,.25.37,2.87,2.87,0,0,1,.16.67,9.62,9.62,0,0,1,.05,1,9,9,0,0,1-.05,1,2.87,2.87,0,0,1-.16.67,1,1,0,0,1-.25.36.54.54,0,0,1-.34.12h-9.7v6.63H299a.59.59,0,0,1,.35.12.8.8,0,0,1,.26.36,2.56,2.56,0,0,1,.16.65,9,9,0,0,1,0,1,9.15,9.15,0,0,1,0,1,2.58,2.58,0,0,1-.16.64.82.82,0,0,1-.26.35.64.64,0,0,1-.35.1h-8.21v7.67h9.78a.61.61,0,0,1,.35.11.82.82,0,0,1,.26.37,2.9,2.9,0,0,1,.16.66A9.35,9.35,0,0,1,301.34,535.43Z" transform="translate(-25.89 -161.93)"/><path class="cls-1" d="M321.9,529.44a8.4,8.4,0,0,1-.8,3.76,7.74,7.74,0,0,1-2.16,2.7,9.58,9.58,0,0,1-3.2,1.63,13.62,13.62,0,0,1-3.9.54,13.34,13.34,0,0,1-2.61-.23,15.41,15.41,0,0,1-2.14-.55,10.45,10.45,0,0,1-1.54-.68,4.2,4.2,0,0,1-.89-.64,1.59,1.59,0,0,1-.39-.78,7,7,0,0,1-.12-1.48c0-.44,0-.8.05-1.1a3.49,3.49,0,0,1,.13-.71.83.83,0,0,1,.26-.39.61.61,0,0,1,.36-.11,1.69,1.69,0,0,1,.83.34,13.21,13.21,0,0,0,1.38.77,12.51,12.51,0,0,0,2,.77,9.58,9.58,0,0,0,2.7.34,6.35,6.35,0,0,0,1.81-.24,4.08,4.08,0,0,0,1.35-.68,2.84,2.84,0,0,0,.85-1.09,3.45,3.45,0,0,0,.29-1.45,2.52,2.52,0,0,0-.5-1.59,5,5,0,0,0-1.31-1.17,13.69,13.69,0,0,0-1.84-1l-2.12-.95a19.77,19.77,0,0,1-2.12-1.15,8.19,8.19,0,0,1-1.84-1.53,7.37,7.37,0,0,1-1.31-2.11,8.64,8.64,0,0,1,.22-6.35,7.08,7.08,0,0,1,2-2.46,8.34,8.34,0,0,1,2.9-1.46,12.72,12.72,0,0,1,3.54-.48,12.55,12.55,0,0,1,1.93.15,11.75,11.75,0,0,1,1.81.4,9.49,9.49,0,0,1,1.49.56,3.53,3.53,0,0,1,.86.53,1.68,1.68,0,0,1,.28.35,2,2,0,0,1,.13.39,4.3,4.3,0,0,1,.07.61c0,.25,0,.55,0,.92s0,.74,0,1a5.09,5.09,0,0,1-.1.7.89.89,0,0,1-.21.4.57.57,0,0,1-.37.12,1.82,1.82,0,0,1-.74-.29c-.33-.2-.75-.41-1.23-.64a11.9,11.9,0,0,0-1.71-.63,7.44,7.44,0,0,0-2.12-.29,5.26,5.26,0,0,0-1.57.22,3.25,3.25,0,0,0-1.12.61,2.35,2.35,0,0,0-.68.94,3.18,3.18,0,0,0-.22,1.15,2.56,2.56,0,0,0,.5,1.57A4.73,4.73,0,0,0,312,519.9a13.18,13.18,0,0,0,1.88,1c.7.3,1.41.62,2.14,1A21.06,21.06,0,0,1,318.2,523a8.93,8.93,0,0,1,1.87,1.53,7.06,7.06,0,0,1,1.32,2.1A7.24,7.24,0,0,1,321.9,529.44Z" transform="translate(-25.89 -161.93)"/><path class="cls-1" d="M347.32,536.84a.56.56,0,0,1-.13.37.89.89,0,0,1-.46.28,4.06,4.06,0,0,1-.83.16,9.87,9.87,0,0,1-1.33.07,10.19,10.19,0,0,1-1.35-.07,4,4,0,0,1-.84-.16.91.91,0,0,1-.44-.28.57.57,0,0,1-.14-.37v-11H331.64v11a.56.56,0,0,1-.13.37.82.82,0,0,1-.44.28,4.33,4.33,0,0,1-.84.16,12.77,12.77,0,0,1-2.67,0,4.16,4.16,0,0,1-.85-.16.89.89,0,0,1-.46-.28.56.56,0,0,1-.13-.37V511.18a.58.58,0,0,1,.13-.38,1,1,0,0,1,.46-.27,4.06,4.06,0,0,1,.85-.17,14.88,14.88,0,0,1,2.67,0,4.24,4.24,0,0,1,.84.17.88.88,0,0,1,.44.27.58.58,0,0,1,.13.38v10H341.8v-10a.59.59,0,0,1,.14-.38,1,1,0,0,1,.44-.27,4,4,0,0,1,.84-.17,12.58,12.58,0,0,1,1.35-.06,12.18,12.18,0,0,1,1.33.06,4,4,0,0,1,.83.17,1,1,0,0,1,.46.27.58.58,0,0,1,.13.38Z" transform="translate(-25.89 -161.93)"/><path class="cls-1" d="M385.22,535.53a8.5,8.5,0,0,1,.32,1.2.74.74,0,0,1-.17.66,1.34,1.34,0,0,1-.82.27q-.58.06-1.62.06c-.71,0-1.27,0-1.67,0a4.88,4.88,0,0,1-.91-.13.81.81,0,0,1-.44-.26,1.2,1.2,0,0,1-.21-.44l-1.83-5.46h-10.2L366,536.71a1.72,1.72,0,0,1-.22.49.92.92,0,0,1-.45.32,3.57,3.57,0,0,1-.86.16c-.37,0-.85,0-1.45,0a12.07,12.07,0,0,1-1.52-.07,1.14,1.14,0,0,1-.75-.3.82.82,0,0,1-.15-.68,6.48,6.48,0,0,1,.32-1.18l8.37-24.1a2.09,2.09,0,0,1,.3-.58,1,1,0,0,1,.53-.33,4.1,4.1,0,0,1,1-.15c.43,0,1,0,1.72,0s1.49,0,2,0a4.92,4.92,0,0,1,1.14.15,1.09,1.09,0,0,1,.59.34,2.05,2.05,0,0,1,.3.63Zm-12.47-19.92h0l-3.84,11.55h7.7Z" transform="translate(-25.89 -161.93)"/><path class="cls-1" d="M411.42,535.66a1.9,1.9,0,0,1-.61,1.49,1.8,1.8,0,0,1-.68.37,3,3,0,0,1-.78.11H407a5.24,5.24,0,0,1-1.27-.14,2.57,2.57,0,0,1-1-.54,4.76,4.76,0,0,1-.87-1.05,19.42,19.42,0,0,1-.95-1.71l-6.76-12.7c-.39-.76-.79-1.57-1.2-2.45s-.77-1.72-1.09-2.55h0c.06,1,.1,2,.13,3s0,2,0,3.1v14.21a.64.64,0,0,1-.12.38.86.86,0,0,1-.4.29,3.47,3.47,0,0,1-.76.17,8.47,8.47,0,0,1-1.24.07,8.27,8.27,0,0,1-1.22-.07,3.47,3.47,0,0,1-.76-.17.81.81,0,0,1-.37-.29.7.7,0,0,1-.11-.38V512.4a1.81,1.81,0,0,1,.58-1.48,2.1,2.1,0,0,1,1.42-.5h3a5.62,5.62,0,0,1,1.34.14,2.83,2.83,0,0,1,1,.45,3.58,3.58,0,0,1,.8.87,9.42,9.42,0,0,1,.78,1.38l5.29,9.93c.31.6.61,1.19.92,1.77s.59,1.16.87,1.74l.82,1.72c.26.56.52,1.12.77,1.68h0c0-1-.07-2-.09-3.07s0-2.08,0-3V511.24a.66.66,0,0,1,.12-.38,1.07,1.07,0,0,1,.42-.29,3.22,3.22,0,0,1,.78-.18c.32,0,.74-.05,1.24-.05s.87,0,1.2.05a2.57,2.57,0,0,1,.74.18.81.81,0,0,1,.37.29.72.72,0,0,1,.1.38Z" transform="translate(-25.89 -161.93)"/><path class="cls-1" d="M439.92,523.61a18.58,18.58,0,0,1-1,6.39,11,11,0,0,1-2.8,4.34,11.19,11.19,0,0,1-4.44,2.46,21.6,21.6,0,0,1-6.23.79H419a1.71,1.71,0,0,1-1.16-.41,1.66,1.66,0,0,1-.47-1.33V512.17a1.68,1.68,0,0,1,.47-1.34,1.71,1.71,0,0,1,1.16-.41h7a19.72,19.72,0,0,1,6.17.85,11.32,11.32,0,0,1,4.26,2.52,10.81,10.81,0,0,1,2.63,4.13A16.25,16.25,0,0,1,439.92,523.61Zm-5.71.19a13.22,13.22,0,0,0-.46-3.59,7.66,7.66,0,0,0-1.44-2.88,6.8,6.8,0,0,0-2.57-1.9,10.46,10.46,0,0,0-4.1-.68h-2.79v18.47h2.87a10.89,10.89,0,0,0,3.82-.58,6.54,6.54,0,0,0,2.6-1.78,7.62,7.62,0,0,0,1.55-3A14.83,14.83,0,0,0,434.21,523.8Z" transform="translate(-25.89 -161.93)"/><path class="cls-1" d="M472.25,512.69a10,10,0,0,1-.05,1,2.94,2.94,0,0,1-.16.69.92.92,0,0,1-.26.39.58.58,0,0,1-.35.13h-6.8v21.9a.57.57,0,0,1-.14.37.89.89,0,0,1-.45.28,4.3,4.3,0,0,1-.85.16,12.77,12.77,0,0,1-2.67,0,4.45,4.45,0,0,1-.85-.16.89.89,0,0,1-.45-.28.57.57,0,0,1-.14-.37v-21.9h-6.8a.52.52,0,0,1-.35-.13.92.92,0,0,1-.26-.39,2.55,2.55,0,0,1-.15-.69,7.68,7.68,0,0,1-.06-1,8.05,8.05,0,0,1,.06-1.07,2.64,2.64,0,0,1,.15-.7.82.82,0,0,1,.26-.38.51.51,0,0,1,.35-.12h19.15a.57.57,0,0,1,.35.12.82.82,0,0,1,.26.38,3,3,0,0,1,.16.7A10.53,10.53,0,0,1,472.25,512.69Z" transform="translate(-25.89 -161.93)"/><path class="cls-1" d="M495.62,536.88a.93.93,0,0,1-.08.39.71.71,0,0,1-.4.26,4.06,4.06,0,0,1-.93.15c-.4,0-1,0-1.66,0s-1.05,0-1.4,0a3.48,3.48,0,0,1-.83-.16.86.86,0,0,1-.43-.3,1.23,1.23,0,0,1-.21-.43l-2.44-6.06c-.29-.69-.58-1.3-.86-1.83a5.78,5.78,0,0,0-.93-1.33,3.41,3.41,0,0,0-1.19-.81,4.16,4.16,0,0,0-1.55-.28H481v10.36a.56.56,0,0,1-.13.37.89.89,0,0,1-.45.28,4.33,4.33,0,0,1-.84.16,12.86,12.86,0,0,1-2.68,0,4.3,4.3,0,0,1-.85-.16.82.82,0,0,1-.44-.28.56.56,0,0,1-.13-.37V512.17a1.68,1.68,0,0,1,.48-1.34,1.71,1.71,0,0,1,1.16-.41h7c.72,0,1.31,0,1.77,0s.88.07,1.26.11a11.28,11.28,0,0,1,2.95.8,7.13,7.13,0,0,1,2.22,1.48,6.15,6.15,0,0,1,1.4,2.16,8,8,0,0,1,.48,2.87,8.36,8.36,0,0,1-.34,2.48,6.35,6.35,0,0,1-1,2,6.58,6.58,0,0,1-1.66,1.53,8.63,8.63,0,0,1-2.25,1.05,6.52,6.52,0,0,1,1.15.72,6,6,0,0,1,1,1,9.55,9.55,0,0,1,.9,1.37,18.85,18.85,0,0,1,.82,1.73l2.28,5.35q.32.81.42,1.17A2.36,2.36,0,0,1,495.62,536.88Zm-7.12-18.44a4,4,0,0,0-.61-2.26,3.32,3.32,0,0,0-2-1.31,7.37,7.37,0,0,0-1-.16,11.37,11.37,0,0,0-1.48-.07H481v7.71h2.82a7.08,7.08,0,0,0,2.06-.28,4.32,4.32,0,0,0,1.47-.8,3.44,3.44,0,0,0,.88-1.23A4.3,4.3,0,0,0,488.5,518.44Z" transform="translate(-25.89 -161.93)"/><path class="cls-1" d="M509.85,527.28v9.56a.56.56,0,0,1-.13.37.89.89,0,0,1-.45.28,4.45,4.45,0,0,1-.85.16,10.13,10.13,0,0,1-1.34.07,9.93,9.93,0,0,1-1.34-.07,4.45,4.45,0,0,1-.85-.16.81.81,0,0,1-.45-.28.56.56,0,0,1-.13-.37v-9.56l-7.43-14.8a6.74,6.74,0,0,1-.52-1.21.63.63,0,0,1,.13-.65,1.55,1.55,0,0,1,.89-.27c.44,0,1-.05,1.81-.05s1.16,0,1.54,0a3.75,3.75,0,0,1,.92.16,1,1,0,0,1,.49.3,3.35,3.35,0,0,1,.3.48l3,6.68q.43,1,.87,2c.28.71.57,1.46.87,2.24h0c.27-.75.54-1.49.82-2.2s.55-1.39.82-2l3-6.63a1.81,1.81,0,0,1,.26-.54,1.18,1.18,0,0,1,.47-.32,2.9,2.9,0,0,1,.87-.17c.36,0,.84,0,1.44,0,.8,0,1.42,0,1.86.05a1.63,1.63,0,0,1,.91.27.62.62,0,0,1,.11.66,6.91,6.91,0,0,1-.5,1.2Z" transform="translate(-25.89 -161.93)"/><path class="cls-1" d="M553.19,535.53a7.08,7.08,0,0,1,.31,1.2.71.71,0,0,1-.16.66,1.34,1.34,0,0,1-.82.27q-.59.06-1.62.06c-.71,0-1.27,0-1.67,0a4.88,4.88,0,0,1-.91-.13.81.81,0,0,1-.44-.26,1.2,1.2,0,0,1-.21-.44l-1.83-5.46h-10.2l-1.73,5.31a1.3,1.3,0,0,1-.22.49.85.85,0,0,1-.44.32,3.57,3.57,0,0,1-.86.16c-.37,0-.85,0-1.46,0a12,12,0,0,1-1.51-.07,1.14,1.14,0,0,1-.75-.3.82.82,0,0,1-.15-.68,7.21,7.21,0,0,1,.31-1.18l8.38-24.1a2.09,2.09,0,0,1,.3-.58,1,1,0,0,1,.53-.33,4.1,4.1,0,0,1,1-.15c.43,0,1,0,1.72,0s1.48,0,2,0a5,5,0,0,1,1.15.15,1.09,1.09,0,0,1,.59.34,2.31,2.31,0,0,1,.3.63Zm-12.47-19.92h0l-3.85,11.55h7.71Z" transform="translate(-25.89 -161.93)"/><path class="cls-1" d="M578.26,514.64a10.26,10.26,0,0,1,0,1.05,3.91,3.91,0,0,1-.15.71.77.77,0,0,1-.23.36.52.52,0,0,1-.33.11,2.11,2.11,0,0,1-.88-.38,13.27,13.27,0,0,0-1.62-.82,19,19,0,0,0-2.4-.82,12.53,12.53,0,0,0-3.24-.38,8.88,8.88,0,0,0-3.57.69,7.62,7.62,0,0,0-2.73,1.93,8.57,8.57,0,0,0-1.75,3,11.9,11.9,0,0,0-.6,3.87,12.25,12.25,0,0,0,.62,4.11,8.34,8.34,0,0,0,1.73,3,7.15,7.15,0,0,0,2.67,1.81,9.63,9.63,0,0,0,3.46.6,8.14,8.14,0,0,0,1.83-.2,6.22,6.22,0,0,0,1.67-.64v-6.29h-5.14c-.25,0-.45-.16-.59-.48a4.3,4.3,0,0,1-.21-1.6,6.9,6.9,0,0,1,.06-1,2.23,2.23,0,0,1,.15-.64.93.93,0,0,1,.26-.36.52.52,0,0,1,.33-.11h9.18a1.55,1.55,0,0,1,.59.11,1.45,1.45,0,0,1,.47.35,1.58,1.58,0,0,1,.3.56,2.35,2.35,0,0,1,.11.74v10.81a2.75,2.75,0,0,1-.22,1.11,1.59,1.59,0,0,1-.91.74c-.45.18-1,.37-1.69.57s-1.37.36-2.09.5-1.45.25-2.18.32-1.47.1-2.21.1a17.06,17.06,0,0,1-5.83-.93,11.45,11.45,0,0,1-7.09-7,18.28,18.28,0,0,1,.07-11.78,12.72,12.72,0,0,1,2.85-4.52,12.35,12.35,0,0,1,4.46-2.84,16.36,16.36,0,0,1,5.83-1,19.7,19.7,0,0,1,3.21.24,18,18,0,0,1,2.53.59,10.56,10.56,0,0,1,1.8.74,4.58,4.58,0,0,1,1,.7,1.66,1.66,0,0,1,.41.83A6.91,6.91,0,0,1,578.26,514.64Z" transform="translate(-25.89 -161.93)"/><path class="cls-1" d="M606.12,535.53a8.5,8.5,0,0,1,.32,1.2.74.74,0,0,1-.17.66,1.34,1.34,0,0,1-.82.27q-.59.06-1.62.06c-.71,0-1.27,0-1.67,0a4.88,4.88,0,0,1-.91-.13.81.81,0,0,1-.44-.26,1.39,1.39,0,0,1-.21-.44l-1.83-5.46h-10.2l-1.72,5.31a1.72,1.72,0,0,1-.22.49.94.94,0,0,1-.44.32,3.77,3.77,0,0,1-.87.16c-.37,0-.85,0-1.45,0a12.07,12.07,0,0,1-1.52-.07,1.14,1.14,0,0,1-.75-.3.82.82,0,0,1-.15-.68,6.48,6.48,0,0,1,.32-1.18l8.37-24.1a2.09,2.09,0,0,1,.3-.58,1,1,0,0,1,.53-.33,4.1,4.1,0,0,1,1-.15c.43,0,1,0,1.72,0s1.49,0,2,0a4.92,4.92,0,0,1,1.14.15,1.09,1.09,0,0,1,.59.34,2.05,2.05,0,0,1,.3.63Zm-12.47-19.92h0l-3.84,11.55h7.7Z" transform="translate(-25.89 -161.93)"/><path class="cls-1" d="M615.47,536.84a.57.57,0,0,1-.14.37.89.89,0,0,1-.45.28,4.33,4.33,0,0,1-.84.16,12.86,12.86,0,0,1-2.68,0,4.3,4.3,0,0,1-.85-.16.89.89,0,0,1-.45-.28.57.57,0,0,1-.14-.37V511.18a.59.59,0,0,1,.14-.38,1,1,0,0,1,.46-.27,4.52,4.52,0,0,1,.85-.17,12,12,0,0,1,1.32-.06,12.32,12.32,0,0,1,1.35.06,4.24,4.24,0,0,1,.84.17,1,1,0,0,1,.45.27.59.59,0,0,1,.14.38Z" transform="translate(-25.89 -161.93)"/><path class="cls-1" d="M643.79,535.66a2.13,2.13,0,0,1-.17.86,1.81,1.81,0,0,1-.45.63,1.75,1.75,0,0,1-.67.37,3,3,0,0,1-.79.11h-2.35a5.18,5.18,0,0,1-1.27-.14,2.54,2.54,0,0,1-1-.54,4.76,4.76,0,0,1-.87-1.05c-.28-.44-.59-1-1-1.71l-6.76-12.7c-.39-.76-.79-1.57-1.19-2.45s-.77-1.72-1.09-2.55h0c.06,1,.1,2,.13,3s0,2,0,3.1v14.21a.7.7,0,0,1-.11.38.92.92,0,0,1-.4.29,3.58,3.58,0,0,1-.77.17,10.84,10.84,0,0,1-2.46,0,3.23,3.23,0,0,1-.75-.17.85.85,0,0,1-.38-.29.7.7,0,0,1-.1-.38V512.4a1.84,1.84,0,0,1,.57-1.48,2.12,2.12,0,0,1,1.42-.5h3a5.77,5.77,0,0,1,1.35.14,2.78,2.78,0,0,1,1,.45,3.42,3.42,0,0,1,.81.87,11.71,11.71,0,0,1,.78,1.38l5.29,9.93.91,1.77q.45.87.87,1.74l.82,1.72q.4.84.78,1.68h0c0-1-.08-2-.1-3.07s0-2.08,0-3V511.24a.6.6,0,0,1,.13-.38.94.94,0,0,1,.42-.29,3,3,0,0,1,.78-.18c.32,0,.73-.05,1.23-.05s.88,0,1.2.05a2.74,2.74,0,0,1,.75.18.84.84,0,0,1,.36.29.73.73,0,0,1,.11.38Z" transform="translate(-25.89 -161.93)"/></svg>