<svg id="Réteg_1" data-name="Réteg 1" xmlns="http://www.w3.org/2000/svg" viewBox="0 0 531.83 322.09"><defs><style>.cls-1{fill:#07565e;}</style></defs><path class="cls-1" d="M547.05,274.68" transform="translate(-84.08 -188.96)"/><path class="cls-1" d="M236.34,350q0,18.86-6.55,33.67a68.71,68.71,0,0,1-18.49,25,83,83,0,0,1-28.73,15.53,121.58,121.58,0,0,1-37.26,5.39,148.58,148.58,0,0,1-20.47-1.35,146.49,146.49,0,0,1-17.41-3.41,101.56,101.56,0,0,1-12.66-4.13,26.59,26.59,0,0,1-6.47-3.41,8.52,8.52,0,0,1-2.24-3,18.23,18.23,0,0,1-1.17-3.86,40.25,40.25,0,0,1-.63-5.65c-.12-2.27-.18-5-.18-8.08a85.3,85.3,0,0,1,.36-8.53,23.22,23.22,0,0,1,1.17-5.66,7.36,7.36,0,0,1,1.88-3.05,3.82,3.82,0,0,1,2.52-.9c1.19,0,3,.69,5.47,2.07a97.17,97.17,0,0,0,9.7,4.58,98.28,98.28,0,0,0,14.63,4.58,90.14,90.14,0,0,0,20.65,2.06,77.78,77.78,0,0,0,18.95-2.15,37.32,37.32,0,0,0,14.45-6.92A31.82,31.82,0,0,0,183,370.84a41.82,41.82,0,0,0,3.23-17.23,41.22,41.22,0,0,0-2.69-15.36,27.93,27.93,0,0,0-8.44-11.4,38.49,38.49,0,0,0-14.91-7A91.65,91.65,0,0,0,138,317.52,151.66,151.66,0,0,0,119,318.59a128.38,128.38,0,0,1-16.07,1.08c-3.48,0-6-.87-7.46-2.6s-2.24-4.94-2.24-9.61V206.55c0-4.78.93-8.23,2.78-10.32s4.82-3.14,8.89-3.14H215a5,5,0,0,1,3.05,1.07,8.11,8.11,0,0,1,2.42,3.41,23.16,23.16,0,0,1,1.44,6.2,81.27,81.27,0,0,1,.45,9.25q0,10.77-1.89,15.62c-1.25,3.23-3.08,4.85-5.47,4.85h-82.6v49.73q6.28-.72,12.48-.9t13-.18q18.85,0,33.49,4.4A67.06,67.06,0,0,1,216,299.47a55,55,0,0,1,15.18,21.19Q236.35,333.32,236.34,350Zm193.2-41.65a257.49,257.49,0,0,1-4.49,50.27q-4.49,22.46-14.63,38.25A68.47,68.47,0,0,1,384,421.12q-16.26,8.43-39.77,8.44-23.89,0-39.51-8.17A61.65,61.65,0,0,1,280,397.87q-9.17-15.36-12.84-37.53a307.83,307.83,0,0,1-3.68-50.19A252.18,252.18,0,0,1,268,260q4.57-22.53,14.72-38.34a68.47,68.47,0,0,1,26.39-24.24Q325.4,189,348.74,189q23.88,0,39.6,8.17a61.37,61.37,0,0,1,24.86,23.52Q422.37,236,426,258.17A315.47,315.47,0,0,1,429.54,308.36ZM382,310.69q0-16.51-.9-29.17a174.93,174.93,0,0,0-2.78-22,80.77,80.77,0,0,0-4.67-15.8,31.73,31.73,0,0,0-6.73-10.32,22.66,22.66,0,0,0-9-5.48,36.14,36.14,0,0,0-11.13-1.62q-10.61,0-17.51,5.12t-10.95,15.35q-4,10.23-5.66,25.5A344.3,344.3,0,0,0,311,307.82q0,24.78,2,41t6.2,25.85q4.21,9.62,10.86,13.47a31.34,31.34,0,0,0,16,3.86,32.1,32.1,0,0,0,12.39-2.24,26.09,26.09,0,0,0,9.43-6.74,37.15,37.15,0,0,0,6.73-11.31,87.65,87.65,0,0,0,4.4-15.8,155.37,155.37,0,0,0,2.33-20.29Q382,324.34,382,310.69Zm234-2.33a257.49,257.49,0,0,1-4.49,50.27q-4.48,22.46-14.63,38.25a68.56,68.56,0,0,1-26.4,24.24q-16.24,8.43-39.77,8.44-23.88,0-39.5-8.17a61.68,61.68,0,0,1-24.78-23.52q-9.15-15.36-12.84-37.53a309,309,0,0,1-3.68-50.19A252.93,252.93,0,0,1,454.41,260q4.57-22.53,14.72-38.34a68.49,68.49,0,0,1,26.4-24.24Q511.78,189,535.12,189q23.88,0,39.59,8.17a61.46,61.46,0,0,1,24.87,23.52q9.15,15.35,12.75,37.52A316.64,316.64,0,0,1,615.92,308.36Zm-47.58,2.33q0-16.51-.9-29.17a176.81,176.81,0,0,0-2.78-22,81.46,81.46,0,0,0-4.67-15.8,31.74,31.74,0,0,0-6.74-10.32,22.56,22.56,0,0,0-9-5.48,36.25,36.25,0,0,0-11.14-1.62q-10.59,0-17.5,5.12t-10.95,15.35Q500.64,257,499,272.27a341.26,341.26,0,0,0-1.62,35.55,349.73,349.73,0,0,0,2,41q2,16.25,6.19,25.85t10.87,13.47a31.28,31.28,0,0,0,16,3.86,32.09,32.09,0,0,0,12.38-2.24,25.92,25.92,0,0,0,9.43-6.74A37,37,0,0,0,561,371.74a88.51,88.51,0,0,0,4.39-15.8,155.26,155.26,0,0,0,2.34-20.29Q568.34,324.34,568.34,310.69Z" transform="translate(-84.08 -188.96)"/><path class="cls-1" d="M119.75,502.42a8.38,8.38,0,0,1-.79,3.75,7.88,7.88,0,0,1-2.17,2.7,9.53,9.53,0,0,1-3.19,1.63,13.72,13.72,0,0,1-3.9.54,13.52,13.52,0,0,1-2.62-.23,15.62,15.62,0,0,1-2.13-.55,10.45,10.45,0,0,1-1.54-.68,4,4,0,0,1-.89-.64,1.44,1.44,0,0,1-.39-.78,7,7,0,0,1-.12-1.48c0-.44,0-.8,0-1.09a3.39,3.39,0,0,1,.14-.72.82.82,0,0,1,.25-.39.67.67,0,0,1,.37-.11,1.72,1.72,0,0,1,.83.34,12.94,12.94,0,0,0,1.37.77,12.29,12.29,0,0,0,2,.77,9.58,9.58,0,0,0,2.7.34,6.23,6.23,0,0,0,1.8-.24,4,4,0,0,0,1.36-.68,2.93,2.93,0,0,0,.85-1.09,3.61,3.61,0,0,0,.29-1.45,2.58,2.58,0,0,0-.5-1.59,5.14,5.14,0,0,0-1.31-1.17,14.32,14.32,0,0,0-1.84-1l-2.12-.95a18.85,18.85,0,0,1-2.12-1.15,8.19,8.19,0,0,1-1.84-1.53,7.16,7.16,0,0,1-1.31-2.11,7.52,7.52,0,0,1-.51-2.92,7.76,7.76,0,0,1,.73-3.43,7,7,0,0,1,2-2.46,8.34,8.34,0,0,1,2.9-1.46,13,13,0,0,1,5.47-.33,11.88,11.88,0,0,1,1.8.4,9.12,9.12,0,0,1,1.49.56,3.65,3.65,0,0,1,.87.53,1.68,1.68,0,0,1,.28.35,1.5,1.5,0,0,1,.12.39,4.14,4.14,0,0,1,.08.61c0,.25,0,.55,0,.92s0,.74,0,1a3.82,3.82,0,0,1-.11.7.89.89,0,0,1-.21.4.53.53,0,0,1-.37.12,1.85,1.85,0,0,1-.73-.29c-.34-.2-.75-.41-1.24-.64a12.21,12.21,0,0,0-1.7-.63,7.44,7.44,0,0,0-2.12-.29,5.22,5.22,0,0,0-1.57.22A3.3,3.3,0,0,0,109,488a2.42,2.42,0,0,0-.67.94,3,3,0,0,0-.22,1.15,2.55,2.55,0,0,0,.49,1.57,4.64,4.64,0,0,0,1.33,1.17,12.66,12.66,0,0,0,1.88,1c.7.3,1.41.62,2.14,1a22.18,22.18,0,0,1,2.14,1.15,8.93,8.93,0,0,1,1.87,1.53,7.49,7.49,0,0,1,1.32,2.1A7.3,7.3,0,0,1,119.75,502.42Z" transform="translate(-84.08 -188.96)"/><path class="cls-1" d="M148.41,496.66a20.1,20.1,0,0,1-.84,6,12,12,0,0,1-2.5,4.52,10.68,10.68,0,0,1-4.1,2.84,15.22,15.22,0,0,1-5.66,1,16.5,16.5,0,0,1-5.53-.83,9.48,9.48,0,0,1-3.94-2.53,10.84,10.84,0,0,1-2.36-4.32,21.91,21.91,0,0,1-.79-6.21,19.55,19.55,0,0,1,.84-5.94,12.23,12.23,0,0,1,2.5-4.48,10.89,10.89,0,0,1,4.11-2.83,15,15,0,0,1,5.68-1,16.46,16.46,0,0,1,5.44.82,9.46,9.46,0,0,1,4,2.52,10.91,10.91,0,0,1,2.4,4.29A21,21,0,0,1,148.41,496.66Zm-5.79.3a20.3,20.3,0,0,0-.34-3.9,8.24,8.24,0,0,0-1.14-3,5.48,5.48,0,0,0-2.15-1.93,7.34,7.34,0,0,0-3.36-.69,6.87,6.87,0,0,0-3.4.77,6.22,6.22,0,0,0-2.21,2.05,8.6,8.6,0,0,0-1.19,3,18.31,18.31,0,0,0-.34,3.62,21.92,21.92,0,0,0,.33,4,8.83,8.83,0,0,0,1.14,3,5.16,5.16,0,0,0,2.14,1.92,7.62,7.62,0,0,0,3.38.66,6.87,6.87,0,0,0,3.4-.76,6.07,6.07,0,0,0,2.21-2.06,8.53,8.53,0,0,0,1.18-3A18.76,18.76,0,0,0,142.62,497Z" transform="translate(-84.08 -188.96)"/><path class="cls-1" d="M184.72,509.81a.61.61,0,0,1-.12.37.8.8,0,0,1-.42.28,4,4,0,0,1-.81.16,11.56,11.56,0,0,1-2.54,0,4,4,0,0,1-.8-.16.89.89,0,0,1-.42-.28.61.61,0,0,1-.12-.37V487.7h0l-7.88,22.08a.93.93,0,0,1-.27.46,1.35,1.35,0,0,1-.52.28,3.84,3.84,0,0,1-.82.14c-.34,0-.75,0-1.22,0a10.55,10.55,0,0,1-1.22-.06,3.82,3.82,0,0,1-.83-.16,1.37,1.37,0,0,1-.51-.29.82.82,0,0,1-.26-.4l-7.6-22.08h0v22.11a.67.67,0,0,1-.11.37.79.79,0,0,1-.43.28,4.28,4.28,0,0,1-.81.16,11.47,11.47,0,0,1-2.53,0,4,4,0,0,1-.81-.16.8.8,0,0,1-.42-.28.61.61,0,0,1-.12-.37V485.6a2.21,2.21,0,0,1,.57-1.64,2,2,0,0,1,1.51-.57h3.61a7.84,7.84,0,0,1,1.66.16,3.28,3.28,0,0,1,1.2.53,2.81,2.81,0,0,1,.84,1,7.23,7.23,0,0,1,.59,1.48l5.88,16.19H169l6.09-16.15a8.53,8.53,0,0,1,.6-1.49,3.48,3.48,0,0,1,.75-1,2.51,2.51,0,0,1,1-.54,5.54,5.54,0,0,1,1.37-.16h3.71a2.84,2.84,0,0,1,1,.15,1.65,1.65,0,0,1,.67.43,1.82,1.82,0,0,1,.4.69,3,3,0,0,1,.14.94Z" transform="translate(-84.08 -188.96)"/><path class="cls-1" d="M206.74,508.4a9.63,9.63,0,0,1-.05,1,2.9,2.9,0,0,1-.16.66.9.9,0,0,1-.26.37.63.63,0,0,1-.35.11H192.27a1.71,1.71,0,0,1-1.16-.41,1.66,1.66,0,0,1-.47-1.33V485.14a1.68,1.68,0,0,1,.47-1.34,1.71,1.71,0,0,1,1.16-.41h13.57a.55.55,0,0,1,.33.11.78.78,0,0,1,.26.37,2.47,2.47,0,0,1,.15.67,7.37,7.37,0,0,1,.06,1,6.9,6.9,0,0,1-.06,1,2.47,2.47,0,0,1-.15.67.86.86,0,0,1-.26.36.5.5,0,0,1-.33.12h-9.7v6.63h8.21a.54.54,0,0,1,.34.12.8.8,0,0,1,.27.36,2.23,2.23,0,0,1,.15.65,6.9,6.9,0,0,1,.06,1,7,7,0,0,1-.06,1,2.23,2.23,0,0,1-.15.64.76.76,0,0,1-.27.35.59.59,0,0,1-.34.1h-8.21v7.67h9.78a.63.63,0,0,1,.35.11.9.9,0,0,1,.26.37,2.9,2.9,0,0,1,.16.66A9.35,9.35,0,0,1,206.74,508.4Z" transform="translate(-84.08 -188.96)"/><path class="cls-1" d="M229.69,485.66a10,10,0,0,1-.05,1,2.94,2.94,0,0,1-.16.69.92.92,0,0,1-.26.39.58.58,0,0,1-.35.13h-6.8v21.9a.57.57,0,0,1-.14.37.89.89,0,0,1-.45.28,4.3,4.3,0,0,1-.85.16,10,10,0,0,1-1.33.07,10.13,10.13,0,0,1-1.34-.07,4.45,4.45,0,0,1-.85-.16.89.89,0,0,1-.45-.28.56.56,0,0,1-.13-.37v-21.9h-6.81a.52.52,0,0,1-.35-.13.92.92,0,0,1-.26-.39,2.55,2.55,0,0,1-.15-.69,7.68,7.68,0,0,1-.06-1,8.05,8.05,0,0,1,.06-1.07,2.64,2.64,0,0,1,.15-.7.88.88,0,0,1,.26-.38.51.51,0,0,1,.35-.12h19.15a.57.57,0,0,1,.35.12.88.88,0,0,1,.26.38,3,3,0,0,1,.16.7A10.53,10.53,0,0,1,229.69,485.66Z" transform="translate(-84.08 -188.96)"/><path class="cls-1" d="M254.11,509.81a.57.57,0,0,1-.14.37.89.89,0,0,1-.45.28,4.33,4.33,0,0,1-.84.16,9.71,9.71,0,0,1-1.32.07,10.26,10.26,0,0,1-1.36-.07,4.33,4.33,0,0,1-.84-.16.91.91,0,0,1-.44-.28.56.56,0,0,1-.13-.37v-11H238.42v11a.61.61,0,0,1-.12.37.86.86,0,0,1-.44.28,4.33,4.33,0,0,1-.84.16,12.86,12.86,0,0,1-2.68,0,4.3,4.3,0,0,1-.85-.16.89.89,0,0,1-.45-.28.57.57,0,0,1-.14-.37V484.15a.59.59,0,0,1,.14-.38,1,1,0,0,1,.45-.27,4.2,4.2,0,0,1,.85-.17,15,15,0,0,1,2.68,0,4.24,4.24,0,0,1,.84.17.92.92,0,0,1,.44.27.64.64,0,0,1,.12.38v10h10.17v-10a.58.58,0,0,1,.13-.38,1,1,0,0,1,.44-.27,4.24,4.24,0,0,1,.84-.17,12.65,12.65,0,0,1,1.36-.06,12,12,0,0,1,1.32.06,4.24,4.24,0,0,1,.84.17,1,1,0,0,1,.45.27.59.59,0,0,1,.14.38Z" transform="translate(-84.08 -188.96)"/><path class="cls-1" d="M265.57,509.81a.56.56,0,0,1-.13.37,1,1,0,0,1-.46.28,4.36,4.36,0,0,1-.83.16,10.09,10.09,0,0,1-1.35.07,9.87,9.87,0,0,1-1.33-.07,4.3,4.3,0,0,1-.85-.16.89.89,0,0,1-.45-.28.52.52,0,0,1-.14-.37V484.15a.54.54,0,0,1,.14-.38,1,1,0,0,1,.46-.27,4.36,4.36,0,0,1,.85-.17,12,12,0,0,1,1.32-.06,12.45,12.45,0,0,1,1.35.06,4.27,4.27,0,0,1,.83.17,1.06,1.06,0,0,1,.46.27.58.58,0,0,1,.13.38Z" transform="translate(-84.08 -188.96)"/><path class="cls-1" d="M293.9,508.63a2.13,2.13,0,0,1-.17.86,1.81,1.81,0,0,1-.45.63,1.83,1.83,0,0,1-.67.37,3.07,3.07,0,0,1-.79.11h-2.35a5.18,5.18,0,0,1-1.27-.14,2.54,2.54,0,0,1-1-.54,4.76,4.76,0,0,1-.87-1.05,19.42,19.42,0,0,1-.95-1.71l-6.76-12.7c-.39-.76-.79-1.57-1.19-2.45s-.77-1.72-1.1-2.55h0c.06,1,.1,2,.13,3s0,2,0,3.1v14.21a.64.64,0,0,1-.12.38.86.86,0,0,1-.4.29,3.34,3.34,0,0,1-.76.17,8.47,8.47,0,0,1-1.24.07,8.27,8.27,0,0,1-1.22-.07,3.23,3.23,0,0,1-.75-.17.8.8,0,0,1-.38-.29.7.7,0,0,1-.11-.38V485.37a1.84,1.84,0,0,1,.58-1.48,2.12,2.12,0,0,1,1.42-.5h3a5.62,5.62,0,0,1,1.34.14,2.75,2.75,0,0,1,1,.45,3.61,3.61,0,0,1,.81.87,10.49,10.49,0,0,1,.77,1.38l5.29,9.93.92,1.77q.45.87.87,1.74l.82,1.72.78,1.68h0c-.05-1-.08-2-.1-3.07s0-2.08,0-3V484.21a.6.6,0,0,1,.13-.38.94.94,0,0,1,.42-.29,3,3,0,0,1,.77-.18c.33,0,.74-.05,1.24-.05s.88,0,1.2.05a2.57,2.57,0,0,1,.74.18.81.81,0,0,1,.37.29.73.73,0,0,1,.11.38Z" transform="translate(-84.08 -188.96)"/><path class="cls-1" d="M321.61,487.61a10.26,10.26,0,0,1-.05,1.05,3.21,3.21,0,0,1-.15.71.77.77,0,0,1-.23.36.52.52,0,0,1-.32.11,2.09,2.09,0,0,1-.89-.38,13.8,13.8,0,0,0-1.61-.82,19.19,19.19,0,0,0-2.41-.82,12.53,12.53,0,0,0-3.24-.38,8.88,8.88,0,0,0-3.57.69,7.8,7.8,0,0,0-2.73,1.93,8.4,8.4,0,0,0-1.74,3,11.64,11.64,0,0,0-.61,3.87,12.51,12.51,0,0,0,.62,4.11,8.34,8.34,0,0,0,1.73,3,7.11,7.11,0,0,0,2.68,1.81,9.54,9.54,0,0,0,3.45.6,8,8,0,0,0,1.83-.2,6.77,6.77,0,0,0,1.68-.63v-6.3H310.9c-.25,0-.44-.16-.58-.48a4.3,4.3,0,0,1-.21-1.6,7.07,7.07,0,0,1,.05-1,2.29,2.29,0,0,1,.16-.64.92.92,0,0,1,.25-.36.57.57,0,0,1,.33-.11h9.18a1.64,1.64,0,0,1,.6.11,1.41,1.41,0,0,1,.46.35,1.58,1.58,0,0,1,.3.56,2.35,2.35,0,0,1,.11.74v10.81a2.59,2.59,0,0,1-.22,1.11,1.6,1.6,0,0,1-.9.74c-.46.18-1,.37-1.7.57s-1.36.36-2.08.5-1.45.25-2.19.32-1.47.1-2.21.1a17.1,17.1,0,0,1-5.83-.93,11.85,11.85,0,0,1-4.36-2.71,11.72,11.72,0,0,1-2.73-4.32,16.63,16.63,0,0,1-.94-5.79,16.83,16.83,0,0,1,1-6,12.72,12.72,0,0,1,2.85-4.52,12.35,12.35,0,0,1,4.46-2.84,16.4,16.4,0,0,1,5.83-1,19.62,19.62,0,0,1,3.21.24,18,18,0,0,1,2.53.59,9.77,9.77,0,0,1,1.8.75,4.39,4.39,0,0,1,1,.69,1.75,1.75,0,0,1,.41.83A7.69,7.69,0,0,1,321.61,487.61Z" transform="translate(-84.08 -188.96)"/><path class="cls-1" d="M365.53,509.16a2.19,2.19,0,0,1-.34.8,1.3,1.3,0,0,1-.66.46,4.07,4.07,0,0,1-1.14.21c-.46,0-1.05.06-1.76.06s-1.44,0-1.92-.06a3.94,3.94,0,0,1-1.15-.21,1.06,1.06,0,0,1-.6-.46,2.39,2.39,0,0,1-.3-.8l-4.34-17.22h-.05l-4.11,17.22a2.35,2.35,0,0,1-.3.78,1.2,1.2,0,0,1-.59.48,3.78,3.78,0,0,1-1.12.21c-.47,0-1.08.06-1.86.06s-1.45,0-1.94-.06a3.87,3.87,0,0,1-1.14-.21,1.12,1.12,0,0,1-.61-.46,2.89,2.89,0,0,1-.32-.8l-6.17-23.71a7.71,7.71,0,0,1-.21-1.19.82.82,0,0,1,.24-.66,1.53,1.53,0,0,1,.86-.28c.4,0,1-.05,1.67-.05s1.18,0,1.57,0a2.86,2.86,0,0,1,.87.15.64.64,0,0,1,.4.33,2.67,2.67,0,0,1,.17.62l4.76,20.81h0l5-20.66a2.14,2.14,0,0,1,.22-.65.86.86,0,0,1,.46-.39,3,3,0,0,1,.89-.19c.38,0,.88-.05,1.51-.05s1.21,0,1.61,0a3,3,0,0,1,.92.18,1,1,0,0,1,.48.39,2.17,2.17,0,0,1,.23.67l5.12,20.66h0l4.77-20.75a2.57,2.57,0,0,1,.17-.57.75.75,0,0,1,.4-.38,2.49,2.49,0,0,1,.84-.19c.36,0,.87-.05,1.53-.05a13.88,13.88,0,0,1,1.44.05,1.18,1.18,0,0,1,.74.28.83.83,0,0,1,.2.69,7.1,7.1,0,0,1-.22,1.22Z" transform="translate(-84.08 -188.96)"/><path class="cls-1" d="M392,508.4a9.63,9.63,0,0,1-.05,1,2.9,2.9,0,0,1-.16.66.9.9,0,0,1-.26.37.63.63,0,0,1-.35.11H377.54a1.71,1.71,0,0,1-1.16-.41,1.69,1.69,0,0,1-.47-1.33V485.14a1.53,1.53,0,0,1,1.63-1.75h13.57a.55.55,0,0,1,.33.11.78.78,0,0,1,.26.37,2.47,2.47,0,0,1,.15.67,7.37,7.37,0,0,1,.06,1,6.9,6.9,0,0,1-.06,1,2.47,2.47,0,0,1-.15.67.86.86,0,0,1-.26.36.5.5,0,0,1-.33.12h-9.7v6.63h8.21a.54.54,0,0,1,.34.12.8.8,0,0,1,.27.36,2.23,2.23,0,0,1,.15.65,6.9,6.9,0,0,1,.06,1,7,7,0,0,1-.06,1,2.23,2.23,0,0,1-.15.64.76.76,0,0,1-.27.35.59.59,0,0,1-.34.1h-8.21v7.67h9.78a.63.63,0,0,1,.35.11.9.9,0,0,1,.26.37,2.9,2.9,0,0,1,.16.66A9.35,9.35,0,0,1,392,508.4Z" transform="translate(-84.08 -188.96)"/><path class="cls-1" d="M419.28,508.63a1.9,1.9,0,0,1-.61,1.49,1.8,1.8,0,0,1-.68.37,3,3,0,0,1-.78.11h-2.35a5.27,5.27,0,0,1-1.28-.14,2.57,2.57,0,0,1-1-.54,4.76,4.76,0,0,1-.87-1.05,19.42,19.42,0,0,1-1-1.71L404,494.46c-.39-.76-.79-1.57-1.2-2.45s-.77-1.72-1.09-2.55h0c.06,1,.1,2,.13,3s0,2,0,3.1v14.21a.64.64,0,0,1-.12.38.86.86,0,0,1-.4.29,3.47,3.47,0,0,1-.76.17,8.47,8.47,0,0,1-1.24.07,8.27,8.27,0,0,1-1.22-.07,3.47,3.47,0,0,1-.76-.17.81.81,0,0,1-.37-.29.7.7,0,0,1-.11-.38V485.37a1.81,1.81,0,0,1,.58-1.48,2.1,2.1,0,0,1,1.42-.5h3a5.62,5.62,0,0,1,1.34.14,2.83,2.83,0,0,1,1,.45,3.82,3.82,0,0,1,.81.87,10.49,10.49,0,0,1,.77,1.38l5.29,9.93.92,1.77q.45.87.87,1.74l.82,1.72c.26.56.52,1.12.77,1.68h0c-.05-1-.08-2-.1-3.07s0-2.08,0-3V484.21a.6.6,0,0,1,.13-.38.94.94,0,0,1,.42-.29,3,3,0,0,1,.77-.18c.32,0,.74-.05,1.24-.05s.87,0,1.2.05a2.57,2.57,0,0,1,.74.18.81.81,0,0,1,.37.29.72.72,0,0,1,.1.38Z" transform="translate(-84.08 -188.96)"/><path class="cls-1" d="M443.28,485.66a7.86,7.86,0,0,1,0,1,2.51,2.51,0,0,1-.16.69.83.83,0,0,1-.26.39.56.56,0,0,1-.35.13h-6.8v21.9a.56.56,0,0,1-.13.37,1,1,0,0,1-.46.28,4.3,4.3,0,0,1-.85.16,12.67,12.67,0,0,1-2.66,0,4.3,4.3,0,0,1-.85-.16.89.89,0,0,1-.45-.28.52.52,0,0,1-.14-.37v-21.9h-6.8a.57.57,0,0,1-.36-.13.91.91,0,0,1-.25-.39,2.51,2.51,0,0,1-.16-.69,10,10,0,0,1-.05-1,10.53,10.53,0,0,1,.05-1.07,2.59,2.59,0,0,1,.16-.7.87.87,0,0,1,.25-.38.56.56,0,0,1,.36-.12h19.14a.55.55,0,0,1,.35.12.8.8,0,0,1,.26.38,2.59,2.59,0,0,1,.16.7A8.25,8.25,0,0,1,443.28,485.66Z" transform="translate(-84.08 -188.96)"/><path class="cls-1" d="M484.81,509.16a2.38,2.38,0,0,1-.34.8,1.3,1.3,0,0,1-.66.46,4.15,4.15,0,0,1-1.14.21c-.46,0-1.05.06-1.76.06s-1.44,0-1.92-.06a3.94,3.94,0,0,1-1.15-.21,1.12,1.12,0,0,1-.61-.46,2.64,2.64,0,0,1-.29-.8l-4.34-17.22h-.05l-4.11,17.22a2.35,2.35,0,0,1-.3.78,1.2,1.2,0,0,1-.59.48,3.78,3.78,0,0,1-1.12.21q-.71.06-1.86.06c-.81,0-1.46,0-1.94-.06a3.87,3.87,0,0,1-1.14-.21,1.12,1.12,0,0,1-.61-.46,2.89,2.89,0,0,1-.32-.8l-6.17-23.71a6.66,6.66,0,0,1-.21-1.19.82.82,0,0,1,.24-.66,1.5,1.5,0,0,1,.86-.28c.4,0,1-.05,1.67-.05s1.18,0,1.57,0a2.86,2.86,0,0,1,.87.15.67.67,0,0,1,.4.33,2.29,2.29,0,0,1,.16.62l4.77,20.81h0l5-20.66a2.14,2.14,0,0,1,.22-.65.86.86,0,0,1,.46-.39,3,3,0,0,1,.89-.19c.38,0,.88-.05,1.51-.05s1.21,0,1.61,0a3,3,0,0,1,.92.18,1,1,0,0,1,.48.39,2.47,2.47,0,0,1,.23.67l5.12,20.66h0L486,484.46a2.57,2.57,0,0,1,.17-.57.75.75,0,0,1,.4-.38,2.49,2.49,0,0,1,.84-.19c.36,0,.87-.05,1.53-.05a13.88,13.88,0,0,1,1.44.05,1.18,1.18,0,0,1,.74.28.83.83,0,0,1,.2.69,7.1,7.1,0,0,1-.22,1.22Z" transform="translate(-84.08 -188.96)"/><path class="cls-1" d="M515.34,509.85a.8.8,0,0,1-.08.39.71.71,0,0,1-.4.26,4.06,4.06,0,0,1-.92.15c-.41,0-1,0-1.66,0s-1.06,0-1.41,0a3.48,3.48,0,0,1-.83-.16.91.91,0,0,1-.43-.3,1.72,1.72,0,0,1-.21-.43L507,503.7c-.3-.69-.59-1.3-.86-1.83a6.12,6.12,0,0,0-.94-1.33,3.32,3.32,0,0,0-1.19-.81,4.08,4.08,0,0,0-1.55-.28h-1.72v10.36a.57.57,0,0,1-.14.37.89.89,0,0,1-.45.28,4.33,4.33,0,0,1-.84.16,12.86,12.86,0,0,1-2.68,0,4.45,4.45,0,0,1-.85-.16.86.86,0,0,1-.44-.28.61.61,0,0,1-.12-.37V485.14a1.68,1.68,0,0,1,.47-1.34,1.71,1.71,0,0,1,1.16-.41h7c.71,0,1.3,0,1.76,0s.88.07,1.26.11a11.18,11.18,0,0,1,2.95.8,7.06,7.06,0,0,1,2.23,1.48,6.13,6.13,0,0,1,1.39,2.16,7.74,7.74,0,0,1,.49,2.87,8.35,8.35,0,0,1-.35,2.48,6.35,6.35,0,0,1-1,2,6.58,6.58,0,0,1-1.66,1.53,8.56,8.56,0,0,1-2.24,1.05,6.83,6.83,0,0,1,1.14.72,6.43,6.43,0,0,1,1,1,10.46,10.46,0,0,1,.89,1.37,18.85,18.85,0,0,1,.82,1.73l2.29,5.35q.31.81.42,1.17A2.25,2.25,0,0,1,515.34,509.85Zm-7.11-18.44a4.05,4.05,0,0,0-.61-2.26,3.34,3.34,0,0,0-2-1.31,7.5,7.5,0,0,0-.95-.16,11.47,11.47,0,0,0-1.48-.07h-2.48v7.71h2.81a7,7,0,0,0,2.06-.28,4.14,4.14,0,0,0,1.47-.8,3.44,3.44,0,0,0,.88-1.23A4.11,4.11,0,0,0,508.23,491.41Z" transform="translate(-84.08 -188.96)"/><path class="cls-1" d="M543.42,496.66a20.1,20.1,0,0,1-.84,6,12.17,12.17,0,0,1-2.5,4.52,10.8,10.8,0,0,1-4.11,2.84,15.22,15.22,0,0,1-5.66,1,16.54,16.54,0,0,1-5.53-.83,9.54,9.54,0,0,1-3.94-2.53,10.84,10.84,0,0,1-2.36-4.32,21.91,21.91,0,0,1-.79-6.21,19.86,19.86,0,0,1,.84-5.94,12.23,12.23,0,0,1,2.5-4.48,10.89,10.89,0,0,1,4.11-2.83,15,15,0,0,1,5.68-1,16.57,16.57,0,0,1,5.45.82,9.43,9.43,0,0,1,3.94,2.52,10.91,10.91,0,0,1,2.4,4.29A20.63,20.63,0,0,1,543.42,496.66Zm-5.8.3a20.3,20.3,0,0,0-.34-3.9,8.24,8.24,0,0,0-1.14-3,5.48,5.48,0,0,0-2.15-1.93,7.34,7.34,0,0,0-3.36-.69,6.87,6.87,0,0,0-3.4.77,6.22,6.22,0,0,0-2.21,2.05,8.4,8.4,0,0,0-1.18,3,18.3,18.3,0,0,0-.35,3.62,21,21,0,0,0,.34,4,8.63,8.63,0,0,0,1.13,3,5.22,5.22,0,0,0,2.14,1.92,7.65,7.65,0,0,0,3.38.66,6.87,6.87,0,0,0,3.4-.76,6.07,6.07,0,0,0,2.21-2.06,8.53,8.53,0,0,0,1.18-3A18.76,18.76,0,0,0,537.62,497Z" transform="translate(-84.08 -188.96)"/><path class="cls-1" d="M570.46,508.63a2.13,2.13,0,0,1-.17.86,1.81,1.81,0,0,1-.45.63,1.75,1.75,0,0,1-.67.37,3,3,0,0,1-.79.11H566a5.18,5.18,0,0,1-1.27-.14,2.54,2.54,0,0,1-1-.54,4.76,4.76,0,0,1-.87-1.05c-.28-.44-.59-1-.95-1.71l-6.76-12.7c-.39-.76-.79-1.57-1.19-2.45s-.77-1.72-1.09-2.55h0c.06,1,.1,2,.13,3s0,2,0,3.1v14.21a.7.7,0,0,1-.11.38.92.92,0,0,1-.4.29,3.58,3.58,0,0,1-.77.17,10.84,10.84,0,0,1-2.46,0,3.23,3.23,0,0,1-.75-.17.85.85,0,0,1-.38-.29.7.7,0,0,1-.1-.38V485.37a1.84,1.84,0,0,1,.57-1.48,2.12,2.12,0,0,1,1.42-.5h3a5.77,5.77,0,0,1,1.35.14,2.78,2.78,0,0,1,1,.45,3.42,3.42,0,0,1,.81.87,11.71,11.71,0,0,1,.78,1.38l5.29,9.93.91,1.77q.45.87.87,1.74l.82,1.72q.41.84.78,1.68h0c0-1-.08-2-.1-3.07s0-2.08,0-3V484.21a.67.67,0,0,1,.13-.38.94.94,0,0,1,.42-.29,3,3,0,0,1,.78-.18c.32,0,.73-.05,1.23-.05s.88,0,1.2.05a2.74,2.74,0,0,1,.75.18.84.84,0,0,1,.36.29.73.73,0,0,1,.11.38Z" transform="translate(-84.08 -188.96)"/><path class="cls-1" d="M598.17,487.61a8,8,0,0,1,0,1.05,2.72,2.72,0,0,1-.15.71.77.77,0,0,1-.23.36.52.52,0,0,1-.32.11,2.06,2.06,0,0,1-.88-.38,14.94,14.94,0,0,0-1.62-.82,19,19,0,0,0-2.4-.82,12.67,12.67,0,0,0-3.25-.38,9,9,0,0,0-3.57.69,7.8,7.8,0,0,0-2.73,1.93,8.71,8.71,0,0,0-1.74,3,11.64,11.64,0,0,0-.61,3.87,12.51,12.51,0,0,0,.62,4.11,8.34,8.34,0,0,0,1.73,3,7.19,7.19,0,0,0,2.68,1.81,9.54,9.54,0,0,0,3.45.6,8,8,0,0,0,1.83-.2,6.77,6.77,0,0,0,1.68-.63v-6.3h-5.14c-.26,0-.45-.16-.59-.48a4.3,4.3,0,0,1-.21-1.6,9,9,0,0,1,.05-1,2.7,2.7,0,0,1,.16-.64.92.92,0,0,1,.25-.36.58.58,0,0,1,.34-.11h9.17a1.64,1.64,0,0,1,.6.11,1.41,1.41,0,0,1,.46.35,1.59,1.59,0,0,1,.31.56,2.37,2.37,0,0,1,.1.74v10.81a2.59,2.59,0,0,1-.22,1.11,1.6,1.6,0,0,1-.9.74c-.46.18-1,.37-1.69.57s-1.37.36-2.09.5-1.45.25-2.18.32-1.48.1-2.22.1a17.1,17.1,0,0,1-5.83-.93,11.47,11.47,0,0,1-7.08-7,16.62,16.62,0,0,1-.95-5.79,16.83,16.83,0,0,1,1-6,12.6,12.6,0,0,1,2.86-4.52,12.27,12.27,0,0,1,4.46-2.84,16.3,16.3,0,0,1,5.82-1,19.83,19.83,0,0,1,3.22.24,18.64,18.64,0,0,1,2.53.59,9.36,9.36,0,0,1,1.79.75,4.17,4.17,0,0,1,1,.69,1.75,1.75,0,0,1,.41.83A7.69,7.69,0,0,1,598.17,487.61Z" transform="translate(-84.08 -188.96)"/></svg>