<?xml version="1.0" encoding="UTF-8"?><svg id="Réteg_1" xmlns="http://www.w3.org/2000/svg" viewBox="0 0 108.83 113.16"><defs><style>.cls-1{font-family:Rockwell-Regular, Rockwell;}.cls-2{font-family:Rockwell-Bold, Rockwell;font-weight:700;}.cls-3{letter-spacing:-.04em;}.cls-4,.cls-5{fill:#fff;}.cls-6{letter-spacing:-.06em;}.cls-7{letter-spacing:-.01em;}.cls-8{letter-spacing:-.02em;}.cls-5{font-size:15px;}.cls-9{letter-spacing:-.02em;}.cls-10{letter-spacing:.02em;}</style></defs><text class="cls-5" transform="translate(13.42 25.35)"><tspan class="cls-2"><tspan x="0" y="0">C</tspan><tspan class="cls-9" x="12.71" y="0">h</tspan><tspan x="22.5" y="0">e</tspan><tspan class="cls-7" x="31.63" y="0">s</tspan><tspan x="39.29" y="0">t</tspan><tspan class="cls-3" x="45.12" y="0">n</tspan><tspan class="cls-8" x="54.73" y="0">u</tspan><tspan x="64.51" y="0">t</tspan></tspan><tspan class="cls-2"><tspan x="0" y="18">G</tspan><tspan class="cls-8" x="13.73" y="18">lo</tspan><tspan x="27.71" y="18">bal</tspan></tspan><tspan class="cls-2"><tspan class="cls-8" x="0" y="36">P</tspan><tspan x="10.52" y="36">a</tspan><tspan class="cls-10" x="19.91" y="36">r</tspan><tspan x="27.53" y="36">t</tspan><tspan class="cls-9" x="33.35" y="36">n</tspan><tspan class="cls-7" x="43.39" y="36">er</tspan><tspan x="59.57" y="36">s</tspan></tspan><tspan class="cls-1"><tspan x="0" y="54">Eu</tspan><tspan class="cls-6" x="19.35" y="54">r</tspan><tspan x="25.25" y="54">ope</tspan></tspan></text><path class="cls-4" d="m104.63,0H0v94.16h17.99v16.93l5.74,2.07,19-19h66.1V0h-4.2Zm0,89.96h-63.62l-16.92,16.9-1.91,1.91v-18.81H4.2V4.2h100.43v85.75Z"/></svg>