<svg id="Réteg_1" data-name="Réteg 1" xmlns="http://www.w3.org/2000/svg" viewBox="0 0 58.26 46.39"><defs><style>.cls-1{fill:none;stroke:#000;stroke-linecap:round;stroke-linejoin:round;stroke-width:1.75px;}</style></defs><path class="cls-1" d="M221.76,234.44v32.94a4.89,4.89,0,0,0,4.89,4.88h0a4.88,4.88,0,0,0,4.88-4.88V227.7h46.75v40.64a4,4,0,0,1-4,4l-47.62-.08" transform="translate(-220.89 -226.83)"/><path class="cls-1" d="M226.65,227.89" transform="translate(-220.89 -226.83)"/><rect class="cls-1" x="35.22" y="23.15" width="15.43" height="15.43"/><line class="cls-1" x1="17.64" y1="9.76" x2="50.64" y2="9.76"/><line class="cls-1" x1="17.64" y1="16.97" x2="50.64" y2="16.97"/><line class="cls-1" x1="17.64" y1="24.17" x2="30.06" y2="24.17"/><line class="cls-1" x1="17.64" y1="31.37" x2="30.06" y2="31.37"/><line class="cls-1" x1="17.64" y1="38.57" x2="30.06" y2="38.57"/></svg>