<svg id="Réteg_1" data-name="Réteg 1" xmlns="http://www.w3.org/2000/svg" viewBox="0 0 45.67 62.76"><defs><style>.cls-1,.cls-2,.cls-3{fill:none;stroke:#000;stroke-width:1.75px;}.cls-1,.cls-3{stroke-miterlimit:10;}.cls-2,.cls-3{stroke-linecap:round;}.cls-2{stroke-linejoin:round;}</style></defs><path class="cls-1" d="M234.85,227.33h-2.47a4.32,4.32,0,0,0-4.32,4.32v44.56a4.32,4.32,0,0,0,4.32,4.32h35.29a4.32,4.32,0,0,0,4.31-4.32V231.65a4.32,4.32,0,0,0-4.31-4.32h-2.48" transform="translate(-227.19 -218.64)"/><path class="cls-1" d="M254.37,242.72h12.57" transform="translate(-227.19 -218.64)"/><path class="cls-1" d="M254.37,248.4h7.87" transform="translate(-227.19 -218.64)"/><path class="cls-1" d="M254.37,264h12.57" transform="translate(-227.19 -218.64)"/><path class="cls-1" d="M254.37,269.62h7.87" transform="translate(-227.19 -218.64)"/><polyline class="cls-2" points="10.8 24.63 14.99 29.04 22.95 19.47"/><path class="cls-3" d="M254.37,223.9a4.39,4.39,0,0,0-8.77,0h-5.9v7.3h20.64v-7.3Z" transform="translate(-227.19 -218.64)"/><polyline class="cls-2" points="16.88 20.29 7.52 20.29 7.52 33.55 20.79 33.55 20.79 27.5"/><rect class="cls-2" x="7.52" y="41.68" width="13.26" height="12.59"/></svg>