<svg id="Réteg_1" data-name="Réteg 1" xmlns="http://www.w3.org/2000/svg" viewBox="0 0 51.12 46.39">
    <defs>
        <style>
            .cls-1{fill:#fff;}.cls-1,.cls-2{stroke:#000;stroke-miterlimit:10;stroke-width:1.5px;}.cls-2{fill:none;stroke-linecap:round;}
        </style>
    </defs>
    <path class="cls-1"
          d="M233.66,249.47a6.14,6.14,0,0,0-1.92.59l3,22.17a6.43,6.43,0,0,0,2,.06,6.21,6.21,0,0,0,5.32-7l-1.42-10.53A6.21,6.21,0,0,0,233.66,249.47Z"
          transform="translate(-224.46 -226.83)"/>
    <path class="cls-1" d="M228.84,253.82c-2.29,1-3.75,3-3.47,5.11l1.12,8.27c.28,2.1,2.23,3.65,4.7,4Z"
          transform="translate(-224.46 -226.83)"/>
    <path class="cls-1"
          d="M266.38,249.47a6.2,6.2,0,0,1,1.93.59l-3,22.17a6.42,6.42,0,0,1-2,.06,6.21,6.21,0,0,1-5.32-7l1.42-10.53A6.21,6.21,0,0,1,266.38,249.47Z"
          transform="translate(-224.46 -226.83)"/>
    <path class="cls-1" d="M271.2,253.82c2.29,1,3.75,3,3.47,5.11l-1.12,8.27c-.28,2.1-2.23,3.65-4.7,4Z"
          transform="translate(-224.46 -226.83)"/>
    <path class="cls-2" d="M229.06,250.69c0-12.69,9.39-23,21-23s21,10.3,21,23" transform="translate(-224.46 -226.83)"/>
</svg>