<svg id="Réteg_1" data-name="Réteg 1" xmlns="http://www.w3.org/2000/svg" viewBox="0 0 53.27 46.73"><defs><style>.cls-1{fill:none;stroke:#000;stroke-linecap:round;stroke-miterlimit:10;stroke-width:1.75px;}</style></defs><path class="cls-1" d="M250,234.46c4.29-5.25,9.46-7.44,15.09-6.83,11.9,1.3,12.64,14.79,8.09,21-5.9,8.11-14.66,15.44-23.18,23.5l-.19-.2c-8.52-8.06-17.08-15.19-23-23.3-4.55-6.25-3.8-19.74,8.1-21,5.62-.61,10.79,1.58,15.08,6.83" transform="translate(-223.38 -226.65)"/><path class="cls-1" d="M244.82,244.69c-4.26-6.52-8.51,0-8.51,0" transform="translate(-223.38 -226.65)"/><path class="cls-1" d="M257.37,254.25c-6.86,8.13-13.59,0-13.73,0" transform="translate(-223.38 -226.65)"/><path class="cls-1" d="M264.7,244.69c-4.25-6.52-8.51,0-8.51,0" transform="translate(-223.38 -226.65)"/></svg>