<svg id="Réteg_1" data-name="Réteg 1" xmlns="http://www.w3.org/2000/svg" viewBox="0 0 45.67 36.44"><defs><style>.cls-1{fill:none;stroke:#00575f;stroke-linecap:round;stroke-linejoin:round;stroke-width:1.75px;}</style></defs><path class="cls-1" d="M663.37,364.48v25.59a3.8,3.8,0,0,0,3.79,3.8h0a3.8,3.8,0,0,0,3.8-3.8V359.24h36.32v31.58a3.11,3.11,0,0,1-3.11,3.11l-37-.06" transform="translate(-662.49 -358.36)"/><path class="cls-1" d="M667.16,359.38" transform="translate(-662.49 -358.36)"/><rect class="cls-1" x="27.56" y="18.18" width="11.99" height="11.99"/><line class="cls-1" x1="13.91" y1="7.78" x2="39.55" y2="7.78"/><line class="cls-1" x1="13.91" y1="13.38" x2="39.55" y2="13.38"/><line class="cls-1" x1="13.91" y1="18.98" x2="23.55" y2="18.98"/><line class="cls-1" x1="13.91" y1="24.57" x2="23.55" y2="24.57"/><line class="cls-1" x1="13.91" y1="30.17" x2="23.55" y2="30.17"/></svg>