<svg id="Réteg_1" data-name="Réteg 1" xmlns="http://www.w3.org/2000/svg" viewBox="0 0 33.07 34.97"><defs><style>.cls-1{fill:#59c6c6;}</style></defs><path class="cls-1" d="M528.08,496a2.33,2.33,0,0,0-1.88-1H506.27a2.34,2.34,0,0,0,0,4.67h17.59v25.62H506.27a2.34,2.34,0,0,0,0,4.67H526.2a2.33,2.33,0,0,0,2.34-2.33v-30.3A2.36,2.36,0,0,0,528.08,496Z" transform="translate(-495.46 -495.02)"/><path class="cls-1" d="M505.93,517.79a2.35,2.35,0,0,0,3.32,3.33l7-7a2.6,2.6,0,0,0,.3-.36l.09-.17a2.53,2.53,0,0,0,.12-.23c0-.08,0-.16.08-.24s0-.13.05-.2a2.37,2.37,0,0,0,0-.92c0-.07,0-.14-.05-.21l-.08-.23a1.67,1.67,0,0,0-.12-.23l-.09-.17a3.47,3.47,0,0,0-.3-.37l-7-6.95a2.35,2.35,0,1,0-3.32,3.33l2.94,2.94H497.82a2.35,2.35,0,1,0,0,4.7h11.05Z" transform="translate(-495.46 -495.02)"/></svg>