<svg id="Réteg_1" data-name="Réteg 1" xmlns="http://www.w3.org/2000/svg" viewBox="0 0 45.67 41.46">
    <defs>
        <style>
            .cls-1{fill:#fff;}.cls-1,.cls-2{stroke:#00575f;stroke-miterlimit:10;stroke-width:1.75px;}.cls-2{fill:none;stroke-linecap:round;}
        </style>
    </defs>
    <path class="cls-1"
          d="M8.28,20.24a5.4,5.4,0,0,0-1.71.52L9.24,40.48a5.49,5.49,0,0,0,6.51-6.15L14.49,25A5.52,5.52,0,0,0,8.28,20.24Z"/>
    <path class="cls-1" d="M4,24.11C2,25,.65,26.78.91,28.65L1.9,36c.25,1.87,2,3.25,4.18,3.56Z"/>
    <path class="cls-1"
          d="M37.39,20.24a5.48,5.48,0,0,1,1.71.52L36.43,40.48a5.62,5.62,0,0,1-1.79.06,5.53,5.53,0,0,1-4.73-6.21L31.18,25A5.52,5.52,0,0,1,37.39,20.24Z"/>
    <path class="cls-1" d="M41.68,24.11c2,.88,3.33,2.67,3.08,4.54l-1,7.36c-.26,1.87-2,3.25-4.18,3.56Z"/>
    <path class="cls-2" d="M4.19,21.33C4.19,10,12.54.88,22.83.88S41.48,10,41.48,21.33"/>
</svg>