<svg id="Réteg_1" data-name="Réteg 1" xmlns="http://www.w3.org/2000/svg" viewBox="0 0 45.67 42.1"><defs><style>.cls-1{fill:none;stroke:#a3308a;stroke-miterlimit:10;stroke-width:1.75px;}</style></defs><path class="cls-1" d="M700.09,356.41h3.75a3.48,3.48,0,0,1,2.43,1,3.37,3.37,0,0,1,1,2.42v33.47a3.44,3.44,0,0,1-3.44,3.45h-37a3.44,3.44,0,0,1-3.44-3.45V359.86a3.44,3.44,0,0,1,3.44-3.45Z" transform="translate(-662.49 -355.54)"/><path class="cls-1" d="M696.77,393.1v-5.25a4.63,4.63,0,0,0-1.36-3.28,4.78,4.78,0,0,0-3.3-1.36H678.54a4.66,4.66,0,0,0-4.66,4.66v5.23" transform="translate(-662.49 -355.54)"/><circle class="cls-1" cx="22.83" cy="15.79" r="5.92"/></svg>