<svg id="Réteg_1" data-name="Réteg 1" xmlns="http://www.w3.org/2000/svg" viewBox="0 0 45.67 40.14">
    <defs>
        <style>
            .cls-1,.cls-2{fill:none;stroke:#00575f;stroke-linecap:round;stroke-miterlimit:10;}.cls-1{stroke-width:1.75px;}.cls-2{stroke-width:1.72px;}
        </style>
    </defs>
    <path class="cls-1"
          d="M685.33,363.29c3.65-4.47,8.06-6.34,12.85-5.82,10.15,1.11,10.78,12.61,6.91,17.94-5,6.91-12.5,13.15-19.76,20l-.17-.17c-7.26-6.87-14.56-12.95-19.59-19.86-3.88-5.33-3.25-16.83,6.9-17.94,4.79-.52,9.2,1.35,12.86,5.82"
          transform="translate(-662.49 -356.51)"/>
    <path class="cls-2" d="M680.89,372c-3.63-5.57-7.25,0-7.25,0" transform="translate(-662.49 -356.51)"/>
    <path class="cls-2" d="M691.59,380.17c-5.85,6.92-11.58,0-11.7,0" transform="translate(-662.49 -356.51)"/>
    <path class="cls-2" d="M697.84,372c-3.63-5.57-7.25,0-7.25,0" transform="translate(-662.49 -356.51)"/>
</svg>