<svg version="1.2" xmlns="http://www.w3.org/2000/svg" xmlns:xlink="http://www.w3.org/1999/xlink" overflow="visible" preserveAspectRatio="none" viewBox="0 0 24 24" width="45" height="45"><g><path xmlns:default="http://www.w3.org/2000/svg" id="user-plus" d="M11.48,10.84c0.76-0.74,1.19-1.77,1.17-2.83c0.02-1.06-0.41-2.08-1.17-2.82c-0.74-0.77-1.76-1.2-2.83-1.18  C7.58,3.99,6.56,4.42,5.82,5.19C5.06,5.93,4.63,6.95,4.65,8.01c-0.02,1.06,0.41,2.09,1.17,2.83c0.74,0.76,1.77,1.19,2.83,1.17  C9.71,12.03,10.74,11.6,11.48,10.84z M18.65,9.68c-0.01-0.18-0.15-0.32-0.33-0.33h-2c-0.18,0.01-0.32,0.15-0.33,0.33v3.66h-3.68  c-0.18,0.01-0.32,0.15-0.33,0.33v2c0.01,0.18,0.15,0.32,0.33,0.33h3.67v3.66c0.01,0.18,0.15,0.32,0.33,0.33h2  c0.18-0.01,0.32-0.15,0.33-0.33v-3.65h3.66c0.18-0.01,0.32-0.15,0.33-0.33v-2c-0.01-0.18-0.15-0.32-0.33-0.33h-3.66V9.68H18.65z   M10.99,15.68v-2c0.01-0.73,0.6-1.32,1.33-1.33h2.32c-0.56-0.66-1.39-1.02-2.26-1c-0.15,0.01-0.3,0.07-0.41,0.18  c-0.49,0.41-1.03,0.74-1.61,1c-0.54,0.22-1.12,0.32-1.71,0.32c-0.58-0.02-1.14-0.15-1.67-0.38c-0.58-0.26-1.12-0.59-1.61-1  c-0.11-0.11-0.26-0.17-0.41-0.18c-0.4,0-0.79,0.07-1.16,0.21c-0.33,0.13-0.63,0.32-0.89,0.56c-0.26,0.25-0.48,0.53-0.65,0.84  c-0.18,0.32-0.33,0.65-0.45,1c-0.12,0.37-0.21,0.75-0.28,1.13c-0.07,0.37-0.12,0.75-0.15,1.13c0,0.35,0,0.71,0,1.08  c-0.05,0.75,0.23,1.47,0.76,2c0.55,0.49,1.26,0.75,2,0.72h9.1c0.61,0.03,1.22-0.13,1.74-0.47v-2.48h-2.67  c-0.73-0.01-1.32-0.61-1.33-1.34l0,0L10.99,15.68z" style="fill: rgb(89, 198, 198);" vector-effect="non-scaling-stroke"/></g></svg>