<svg id="Réteg_1" data-name="Réteg 1" xmlns="http://www.w3.org/2000/svg" viewBox="0 0 53.15 44.77"><defs><style>.cls-1,.cls-2{fill:none;stroke:#000;stroke-linecap:round;stroke-width:1.75px;}.cls-1{stroke-miterlimit:10;}.cls-2{stroke-linejoin:round;}</style></defs><path class="cls-1" d="M230.9,267" transform="translate(-223.45 -228.01)"/><line class="cls-1" x1="0.88" y1="43.9" x2="52.27" y2="43.9"/><path class="cls-2" d="M253,235.3c-.17-1.37-1.4-1.89-2.08-3.28a9.93,9.93,0,0,1-.82-3.14H250s-2.6,4.79-2.9,6.42a2.48,2.48,0,0,0,1.29,2.84V244h3.32v-5.82A2.62,2.62,0,0,0,253,235.3Z" transform="translate(-223.45 -228.01)"/><line class="cls-2" x1="24.91" y1="10.13" x2="28.23" y2="10.14"/><line class="cls-2" x1="48.31" y1="27.88" x2="5.28" y2="27.88"/><path class="cls-2" d="M272,251.93v20H228v-20" transform="translate(-223.45 -228.01)"/><line class="cls-2" x1="48.09" y1="35.89" x2="5.06" y2="35.89"/><path class="cls-2" d="M274.82,250.57c-6.69,4.93-8.49-5.14-13.27,0s-2.75-6.11-10.11.35-3.51-7.21-9.49-.66-5.37-3.87-9.2,0a4.8,4.8,0,0,1-6.37.89,2.45,2.45,0,0,1-1.16-2.1v-2.58a2.5,2.5,0,0,1,2.5-2.51h44.61a2.5,2.5,0,0,1,2.49,2.5v4.11Z" transform="translate(-223.45 -228.01)"/><path class="cls-2" d="M242.36,227.26" transform="translate(-223.45 -228.01)"/><path class="cls-2" d="M228,251.93" transform="translate(-223.45 -228.01)"/></svg>