<svg id="Réteg_1" data-name="Réteg 1" xmlns="http://www.w3.org/2000/svg" viewBox="0 0 53.34 46.39"><defs><style>.cls-1,.cls-2{fill:none;stroke:#000;stroke-miterlimit:10;stroke-width:1.75px;}.cls-1{stroke-linecap:round;}</style></defs><path class="cls-1" d="M235.24,247.72s7.13-.38,10.63-2.48a16.4,16.4,0,0,0,6.55-8.3,18.74,18.74,0,0,0,5.58,4.77,18.2,18.2,0,0,0,6.65,2.24" transform="translate(-223.35 -226.83)"/><path class="cls-1" d="M235.24,254.06c.57,3.61,1.92,11.78,8.8,16.6a10.36,10.36,0,0,0,5.91,1.68c.8,0,9.54,0,13.63-11.84a29.26,29.26,0,0,0,1.57-8,31.25,31.25,0,0,0-.57-7.94" transform="translate(-223.35 -226.83)"/><path class="cls-2" d="M252.06,264c4.15-.32,10.18-1.71,12.59-5.22,3.43-5,.29-8.37.29-8.37" transform="translate(-223.35 -226.83)"/><circle cx="20.73" cy="25.56" r="1.79"/><circle cx="32.86" cy="25.13" r="1.79"/><ellipse cx="26.87" cy="37.29" rx="3.19" ry="2.18"/><path class="cls-1" d="M266.6,266.11a7.58,7.58,0,0,0,4.1,1.52c2.19.05,4.51-2,4.51-2s-5.92-3.49-2.91-15.46c.76-3,1.13-9.8-2.91-14.59-6.21-7.37-14.5-7.92-18.85-7.87-.26,0-.78,0-1,0-4.35,0-12.64.5-18.85,7.87-4,4.79-3.67,11.55-2.9,14.59,3,12-2.92,15.46-2.92,15.46s2.33,2.06,4.51,2a7.66,7.66,0,0,0,4.11-1.52" transform="translate(-223.35 -226.83)"/></svg>