<?xml version="1.0" standalone="no"?>
<!DOCTYPE svg PUBLIC "-//W3C//DTD SVG 20010904//EN"
 "http://www.w3.org/TR/2001/REC-SVG-20010904/DTD/svg10.dtd">
<svg version="1.0" xmlns="http://www.w3.org/2000/svg"
 width="182.000000pt" height="237.000000pt" viewBox="0 0 182.000000 237.000000"
 preserveAspectRatio="xMidYMid meet">

<g transform="translate(0.000000,237.000000) scale(0.100000,-0.100000)"
fill="#000000" stroke="none">
<path d="M880 2341 c-5 -11 -10 -62 -10 -115 0 -73 4 -98 16 -110 8 -9 19 -16
24 -16 5 0 16 7 24 16 20 20 23 213 4 232 -18 18 -46 14 -58 -7z"/>
<path d="M770 1976 c-153 -33 -249 -85 -361 -196 -74 -72 -93 -99 -132 -180
-133 -276 -90 -581 111 -802 102 -112 117 -142 144 -293 l23 -130 350 -3 c192
-1 352 1 356 5 4 5 17 62 29 128 26 147 42 182 128 277 136 148 192 279 200
464 4 90 1 126 -17 195 -65 258 -256 456 -506 524 -84 22 -245 28 -325 11z
m282 -77 c71 -15 202 -79 261 -128 231 -193 300 -512 167 -776 -25 -50 -68
-112 -116 -165 -96 -107 -120 -155 -141 -280 l-18 -100 -127 0 -128 0 0 278 0
277 85 85 c47 47 85 92 85 100 0 18 -19 40 -33 40 -5 0 -47 -37 -93 -82 l-85
-82 -84 84 c-72 72 -88 83 -103 74 -36 -23 -24 -47 63 -134 l85 -85 0 -277 0
-278 -125 0 c-92 0 -127 3 -129 13 -2 6 -11 52 -20 100 -22 116 -46 164 -123
249 -87 95 -139 177 -167 267 -63 200 -32 407 87 573 84 116 200 198 342 239
70 21 236 25 317 8z"/>
<path d="M17 1953 c-20 -19 -2 -54 61 -116 71 -71 103 -83 122 -47 10 18 2 30
-61 95 -67 70 -102 89 -122 68z"/>
<path d="M1687 1892 c-53 -53 -68 -75 -65 -93 2 -17 10 -25 28 -27 36 -4 163
124 158 159 -2 17 -10 25 -28 27 -19 2 -40 -12 -93 -66z"/>
<path d="M591 246 c-7 -8 -10 -24 -6 -36 6 -20 13 -20 326 -20 287 0 320 2
326 16 3 9 2 24 -4 33 -9 14 -48 16 -320 19 -263 2 -312 0 -322 -12z"/>
<path d="M715 64 c-14 -14 -14 -19 -2 -38 14 -20 23 -21 195 -24 154 -2 182 0
196 13 20 20 20 30 0 49 -23 24 -365 24 -389 0z"/>
</g>
</svg>
