<svg id="Réteg_1" data-name="Réteg 1" xmlns="http://www.w3.org/2000/svg" viewBox="0 0 56.47 46.07"><defs><style>.cls-1,.cls-2,.cls-3{fill:none;stroke:#000;stroke-linecap:round;stroke-miterlimit:10;}.cls-1{stroke-width:1.75px;}.cls-2{stroke-width:0.94px;}</style></defs><rect class="cls-1" x="24.53" y="0.88" width="7.4" height="12.88"/><path class="cls-1" d="M258.12,236H273.6a3.78,3.78,0,0,1,3.78,3.78V268.4a3.78,3.78,0,0,1-3.78,3.78H226.44a3.78,3.78,0,0,1-3.78-3.78V239.81a3.78,3.78,0,0,1,3.78-3.78H242" transform="translate(-221.78 -226.99)"/><line class="cls-2" x1="33.87" y1="20.85" x2="49.54" y2="20.85"/><line class="cls-2" x1="33.87" y1="27.73" x2="49.54" y2="27.73"/><line class="cls-2" x1="33.87" y1="34.61" x2="49.54" y2="34.61"/><path class="cls-3" d="M245.13,248.8c0,4-2.32,8-4.74,8s-4.73-4-4.73-8,2.31-5,4.73-5S245.13,244.79,245.13,248.8Z" transform="translate(-221.78 -226.99)"/><path class="cls-3" d="M235.82,249.42c4.72-.11,5.66-2.76,5.66-2.76s1.16,2.76,3.26,2.36" transform="translate(-221.78 -226.99)"/><path class="cls-3" d="M251.89,269.35s-.42-7.61-.68-8.24c-.15-.38-.15-1.29-2.87-2a14.9,14.9,0,0,0-3.56-.56,13.5,13.5,0,0,1-1.07,1.86,4.15,4.15,0,0,1-3.09,1.49h-.45a4.16,4.16,0,0,1-3.1-1.49,13.5,13.5,0,0,1-1.07-1.86,14.79,14.79,0,0,0-3.55.56c-2.73.74-2.73,1.65-2.88,2-.25.63-.68,8.24-.68,8.24" transform="translate(-221.78 -226.99)"/></svg>