<svg id="Réteg_1" data-name="Réteg 1" xmlns="http://www.w3.org/2000/svg" viewBox="0 0 56.47 46.42"><defs><style>.cls-1,.cls-2{fill:none;stroke:#000;stroke-linecap:round;stroke-miterlimit:10;}.cls-2{stroke-width:1.75px;}</style></defs><path class="cls-1" d="M253.86,258l4.69,8.24,4.34-7.84s4.48-.3,5.81,3.16c.66,1.71.34,7.33.34,7.33" transform="translate(-221.78 -226.81)"/><path class="cls-1" d="M247.74,248.93c-.42,4-3.14,7.7-5.54,7.45s-4.3-4.46-3.88-8.44,2.83-4.78,5.24-4.53S248.16,244.94,247.74,248.93Z" transform="translate(-221.78 -226.81)"/><path class="cls-1" d="M238.42,248.57c4.71.38,5.92-2.16,5.92-2.16s.87,2.87,3,2.7" transform="translate(-221.78 -226.81)"/><path class="cls-1" d="M254.17,251.56q0,.3.06.63c.37,3,2.33,5.26,4.37,5s3.41-2.9,3-5.92a7.25,7.25,0,0,0-1.27-3.37,14.68,14.68,0,0,1-8.55,3.9" transform="translate(-221.78 -226.81)"/><path class="cls-1" d="M264.88,255.07l-.75-6.06a5.64,5.64,0,0,0-6.28-4.91l-1.81.22a5.64,5.64,0,0,0-4.91,6.29l.74,6.06" transform="translate(-221.78 -226.81)"/><path class="cls-1" d="M253.93,269.52s-.43-7.6-.68-8.23c-.16-.38-.15-1.3-2.88-2a14.62,14.62,0,0,0-3.55-.57,14.7,14.7,0,0,1-1.07,1.86,4.15,4.15,0,0,1-3.1,1.5h-.45a4.14,4.14,0,0,1-3.09-1.5,13.5,13.5,0,0,1-1.07-1.86,14.67,14.67,0,0,0-3.56.57c-2.72.73-2.72,1.65-2.87,2-.26.63-.68,8.23-.68,8.23" transform="translate(-221.78 -226.81)"/><polyline class="cls-2" points="23.97 5.42 28.33 1.23 32.54 5.44"/><rect class="cls-2" x="0.88" y="9.39" width="54.72" height="36.15" rx="4.31"/></svg>