<?xml version="1.0" encoding="UTF-8"?><svg id="Réteg_1" xmlns="http://www.w3.org/2000/svg" viewBox="0 0 45.67 56.56"><defs><style>.cls-1{stroke-linecap:round;}.cls-1,.cls-2{fill:none;stroke:#000;stroke-miterlimit:10;stroke-width:1.75px;}</style></defs><line class="cls-2" x1="19.37" y1="5.72" x2="24.76" y2="20.61"/><path class="cls-1" d="M25.55,8.26s-1.59-1.41-5.33-.2c0,0-3.5,1.19-3.91,3.64-.52,3.08,5.69,1.27,5.69,1.27,0,0,5.51-1.57,6,.77s-4.15,4.34-4.15,4.34c0,0-4.14,1.5-5.68-.13"/><path class="cls-1" d="M33.31,18.42h4.32c1.64,0,2.46,.66,2.79,1,.47,.48,.59,.8,.78,1.19"/><path class="cls-2" d="M44.79,33.13H26.67c-2.06,0-3.73,1.67-3.73,3.73v5.74c0,2.06,1.67,3.73,3.73,3.73h18.12v-13.2Z"/><circle cx="28.99" cy="39.73" r="1.74"/><path class="cls-2" d="M16.32,23.6h11.68c3.74-2.06,6.27-6.04,6.27-10.61,0-6.69-5.42-12.11-12.11-12.11S10.05,6.3,10.05,12.99c0,4.57,2.53,8.55,6.27,10.61Z"/><path class="cls-2" d="M41.41,29.94c.02-1.09,0-1.97-.05-2.61-.03-.46-.06-.75-.17-1.11-.18-.58-.5-1.11-.93-1.53-.89-.89-1.93-1.05-2.64-1.09-2.65-.15-10.63,0-10.63,0h-10.89s4.41,0-4.48,0c-.41,0-3.57,0-7.2,0-2.95,0-3.31-2.26-3.31-2.8"/><path class="cls-2" d="M41.37,46.62v5.34c0,.25-.02,1.57-1.09,2.64-.68,.68-1.61,1.09-2.64,1.09H4.61c-2.06,0-3.73-1.67-3.73-3.73V22.15c0-2.06,1.67-3.73,3.73-3.73h2.88"/></svg>