<svg id="Réteg_1" data-name="Réteg 1" xmlns="http://www.w3.org/2000/svg" viewBox="0 0 45.67 56.56">
    <defs>
        <style>
            .cls-1,.cls-2,.cls-3{fill:none;stroke:#59c6c6;stroke-miterlimit:10;}.cls-1,.cls-3{stroke-width:1.75px;}.cls-2{stroke-width:0.51px;}.cls-3{stroke-linecap:round;}
        </style>
    </defs>
    <line class="cls-1" x1="19.37" y1="5.72" x2="24.76" y2="20.61"/>
    <path class="cls-2" d="M252.28,230.14" transform="translate(-227.19 -221.74)"/>
    <path class="cls-3"
          d="M252.74,230s-1.59-1.41-5.33-.19c0,0-3.5,1.19-3.91,3.64-.52,3.08,5.68,1.27,5.68,1.27s5.51-1.57,6,.77-4.15,4.34-4.15,4.34-4.15,1.5-5.68-.13"
          transform="translate(-227.19 -221.74)"/>
    <path class="cls-3" d="M260.5,240.16h4.32a3.7,3.7,0,0,1,2.79,1,3.45,3.45,0,0,1,.78,1.18"
          transform="translate(-227.19 -221.74)"/>
    <path class="cls-1" d="M272,254.87H253.86a3.73,3.73,0,0,0-3.74,3.73v5.74a3.73,3.73,0,0,0,3.74,3.73H272Z"
          transform="translate(-227.19 -221.74)"/>
    <circle cx="28.99" cy="39.73" r="1.74" fill="#59c6c6"/>
    <path class="cls-1" d="M243.51,245.34h11.68a12.12,12.12,0,1,0-11.68,0Z" transform="translate(-227.19 -221.74)"/>
    <path class="cls-1"
          d="M268.6,251.68c0-1.09,0-2-.05-2.61a4.06,4.06,0,0,0-.16-1.11,3.74,3.74,0,0,0-3.57-2.62c-2.65-.15-10.63,0-10.63,0H231.63c-2.95,0-3.31-2.26-3.31-2.8"
          transform="translate(-227.19 -221.74)"/>
    <path class="cls-1"
          d="M268.55,268.36v5.34a3.8,3.8,0,0,1-1.09,2.64,3.73,3.73,0,0,1-2.64,1.09h-33a3.73,3.73,0,0,1-3.73-3.73V243.89a3.73,3.73,0,0,1,3.73-3.73h2.89"
          transform="translate(-227.19 -221.74)"/>
</svg>