<svg id="Réteg_1" data-name="Réteg 1" xmlns="http://www.w3.org/2000/svg" viewBox="0 0 42.46 45.32"><defs><style>.cls-1,.cls-2{fill:none;stroke:#000;stroke-miterlimit:10;stroke-width:1.75px;}.cls-1{stroke-linecap:round;}</style></defs><path class="cls-1" d="M228.5,251.18v8.93s0,3.47,3,3.46l19.3,0v-9.37h-19c-2,0-3.33-.37-3.33-2.79,0-1.13.3-2.35,1.64-2.68.39-.09,3.19-.1,4.14-.1" transform="translate(-227.62 -227.21)"/><line class="cls-2" x1="6.87" y1="31.61" x2="6.87" y2="36.33"/><line class="cls-2" x1="12.55" y1="31.61" x2="12.55" y2="36.33"/><line class="cls-2" x1="18.22" y1="31.61" x2="18.22" y2="36.33"/><path class="cls-2" d="M252.76,267.4" transform="translate(-227.62 -227.21)"/><path class="cls-2" d="M272.42,228.84" transform="translate(-227.62 -227.21)"/><path class="cls-2" d="M251.91,238.22s10.08.44,10-10.14C261.89,228.08,251.32,228.11,251.91,238.22Z" transform="translate(-227.62 -227.21)"/><path class="cls-1" d="M245.44,232.1a11.7,11.7,0,0,1,6.25,7.14" transform="translate(-227.62 -227.21)"/><path class="cls-1" d="M234,253.93a24.5,24.5,0,0,1,.64-6.2,9.05,9.05,0,0,1,11.64-5.47,17,17,0,0,0,10.69-.09c4.85-1.8,11.53,2,12.16,9.39,1.21,14.1-8.69,21.05-13.49,19.81a13.68,13.68,0,0,0-8,0,7.62,7.62,0,0,1-8.44-3.08" transform="translate(-227.62 -227.21)"/><path class="cls-1" d="M259.69,246.38c.24,0,4.08.74,4.86,6.67" transform="translate(-227.62 -227.21)"/></svg>