<?xml version="1.0" encoding="UTF-8"?><svg id="Réteg_1" xmlns="http://www.w3.org/2000/svg" viewBox="0 0 44.79 45.32"><defs><style>.cls-1{stroke-linecap:round;}.cls-1,.cls-2{fill:none;stroke:#000;stroke-miterlimit:10;stroke-width:1.75px;}</style></defs><path class="cls-1" d="M.88,23.97v8.93s-.02,3.47,3.03,3.46l19.3-.04v-9.37H4.2c-2.02,0-3.33-.36-3.33-2.79,0-1.13,.3-2.35,1.64-2.67,.39-.09,3.19-.1,4.14-.1"/><line class="cls-2" x1="6.87" y1="31.61" x2="6.87" y2="36.33"/><line class="cls-2" x1="12.55" y1="31.61" x2="12.55" y2="36.33"/><line class="cls-2" x1="18.22" y1="31.61" x2="18.22" y2="36.33"/><path class="cls-2" d="M24.29,11.01s10.08,.44,9.98-10.13c0,0-10.56,.03-9.98,10.13Z"/><path class="cls-1" d="M17.81,4.89s4.34,1.61,6.25,7.14"/><path class="cls-1" d="M6.36,26.72s-.09-3.87,.64-6.2c1.43-4.56,6.92-7.25,11.65-5.47,3.31,1.25,7.87,.95,10.68-.09,4.85-1.8,11.53,1.97,12.16,9.39,1.21,14.1-8.69,21.05-13.49,19.81-3.14-.81-5.01-.79-7.99-.01-5.64,1.48-8.45-3.08-8.45-3.08"/><path class="cls-1" d="M32.07,19.17c.24,0,4.08,.74,4.85,6.68"/></svg>