<svg id="Réteg_1" data-name="Réteg 1" xmlns="http://www.w3.org/2000/svg" viewBox="0 0 45.5 47.73"><defs><style>.cls-1{fill:none;stroke:#000;stroke-linecap:round;stroke-miterlimit:10;stroke-width:1.75px;}</style></defs><path class="cls-1" d="M253.17,260.11h14.94a3.79,3.79,0,0,0,3.79-3.78V230.82a3.79,3.79,0,0,0-3.79-3.79H231.93a3.79,3.79,0,0,0-3.78,3.79v25.51a3.74,3.74,0,0,0,1.11,2.67,3.82,3.82,0,0,0,2.67,1.11H238v11.56l10.54-11.26" transform="translate(-227.27 -226.16)"/><path d="M239.41,242.89c.48.46,1.81,1.86,2.1,2.24l-.59.76c-.26-.44-1-1.35-1.51-2v6.49h-1v-6.91a17,17,0,0,1-2,4.23,6.42,6.42,0,0,0-.53-.88,16.85,16.85,0,0,0,2.33-4.85H236V241h2.43v-2.49c-.72.21-1.47.4-2.18.56a2.58,2.58,0,0,0-.32-.73,19.79,19.79,0,0,0,4.72-1.66l.9.73a.24.24,0,0,1-.17.06.3.3,0,0,1-.13,0,11.06,11.06,0,0,1-1.85.75V241h2v.94h-2Zm6.41,6.18h3.77V250h-8.54v-.88h3.78V247h-2.94v-.87h2.94v-1.86h-3.27v-.89h7.67v.89h-3.41v1.86h3.06V247h-3.06Zm2.85-11.67v4.7h-6.59v-4.7Zm-1,3.83v-2.95H243v2.95Z" transform="translate(-227.27 -226.16)"/><path d="M253.66,240.54c0,.1-.13.15-.29.15a11.25,11.25,0,0,1-2.06,3,4.07,4.07,0,0,0-.72-.56,9.16,9.16,0,0,0,1.94-3Zm4.42-1.78v.91h-7.45v-.91h3.22v-2.07l1.25.07c0,.11-.09.18-.28.21v1.79Zm-1.58,4.4c0,.1-.15.14-.33.14a14.2,14.2,0,0,1-1,2.56,16,16,0,0,1,1.8,2.3l-.81.64a14.23,14.23,0,0,0-1.49-2,10.28,10.28,0,0,1-3.32,3.54,4.07,4.07,0,0,0-.67-.72A9.54,9.54,0,0,0,254,246a28.58,28.58,0,0,0-2.1-2l.75-.56c.6.5,1.22,1.09,1.82,1.69a15.45,15.45,0,0,0,.81-2.26Zm-.58-3a10.3,10.3,0,0,1,1.71,2.29c-.43.28-.62.38-.79.49a11.79,11.79,0,0,0-1.67-2.37Zm8.38.2h-1a17.06,17.06,0,0,1-1.86,6.1,7.28,7.28,0,0,0,2.91,3,4.22,4.22,0,0,0-.69.82,8,8,0,0,1-2.81-3,9.36,9.36,0,0,1-3.59,2.94,3.76,3.76,0,0,0-.53-.81,8.12,8.12,0,0,0,3.6-3.1,20.28,20.28,0,0,1-1.36-4.3,10.53,10.53,0,0,1-1,1.78,6.24,6.24,0,0,0-.71-.63,18.05,18.05,0,0,0,2.19-6.6l1.23.26c0,.11-.13.17-.32.17-.15.79-.32,1.58-.53,2.35h4.41Zm-4.67,0-.05.17a21.14,21.14,0,0,0,1.36,4.86,17.85,17.85,0,0,0,1.41-5Z" transform="translate(-227.27 -226.16)"/></svg>