<?xml version="1.0" encoding="UTF-8"?><svg id="Réteg_1" xmlns="http://www.w3.org/2000/svg" viewBox="0 0 45.67 46.15"><defs><style>.cls-1{stroke-linecap:round;}.cls-1,.cls-2{fill:none;stroke:#000;stroke-miterlimit:10;stroke-width:1.75px;}</style></defs><g><line class="cls-2" x1="13.57" y1="24.02" x2="13.57" y2="36.48"/><line class="cls-2" x1="32.09" y1="24.02" x2="32.09" y2="36.48"/><line class="cls-2" x1="19.75" y1="21.09" x2="19.75" y2="36.48"/><line class="cls-2" x1="25.92" y1="21.09" x2="25.92" y2="36.48"/></g><path class="cls-1" d="M11.71,14.15c-4.09-1.46-2.16-8.23,3.33-7.17,7.51,1.45,5.1,12.62-2.83,13.73S-.51,15.16,1.21,8.24C1.95,5.27,4.15,.88,11.16,.88h10.13s6.85,.03,13.22,.03c7,0,9.21,4.4,9.95,7.37,1.72,6.92-3.4,13.53-11,12.47-7.92-1.11-10.34-12.28-2.83-13.73,5.49-1.06,7.42,5.7,3.33,7.17"/><rect class="cls-2" x="9.58" y="40.06" width="26.5" height="5.22"/></svg>