<svg id="Réteg_1" data-name="Réteg 1" xmlns="http://www.w3.org/2000/svg" viewBox="0 0 45.67 46.15">
    <defs>
        <style>
            .cls-1,.cls-2{fill:none;stroke:#59c6c6;stroke-miterlimit:10;stroke-width:1.75px;}.cls-2{stroke-linecap:round;}
        </style>
    </defs>
    <line class="cls-1" x1="13.57" y1="24.02" x2="13.57" y2="36.48"/>
    <line class="cls-1" x1="32.09" y1="24.02" x2="32.09" y2="36.48"/>
    <line class="cls-1" x1="19.75" y1="21.09" x2="19.75" y2="36.48"/>
    <line class="cls-1" x1="25.92" y1="21.09" x2="25.92" y2="36.48"/>
    <path class="cls-2"
          d="M238.89,241.09c-4.08-1.46-2.16-8.22,3.33-7.16,7.52,1.45,5.1,12.61-2.82,13.72-7.6,1.07-12.73-5.55-11-12.46.74-3,2.94-7.37,9.95-7.37h10.13s6.85,0,13.22,0c7,0,9.21,4.4,9.95,7.37,1.72,6.91-3.41,13.53-11,12.46-7.92-1.11-10.34-12.27-2.82-13.72,5.49-1.06,7.42,5.7,3.33,7.16"
          transform="translate(-227.19 -226.95)"/>
    <rect class="cls-1" x="9.58" y="40.06" width="26.5" height="5.22"/>
</svg>