<svg id="Réteg_1" data-name="Réteg 1" xmlns="http://www.w3.org/2000/svg" viewBox="0 0 41.98 46.51"><defs><style>.cls-1{fill:none;stroke:#000;stroke-linecap:round;stroke-miterlimit:10;stroke-width:1.75px;}</style></defs><path class="cls-1" d="M258.31,236.46c0,7-4.06,14-8.29,14s-8.28-7-8.28-14,4-8.82,8.28-8.82S258.31,229.45,258.31,236.46Z" transform="translate(-229.03 -226.76)"/><path class="cls-1" d="M242,237.54c8.25-.19,9.9-4.83,9.9-4.83s2,4.84,5.7,4.14" transform="translate(-229.03 -226.76)"/><path class="cls-1" d="M270.14,272.4S269.4,259.1,269,258c-.27-.67-.26-2.27-5-3.55a25.61,25.61,0,0,0-6.22-1,25.12,25.12,0,0,1-1.87,3.26,7.28,7.28,0,0,1-5.42,2.61h-.78a7.28,7.28,0,0,1-5.42-2.61,25.12,25.12,0,0,1-1.87-3.26,25.61,25.61,0,0,0-6.22,1c-4.76,1.28-4.76,2.88-5,3.55-.45,1.1-1.18,14.4-1.18,14.4" transform="translate(-229.03 -226.76)"/></svg>