<svg id="Réteg_1" data-name="Réteg 1" xmlns="http://www.w3.org/2000/svg" viewBox="0 0 57 46.39"><defs><style>.cls-1{fill:none;stroke:#000;stroke-linecap:round;stroke-miterlimit:10;stroke-width:1.75px;}</style></defs><path class="cls-1" d="M269.39,241.36v-10.7a3,3,0,0,0-3-3H233.62a3,3,0,0,0-3,3v10.7" transform="translate(-221.52 -226.83)"/><line class="cls-1" x1="2.41" y1="45.51" x2="10.97" y2="45.51"/><line class="cls-1" x1="46.03" y1="45.51" x2="54.59" y2="45.51"/><path class="cls-1" d="M252.58,266.89h22.35a2.71,2.71,0,0,0,2.72-2.71V248a2.72,2.72,0,0,0-2.72-2.72h-6.39a2.72,2.72,0,0,0-2.72,2.72v10h-31.6V248a2.72,2.72,0,0,0-2.71-2.72h-6.4A2.71,2.71,0,0,0,222.4,248v16.18a2.71,2.71,0,0,0,2.71,2.71h27.47Z" transform="translate(-221.52 -226.83)"/><line class="cls-1" x1="44.23" y1="25.34" x2="12.84" y2="25.34"/></svg>