<svg id="Réteg_1" data-name="Réteg 1" xmlns="http://www.w3.org/2000/svg" viewBox="0 0 44.5 46.39"><defs><style>.cls-1,.cls-2{fill:none;stroke:#231f20;stroke-miterlimit:10;stroke-width:1.75px;}.cls-1{stroke-linecap:round;}</style></defs><rect class="cls-1" x="0.88" y="0.88" width="42.75" height="29.46" rx="4.31"/><line class="cls-2" x1="22.25" y1="45.25" x2="22.25" y2="32.48"/><path d="M243.1,247.68a1.32,1.32,0,0,1,0,.29.52.52,0,0,1-.06.2.25.25,0,0,1-.1.12.33.33,0,0,1-.14,0h-5.66a.64.64,0,0,1-.39-.14.58.58,0,0,1-.19-.5V237.17a.58.58,0,0,1,.19-.5.64.64,0,0,1,.39-.14h5.6a.2.2,0,0,1,.13,0,.25.25,0,0,1,.1.12,1.67,1.67,0,0,1,.06.2,2.54,2.54,0,0,1,0,.31,2.16,2.16,0,0,1,0,.28,1.24,1.24,0,0,1-.06.2.31.31,0,0,1-.1.12.28.28,0,0,1-.13,0h-4.61v3.7h3.95a.23.23,0,0,1,.14,0,.27.27,0,0,1,.1.11,1.67,1.67,0,0,1,.06.2,2.81,2.81,0,0,1,0,.3,2.27,2.27,0,0,1,0,.28,1.67,1.67,0,0,1-.06.2.25.25,0,0,1-.24.13h-3.95V247h4.67a.33.33,0,0,1,.14,0,.27.27,0,0,1,.1.11.59.59,0,0,1,.06.2A1.47,1.47,0,0,1,243.1,247.68Z" transform="translate(-227.77 -226.83)"/><path d="M254.29,247.77a.93.93,0,0,1,.07.32.22.22,0,0,1-.06.19.46.46,0,0,1-.25.08,2.83,2.83,0,0,1-.45,0h-.45a1,1,0,0,1-.25-.05.32.32,0,0,1-.13-.08s-.05-.09-.08-.14l-1-2.87h-4.9l-1,2.83a.46.46,0,0,1-.07.14.3.3,0,0,1-.14.1.59.59,0,0,1-.24.06,2.56,2.56,0,0,1-.42,0l-.43,0a.55.55,0,0,1-.24-.09.24.24,0,0,1-.06-.18,1,1,0,0,1,.08-.33l4-10.95a.39.39,0,0,1,.27-.27l.29,0h.94a1.82,1.82,0,0,1,.31,0,.4.4,0,0,1,.18.11.44.44,0,0,1,.1.16Zm-5.08-9.67h0l-2,5.88h4.1Z" transform="translate(-227.77 -226.83)"/><path d="M263.5,240a4,4,0,0,1-.29,1.59,3.23,3.23,0,0,1-.83,1.21,3.66,3.66,0,0,1-1.33.78,5.9,5.9,0,0,1-1.89.27h-1.34v4.25a.2.2,0,0,1,0,.13.28.28,0,0,1-.12.08,1,1,0,0,1-.24.06l-.38,0-.38,0a1,1,0,0,1-.24-.06.32.32,0,0,1-.13-.08.28.28,0,0,1,0-.13V237.21a.61.61,0,0,1,.19-.52.62.62,0,0,1,.43-.16h2.52c.26,0,.5,0,.73,0a6.53,6.53,0,0,1,.83.14,3.46,3.46,0,0,1,1,.39,3,3,0,0,1,.84.71,3.16,3.16,0,0,1,.54,1A3.91,3.91,0,0,1,263.5,240Zm-1.65.12a2.42,2.42,0,0,0-.27-1.2,1.93,1.93,0,0,0-.66-.72,2.21,2.21,0,0,0-.82-.3,5.9,5.9,0,0,0-.83-.06h-1.45v4.73h1.42a3.14,3.14,0,0,0,1.18-.19,2.37,2.37,0,0,0,.79-.5,2.22,2.22,0,0,0,.48-.78A2.8,2.8,0,0,0,261.85,240.11Z" transform="translate(-227.77 -226.83)"/><line class="cls-2" x1="17.46" y1="45.51" x2="27.03" y2="45.51"/></svg>