<svg id="Réteg_1" data-name="Réteg 1" xmlns="http://www.w3.org/2000/svg" viewBox="0 0 45.96 46.39"><defs><style>.cls-1{fill:none;stroke:#000;stroke-linecap:round;stroke-miterlimit:10;stroke-width:1.75px;}</style></defs><circle class="cls-1" cx="22.96" cy="23.2" r="1.05"/><circle class="cls-1" cx="22.96" cy="23.2" r="5.78"/><circle class="cls-1" cx="22.96" cy="23.2" r="11.32"/><path class="cls-1" d="M233.27,247.38a17,17,0,0,1,13.9-14.06" transform="translate(-227.04 -226.83)"/><path class="cls-1" d="M247.42,266.76A16.94,16.94,0,0,1,233.06,250" transform="translate(-227.04 -226.83)"/><path class="cls-1" d="M266.94,250A16.93,16.93,0,0,1,250,267" transform="translate(-227.04 -226.83)"/><path class="cls-1" d="M250,233.08a17,17,0,0,1,16.75,14.36" transform="translate(-227.04 -226.83)"/><line class="cls-1" x1="0.88" y1="23.2" x2="11.64" y2="23.2"/><line class="cls-1" x1="34.32" y1="23.2" x2="45.09" y2="23.2"/><line class="cls-1" x1="22.96" y1="11.64" x2="22.96" y2="0.88"/><line class="cls-1" x1="22.96" y1="45.52" x2="22.96" y2="34.75"/></svg>