<?xml version="1.0" encoding="UTF-8"?>
<svg id="Réteg_1" data-name="Réteg 1" xmlns="http://www.w3.org/2000/svg" viewBox="0 0 271.1 326.95">
  <defs>
    <style>
      .cls-1 {
        stroke: #1d1d1b;
      }

      .cls-1, .cls-2 {
        fill: #fff;
      }

      .cls-1, .cls-2, .cls-3, .cls-4 {
        stroke-linecap: round;
        stroke-linejoin: round;
        stroke-width: 1.94px;
      }

      .cls-2, .cls-3 {
        stroke: #000;
      }

      .cls-3, .cls-4 {
        fill: none;
      }

      .cls-4 {
        stroke: #fff;
      }

      .cls-5, .cls-6 {
        stroke-width: 0px;
      }

      .cls-6 {
        fill: #1000c3;
      }
    </style>
  </defs>
  <path class="cls-2" d="M122.42,137.99h8.37c9.55,0,17.3,7.75,17.3,17.3v51.04c0,9.55-7.75,17.3-17.3,17.3h-8.36c-9.55,0-17.3-7.75-17.3-17.3v-51.04c0-9.55,7.75-17.3,17.3-17.3Z" transform="translate(253.2 361.63) rotate(180)"/>
  <path class="cls-5" d="M114.01,159.46v-20.71c1.39-.49,2.88-.76,4.44-.76h16.3c7.37,0,13.34,5.97,13.34,13.34v47.81c-19.66,0-34.07-18.1-34.07-39.68Z"/>
  <rect class="cls-5" width="271.1" height="179.45" rx="34.11" ry="34.11"/>
  <rect class="cls-1" x="8.96" y="7.47" width="253.19" height="164.51" rx="32.39" ry="32.39"/>
  <rect class="cls-3" x="8.96" y="7.47" width="253.19" height="164.51" rx="32.39" ry="32.39"/>
  <g>
    <path class="cls-5" d="M8.96,29.43h-4.35v120.6h4.35c4.11-1.92,6.96-6.07,6.96-10.9V40.33c0-4.83-2.85-8.98-6.96-10.9Z"/>
    <path class="cls-5" d="M8.96,150.03c4.11-1.92,6.96-6.07,6.96-10.9V40.33c0-4.83-2.85-8.98-6.96-10.9"/>
  </g>
  <path class="cls-5" d="M258.45,326.95l-.89-60.2c-.34-22.6-18.93-40.64-41.53-40.3h-.61c-22.74.36-40.83,19.19-40.27,41.92l1.45,58.57h81.86Z"/>
  <path class="cls-6" d="M13.12,326.95h226.7l5.09-57.64c2.13-24.12-13.88-46.13-37.49-51.48-28.89-6.55-59.33-10.58-59.33-10.58,0,0,.78,8.74-12.97,8.74-19.1,0-30-8.74-30-8.74,0,0-27.95,3.76-55.58,9.92-25.12,5.6-42.38,28.72-40.49,54.39l4.07,55.39Z"/>
  <polyline class="cls-4" points="243.63 253.22 231.8 273.72 206.61 230.09 181.42 273.72 156.24 230.09 131.05 273.72 105.86 230.09 80.67 273.72 55.48 230.09 30.3 273.72 13.97 245.44"/>
  <polyline class="cls-4" points="241.92 304.62 231.8 322.15 206.61 278.52 181.42 322.15 156.24 278.52 131.05 322.15 105.86 278.52 80.67 322.15 55.48 278.52 30.3 322.15 10.21 287.36"/>
  <path class="cls-5" d="M84.43,326.95l-.89-60.2c-.34-22.6-18.93-40.64-41.53-40.3h-.61c-22.74.36-40.83,19.19-40.27,41.92l1.45,58.57h81.86Z"/>
  <g>
    <path class="cls-5" d="M43.57,98.82c0,.12-.03.21-.08.29-.05.08-.14.14-.27.2-.13.05-.3.09-.51.11-.22.02-.48.03-.79.03-.34,0-.61-.01-.82-.03-.21-.02-.38-.06-.51-.11-.13-.05-.23-.12-.28-.2s-.09-.18-.09-.29v-1.56c-.72.78-1.48,1.38-2.27,1.81-.79.43-1.67.65-2.63.65-1.07,0-1.97-.21-2.71-.62-.74-.41-1.34-.97-1.81-1.67-.47-.7-.8-1.52-1.01-2.46-.21-.94-.31-1.93-.31-2.96,0-1.25.13-2.37.4-3.37.27-1,.66-1.84,1.17-2.55.51-.7,1.15-1.24,1.92-1.62.77-.38,1.65-.57,2.64-.57.79,0,1.5.16,2.14.48.64.32,1.27.79,1.9,1.41v-7.59c0-.1.03-.2.09-.28s.16-.15.31-.21c.15-.06.35-.1.61-.13.25-.03.57-.05.96-.05s.71.02.96.05c.25.03.45.08.6.13.15.06.25.13.31.21.06.08.09.18.09.28v20.63ZM39.64,89.45c-.57-.71-1.11-1.26-1.63-1.64-.52-.38-1.06-.57-1.63-.57-.51,0-.96.13-1.33.39-.37.26-.67.6-.9,1.03s-.39.91-.5,1.44c-.11.53-.17,1.07-.17,1.63,0,.59.05,1.16.14,1.71.09.56.25,1.05.46,1.49.21.44.5.78.86,1.05.36.26.81.39,1.35.39.27,0,.54-.04.79-.12.26-.08.52-.21.79-.39.27-.18.54-.41.83-.7.28-.29.59-.64.93-1.06v-4.65Z"/>
    <path class="cls-5" d="M51.81,80.04c0,.8-.16,1.35-.49,1.65-.33.3-.93.46-1.81.46s-1.49-.15-1.8-.44c-.31-.29-.46-.82-.46-1.59s.16-1.35.48-1.66c.32-.31.93-.46,1.82-.46s1.48.15,1.79.45.47.83.47,1.6ZM51.51,98.82c0,.1-.03.2-.09.28s-.17.14-.32.2c-.15.05-.35.09-.61.12-.25.03-.57.04-.96.04s-.71-.01-.96-.04c-.25-.03-.45-.07-.61-.12-.15-.05-.26-.12-.32-.2s-.09-.17-.09-.28v-14c0-.1.03-.2.09-.28s.17-.15.32-.2.35-.1.61-.13.57-.05.96-.05.71.02.96.05.45.08.61.13c.15.06.26.13.32.2s.09.17.09.28v14Z"/>
    <path class="cls-5" d="M68.1,85.77c0,.5-.06.88-.17,1.12s-.26.36-.42.36h-1.65c.23.25.4.54.5.86s.15.65.15,1c0,.82-.14,1.54-.41,2.18s-.66,1.17-1.17,1.6c-.51.44-1.12.77-1.84.99-.72.23-1.52.34-2.4.34-.45,0-.88-.06-1.29-.17s-.72-.24-.94-.39c-.13.14-.24.3-.34.49-.1.19-.15.4-.15.63,0,.3.13.55.4.75.27.19.64.3,1.12.32l3.41.13c.8.03,1.51.14,2.13.34.62.19,1.15.47,1.57.82.42.35.75.77.97,1.27.23.49.34,1.05.34,1.68,0,.69-.15,1.34-.46,1.96-.3.61-.76,1.15-1.37,1.6-.61.45-1.37.81-2.29,1.07-.92.26-1.99.39-3.22.39s-2.21-.09-3.06-.28c-.84-.19-1.54-.45-2.08-.79-.54-.34-.93-.74-1.18-1.2-.25-.47-.37-.98-.37-1.53,0-.35.04-.68.13-.99s.22-.62.39-.9c.17-.29.39-.56.64-.83.25-.26.54-.51.86-.75-.45-.24-.8-.57-1.05-.98-.25-.41-.37-.87-.37-1.36,0-.62.14-1.18.42-1.69.28-.51.65-.97,1.1-1.38-.37-.37-.66-.81-.88-1.32-.22-.51-.33-1.15-.33-1.92,0-.82.14-1.55.43-2.19.29-.65.69-1.19,1.2-1.64.51-.45,1.13-.79,1.84-1.02s1.5-.35,2.36-.35c.44,0,.86.03,1.27.08.4.05.78.13,1.12.22h4.45c.18,0,.32.12.43.35.11.23.17.62.17,1.16ZM63.95,100.28c0-.47-.19-.83-.57-1.08s-.9-.39-1.56-.41l-2.81-.08c-.27.2-.49.39-.65.57-.16.18-.29.36-.39.53-.1.17-.17.33-.2.49-.03.16-.05.32-.05.49,0,.52.26.92.79,1.19.53.27,1.28.41,2.24.41.6,0,1.1-.06,1.51-.18.41-.12.74-.28.99-.48.25-.2.43-.42.53-.67.1-.25.16-.51.16-.78ZM63.02,89.08c0-.75-.21-1.34-.63-1.76-.42-.42-1.01-.63-1.78-.63-.39,0-.73.07-1.02.2-.29.13-.54.31-.73.53s-.34.49-.43.79c-.09.3-.14.61-.14.94,0,.71.21,1.28.63,1.69.42.41,1,.62,1.75.62.4,0,.74-.06,1.04-.19.29-.13.54-.3.73-.52.19-.22.34-.47.44-.76.1-.29.15-.59.15-.9Z"/>
    <path class="cls-5" d="M74.99,80.04c0,.8-.16,1.35-.49,1.65-.33.3-.93.46-1.81.46s-1.49-.15-1.8-.44c-.31-.29-.46-.82-.46-1.59s.16-1.35.48-1.66c.32-.31.93-.46,1.82-.46s1.48.15,1.79.45.47.83.47,1.6ZM74.69,98.82c0,.1-.03.2-.09.28s-.17.14-.32.2c-.15.05-.35.09-.61.12-.25.03-.57.04-.96.04s-.71-.01-.96-.04c-.25-.03-.45-.07-.61-.12-.15-.05-.26-.12-.32-.2s-.09-.17-.09-.28v-14c0-.1.03-.2.09-.28s.17-.15.32-.2.35-.1.61-.13.57-.05.96-.05.71.02.96.05.45.08.61.13c.15.06.26.13.32.2s.09.17.09.28v14Z"/>
    <path class="cls-5" d="M86.94,97.43c0,.46-.03.82-.09,1.06-.06.25-.13.42-.23.52s-.23.19-.42.27-.4.15-.64.2c-.25.06-.51.1-.8.13-.29.03-.58.05-.87.05-.79,0-1.47-.1-2.04-.3-.58-.2-1.05-.51-1.43-.92-.38-.41-.66-.94-.83-1.56s-.27-1.37-.27-2.23v-7.19h-1.68c-.2,0-.35-.12-.46-.37-.1-.25-.16-.66-.16-1.23,0-.3.01-.56.04-.77.03-.21.07-.37.12-.5.05-.12.12-.21.2-.26.08-.05.17-.08.28-.08h1.67v-3.13c0-.1.03-.2.09-.28.06-.08.16-.15.31-.21.15-.06.36-.1.61-.13.26-.03.57-.04.95-.04s.71.01.97.04c.26.03.46.07.61.13.15.06.25.13.31.21.06.08.09.18.09.28v3.13h3.05c.1,0,.2.03.27.08.08.05.14.14.2.26.05.12.09.29.12.5.03.21.04.47.04.77,0,.58-.05.99-.16,1.23-.1.25-.26.37-.46.37h-3.07v6.59c0,.77.12,1.34.36,1.72.24.38.67.57,1.29.57.21,0,.4-.02.57-.06.17-.04.32-.08.45-.13.13-.05.24-.09.33-.13.09-.04.17-.06.24-.06.06,0,.12.02.18.06s.1.11.13.22c.03.11.06.26.09.45.03.19.04.43.04.72Z"/>
    <path class="cls-5" d="M101.44,98.87c0,.15-.05.26-.16.35-.1.08-.27.14-.5.18-.23.04-.56.05-1,.05-.47,0-.82-.02-1.03-.05-.21-.04-.37-.1-.46-.18-.09-.08-.13-.2-.13-.35v-1.12c-.58.62-1.23,1.1-1.97,1.45-.74.35-1.56.52-2.46.52-.74,0-1.43-.1-2.05-.29s-1.16-.48-1.62-.86-.81-.86-1.06-1.42c-.25-.57-.38-1.23-.38-1.98,0-.82.16-1.53.48-2.13.32-.6.8-1.1,1.43-1.49s1.42-.68,2.37-.87c.94-.19,2.04-.28,3.29-.28h1.37v-.85c0-.44-.04-.83-.13-1.16-.09-.33-.24-.61-.44-.83-.2-.22-.48-.38-.82-.49-.34-.1-.76-.16-1.27-.16-.66,0-1.25.07-1.77.22s-.98.31-1.38.49-.73.34-1,.49c-.27.15-.48.22-.65.22-.12,0-.22-.04-.31-.11-.09-.07-.16-.18-.22-.31s-.1-.3-.13-.5c-.03-.2-.05-.42-.05-.66,0-.33.03-.58.08-.77.05-.19.15-.36.3-.51.15-.15.4-.32.77-.5.37-.18.8-.35,1.29-.51s1.03-.29,1.61-.39c.58-.1,1.18-.15,1.8-.15,1.1,0,2.04.11,2.82.32.78.21,1.42.55,1.93.99.5.45.87,1.02,1.1,1.72.23.7.35,1.54.35,2.5v9.44ZM97.55,92.86h-1.51c-.64,0-1.18.05-1.64.14-.45.09-.82.24-1.1.42-.28.19-.49.42-.62.68-.13.27-.2.57-.2.92,0,.59.19,1.05.56,1.38s.89.5,1.55.5c.56,0,1.07-.14,1.53-.42.47-.28.94-.7,1.42-1.24v-2.39Z"/>
    <path class="cls-5" d="M109.34,98.82c0,.1-.03.2-.09.28s-.17.14-.32.2c-.15.05-.35.09-.61.12-.25.03-.57.04-.96.04s-.71-.01-.96-.04c-.25-.03-.45-.07-.61-.12-.15-.05-.26-.12-.32-.2s-.09-.17-.09-.28v-20.68c0-.1.03-.2.09-.28.06-.08.17-.15.32-.21.15-.06.35-.1.61-.13.25-.03.57-.05.96-.05s.71.02.96.05c.25.03.45.08.61.13.15.06.26.13.32.21.06.08.09.18.09.28v20.68Z"/>
  </g>
  <g>
    <path class="cls-5" d="M164.07,92.1c0,1.22-.13,2.31-.39,3.28-.26.97-.65,1.79-1.17,2.48-.52.68-1.16,1.21-1.92,1.57-.76.37-1.63.55-2.62.55-.44,0-.85-.04-1.22-.13-.37-.09-.74-.23-1.09-.43-.36-.2-.72-.45-1.09-.75-.37-.3-.77-.67-1.2-1.1v1.84c0,.07-.02.14-.05.19-.03.05-.08.09-.16.13s-.16.06-.27.07-.24.02-.39.02-.29,0-.4-.02-.2-.04-.27-.07-.12-.07-.14-.13c-.03-.05-.04-.12-.04-.19v-21.2c0-.06.01-.12.04-.17s.08-.1.15-.13c.07-.04.17-.06.29-.08s.27-.02.45-.02c.19,0,.34,0,.46.02s.21.04.28.08c.07.04.12.08.15.13s.05.11.05.17v8.88c.45-.47.88-.87,1.29-1.19.41-.32.81-.58,1.19-.77.39-.19.77-.33,1.16-.42s.78-.13,1.19-.13c1.03,0,1.91.2,2.63.6s1.32.94,1.78,1.62c.46.68.79,1.48,1,2.39.21.91.31,1.88.31,2.91ZM162.1,92.39c0-.8-.06-1.57-.19-2.31s-.34-1.4-.64-1.98c-.3-.58-.71-1.04-1.21-1.39s-1.13-.53-1.89-.53c-.37,0-.73.05-1.09.16-.36.1-.73.28-1.11.52-.38.24-.77.55-1.17.94-.4.38-.83.86-1.28,1.42v6.2c.79.95,1.54,1.69,2.27,2.19s1.49.76,2.27.76c.72,0,1.34-.18,1.86-.53s.93-.81,1.26-1.38c.33-.57.56-1.21.71-1.92.15-.71.22-1.43.22-2.15Z"/>
    <path class="cls-5" d="M178.35,99.39c0,.1-.03.19-.1.24s-.16.1-.27.13c-.11.03-.26.04-.45.04-.18,0-.33-.01-.46-.04-.13-.03-.22-.07-.29-.13-.07-.06-.1-.14-.1-.24v-1.59c-.64.69-1.34,1.23-2.12,1.6s-1.57.57-2.4.57c-.75,0-1.41-.1-2-.29-.59-.19-1.09-.47-1.5-.83s-.72-.8-.94-1.31c-.22-.51-.33-1.09-.33-1.73,0-.79.16-1.47.49-2.05.32-.58.79-1.07,1.38-1.45s1.32-.68,2.15-.87c.84-.19,1.77-.29,2.8-.29h2.26v-1.23c0-.61-.06-1.15-.19-1.61-.13-.47-.33-.86-.61-1.17-.28-.31-.65-.55-1.1-.71-.45-.16-1-.24-1.65-.24s-1.2.08-1.7.23c-.5.15-.94.32-1.32.51-.38.19-.69.36-.94.51-.25.15-.42.23-.53.23-.06,0-.12-.01-.17-.03-.05-.02-.1-.06-.13-.12-.04-.06-.06-.13-.08-.22-.02-.09-.02-.2-.02-.32,0-.22.02-.4.05-.53.03-.13.11-.26.24-.39.13-.13.36-.29.7-.46.34-.18.72-.34,1.16-.5.43-.15.9-.28,1.41-.37s1.01-.14,1.51-.14c.97,0,1.8.12,2.47.35s1.21.57,1.63,1.01.71.98.89,1.63c.18.65.27,1.38.27,2.19v9.62ZM176.47,92.68h-2.59c-.75,0-1.42.07-1.98.2s-1.04.34-1.42.6c-.38.26-.66.58-.84.94-.18.37-.27.79-.27,1.26,0,.82.26,1.47.78,1.96.52.49,1.25.73,2.19.73.74,0,1.44-.19,2.08-.57.65-.38,1.33-.97,2.05-1.77v-3.35Z"/>
    <path class="cls-5" d="M185.41,99.39c0,.06-.02.12-.05.17-.03.05-.08.09-.15.13-.07.03-.16.06-.28.08s-.28.03-.46.03c-.18,0-.33-.01-.45-.03s-.22-.05-.29-.08c-.07-.03-.12-.07-.15-.13-.03-.05-.04-.11-.04-.17v-21.2c0-.06.01-.12.04-.17s.08-.1.15-.13c.07-.04.17-.06.29-.08s.27-.02.45-.02c.19,0,.34,0,.46.02s.21.04.28.08c.07.04.12.08.15.13s.05.11.05.17v21.2Z"/>
    <path class="cls-5" d="M200.61,99.39c0,.1-.03.19-.1.24s-.16.1-.27.13c-.11.03-.26.04-.45.04-.18,0-.33-.01-.46-.04-.13-.03-.22-.07-.29-.13-.07-.06-.1-.14-.1-.24v-1.59c-.64.69-1.34,1.23-2.12,1.6s-1.57.57-2.4.57c-.75,0-1.41-.1-2-.29-.59-.19-1.09-.47-1.5-.83s-.72-.8-.94-1.31c-.22-.51-.33-1.09-.33-1.73,0-.79.16-1.47.49-2.05.32-.58.79-1.07,1.38-1.45s1.32-.68,2.15-.87c.84-.19,1.77-.29,2.8-.29h2.26v-1.23c0-.61-.06-1.15-.19-1.61-.13-.47-.33-.86-.61-1.17-.28-.31-.65-.55-1.1-.71-.45-.16-1-.24-1.65-.24s-1.2.08-1.7.23c-.5.15-.94.32-1.32.51-.38.19-.69.36-.94.51-.25.15-.42.23-.53.23-.06,0-.12-.01-.17-.03-.05-.02-.1-.06-.13-.12-.04-.06-.06-.13-.08-.22-.02-.09-.02-.2-.02-.32,0-.22.02-.4.05-.53.03-.13.11-.26.24-.39.13-.13.36-.29.7-.46.34-.18.72-.34,1.16-.5.43-.15.9-.28,1.41-.37s1.01-.14,1.51-.14c.97,0,1.8.12,2.47.35s1.21.57,1.63,1.01.71.98.89,1.63c.18.65.27,1.38.27,2.19v9.62ZM198.74,92.68h-2.59c-.75,0-1.42.07-1.98.2s-1.04.34-1.42.6c-.38.26-.66.58-.84.94-.18.37-.27.79-.27,1.26,0,.82.26,1.47.78,1.96.52.49,1.25.73,2.19.73.74,0,1.44-.19,2.08-.57.65-.38,1.33-.97,2.05-1.77v-3.35Z"/>
    <path class="cls-5" d="M217.34,99.39c0,.06-.02.12-.05.17-.03.05-.08.09-.15.13-.07.03-.16.06-.28.08s-.27.03-.45.03c-.19,0-.34-.01-.46-.03s-.21-.05-.28-.08c-.07-.03-.12-.07-.15-.13-.03-.05-.05-.11-.05-.17v-8.44c0-.88-.07-1.6-.2-2.15-.14-.55-.34-1.02-.61-1.42-.27-.39-.62-.7-1.05-.91s-.92-.32-1.49-.32c-.72,0-1.45.26-2.17.77s-1.48,1.27-2.28,2.26v10.21c0,.06-.02.12-.05.17-.03.05-.08.09-.15.13-.07.03-.16.06-.28.08s-.28.03-.46.03c-.18,0-.33-.01-.45-.03s-.22-.05-.29-.08c-.07-.03-.12-.07-.15-.13-.03-.05-.04-.11-.04-.17v-14.23c0-.06.01-.12.04-.17.03-.05.08-.1.15-.13s.17-.06.28-.08c.11-.02.25-.02.43-.02s.33,0,.44.02c.12.02.2.04.27.08.06.04.11.08.13.13.03.05.04.11.04.17v2.01c.82-.91,1.62-1.57,2.41-1.98s1.57-.61,2.34-.61c.93,0,1.72.16,2.36.47s1.16.74,1.55,1.27.68,1.16.85,1.87c.17.71.26,1.57.26,2.58v8.62Z"/>
    <path class="cls-5" d="M232.47,97.28c0,.13,0,.24-.02.34-.01.1-.03.19-.05.26-.02.07-.05.14-.09.2-.04.06-.12.15-.26.29-.14.14-.36.31-.68.52-.32.21-.68.39-1.08.55-.4.16-.83.29-1.29.39-.46.1-.94.15-1.43.15-.99,0-1.86-.17-2.62-.5-.76-.33-1.4-.82-1.91-1.46s-.9-1.44-1.17-2.37c-.27-.94-.4-2.02-.4-3.25,0-1.38.17-2.57.5-3.55.33-.99.78-1.79,1.36-2.42.58-.63,1.25-1.09,2.02-1.39s1.6-.45,2.48-.45c.47,0,.92.04,1.35.13.43.09.83.21,1.19.35.36.15.68.31.97.5.28.19.49.35.62.48.13.13.22.23.27.3.05.07.08.14.11.23.03.08.04.18.05.28s.02.22.02.35c0,.3-.04.52-.13.64-.09.12-.19.18-.29.18-.15,0-.33-.09-.54-.28-.21-.19-.49-.4-.83-.62-.34-.23-.74-.43-1.22-.62-.48-.19-1.05-.28-1.71-.28-1.36,0-2.41.52-3.15,1.57s-1.11,2.56-1.11,4.54c0,1,.1,1.87.3,2.62s.48,1.37.86,1.87c.37.5.83.87,1.36,1.12.54.25,1.14.37,1.81.37.63,0,1.18-.1,1.67-.3s.9-.42,1.26-.66c.36-.24.65-.46.89-.66.24-.2.41-.3.53-.3.06,0,.12.02.17.06.05.04.09.09.12.17s.05.17.07.28c.02.11.02.24.02.39Z"/>
    <path class="cls-5" d="M247.83,91.55c0,.38-.1.64-.3.78-.2.14-.39.21-.58.21h-9.7c0,.88.09,1.68.26,2.39.17.71.46,1.32.86,1.83s.92.9,1.56,1.17,1.43.41,2.36.41c.66,0,1.25-.06,1.78-.17s.98-.24,1.36-.39.7-.27.94-.39.42-.17.53-.17c.06,0,.12.02.17.05.05.03.09.08.12.15.03.07.06.15.07.26.02.1.02.24.02.39,0,.07,0,.14-.02.21-.01.07-.02.13-.04.19s-.04.11-.07.17c-.03.05-.07.1-.13.16-.05.05-.21.14-.49.28s-.63.26-1.07.39c-.44.13-.95.25-1.53.35-.58.1-1.21.16-1.88.16-1.1,0-2.08-.17-2.92-.5s-1.56-.82-2.14-1.46-1.01-1.44-1.31-2.4-.45-2.06-.45-3.32.15-2.29.46-3.24c.31-.95.75-1.76,1.33-2.43.58-.67,1.27-1.17,2.08-1.53.81-.35,1.72-.53,2.71-.53,1.07,0,1.98.18,2.74.53s1.38.84,1.86,1.44c.49.6.84,1.3,1.07,2.1.23.8.34,1.64.34,2.52v.38ZM245.9,90.99c.03-1.51-.31-2.69-1.04-3.54-.72-.85-1.78-1.27-3.16-1.27-.71,0-1.34.13-1.88.4-.54.27-1,.62-1.37,1.06-.37.44-.66.95-.86,1.53s-.31,1.19-.35,1.82h8.65Z"/>
  </g>
  <path class="cls-6" d="M130,72.98c-8.54,0-15.47,6.93-15.47,15.47s6.93,15.47,15.47,15.47,15.47-6.93,15.47-15.47-6.93-15.47-15.47-15.47ZM128.83,78.77c0-.67.45-1.21,1.11-1.21s1.11.54,1.11,1.21v7.31c0,.67-.45,1.21-1.11,1.21s-1.11-.54-1.11-1.21v-7.31ZM136.69,95.79c-1.79,1.79-4.16,2.77-6.69,2.77s-4.9-.98-6.69-2.77c-1.79-1.79-2.77-4.16-2.77-6.69,0-3.22,1.61-6.18,4.31-7.94.56-.36,1.3-.2,1.67.35.36.56.2,1.3-.35,1.67-2.01,1.31-3.21,3.52-3.21,5.92,0,3.89,3.16,7.05,7.05,7.05s7.05-3.16,7.05-7.05c0-2.4-1.2-4.61-3.21-5.92-.56-.36-.72-1.11-.35-1.67.36-.56,1.11-.72,1.67-.35,2.7,1.75,4.31,4.72,4.31,7.94,0,2.53-.98,4.9-2.77,6.69Z"/>
</svg>