<svg id="Réteg_1" data-name="Réteg 1" xmlns="http://www.w3.org/2000/svg" viewBox="0 0 25 18.66"><defs><style>.cls-1{fill:#59c6c6;}.cls-2{fill:#fff;}</style></defs><rect class="cls-1" x="1" y="1" width="23" height="16.66" rx="2.42"/><path class="cls-1" d="M21.58,2A1.41,1.41,0,0,1,23,3.42V15.25a1.41,1.41,0,0,1-1.42,1.41H3.42A1.41,1.41,0,0,1,2,15.25V3.42A1.41,1.41,0,0,1,3.42,2H21.58m0-2H3.42A3.42,3.42,0,0,0,0,3.42V15.25a3.42,3.42,0,0,0,3.42,3.41H21.58A3.42,3.42,0,0,0,25,15.25V3.42A3.42,3.42,0,0,0,21.58,0Z" transform="translate(0 0)"/><path class="cls-2" d="M10.12,10.52l1.76.56a4,4,0,0,1-1.34,2.18A3.84,3.84,0,0,1,8.15,14a3.84,3.84,0,0,1-2.94-1.23A4.66,4.66,0,0,1,4.05,9.41,4.89,4.89,0,0,1,5.21,5.93,4,4,0,0,1,8.26,4.68a3.75,3.75,0,0,1,2.68,1,3.59,3.59,0,0,1,.92,1.65l-1.8.43a2,2,0,0,0-.66-1.1,1.91,1.91,0,0,0-1.23-.4A2,2,0,0,0,6.55,7a3.49,3.49,0,0,0-.63,2.33,3.74,3.74,0,0,0,.62,2.42,2,2,0,0,0,1.59.73A1.83,1.83,0,0,0,9.37,12,2.66,2.66,0,0,0,10.12,10.52Z" transform="translate(0 0)"/><path class="cls-2" d="M19.19,10.52l1.76.56a3.9,3.9,0,0,1-1.35,2.18,3.82,3.82,0,0,1-2.39.72,3.86,3.86,0,0,1-2.94-1.23,4.66,4.66,0,0,1-1.15-3.34,4.89,4.89,0,0,1,1.16-3.48,4,4,0,0,1,3-1.25,3.73,3.73,0,0,1,2.68,1,3.5,3.5,0,0,1,.92,1.65l-1.79.43a1.86,1.86,0,0,0-1.9-1.5A2,2,0,0,0,15.61,7,3.55,3.55,0,0,0,15,9.28a3.75,3.75,0,0,0,.61,2.42,2,2,0,0,0,1.59.73A1.85,1.85,0,0,0,18.44,12,2.66,2.66,0,0,0,19.19,10.52Z" transform="translate(0 0)"/></svg>