<svg id="Réteg_1" data-name="Réteg 1" xmlns="http://www.w3.org/2000/svg" viewBox="0 0 262.5 405.49"><defs><style>.cls-1,.cls-3{fill:#00575f;}.cls-2{fill:#fff;}.cls-3,.cls-4{stroke:#00575f;stroke-miterlimit:10;stroke-width:4px;}.cls-3{stroke-linecap:round;}.cls-4{fill:none;}</style></defs><rect class="cls-1" width="262.5" height="405.49" rx="131.25"/><path class="cls-2" d="M323.25,547.91c-2.78-2.84-8.61-3.36-11.32,0q-7,8.67-14,17.33l-6.65,8.26c-.79,1-1.73,2.44-2.75,3.8l-.6-.61-4.51-4.64c-7.2-7.4-18.52,3.93-11.32,11.32,3.71,3.81,7.5,9.15,12.54,11.16,5.52,2.21,10.42-.45,14-4.75,8.31-10.09,16.41-20.37,24.61-30.55C326,555.83,326.5,551.23,323.25,547.91Z" transform="translate(-166.35 -218.07)"/><circle class="cls-2" cx="131.25" cy="131.66" r="107.16"/><line class="cls-3" x1="131.12" y1="129.09" x2="146.62" y2="117.65"/><path class="cls-4" d="M285.85,384.76h-24.5a33.9,33.9,0,0,1-4.82-67.45,41.18,41.18,0,0,1,82.26,0,33.9,33.9,0,0,1-5,67.43H308" transform="translate(-166.35 -218.07)"/><line class="cls-3" x1="130.92" y1="101.35" x2="131.32" y2="203.17"/><line class="cls-3" x1="105.72" y1="129.09" x2="130.92" y2="147.68"/><path class="cls-2" d="M194.86,492.38a1.66,1.66,0,0,1,0,.24.47.47,0,0,1-.07.19.29.29,0,0,1-.11.11.25.25,0,0,1-.14,0H188a.69.69,0,0,1-.4-.15.61.61,0,0,1-.2-.53V479.73a.64.64,0,0,1,.2-.53.75.75,0,0,1,.4-.14h6.41a.32.32,0,0,1,.14,0,.43.43,0,0,1,.11.12.47.47,0,0,1,.06.19,1.64,1.64,0,0,1,0,.51.38.38,0,0,1-.06.17.29.29,0,0,1-.11.11.23.23,0,0,1-.14,0h-5.7v4.89h4.92l.15,0a.38.38,0,0,1,.11.11l.06.18a2.13,2.13,0,0,1,0,.27,1.66,1.66,0,0,1,0,.24,1.62,1.62,0,0,1-.06.17.31.31,0,0,1-.11.09.4.4,0,0,1-.15,0h-4.92v5.55h5.8a.25.25,0,0,1,.14,0,.35.35,0,0,1,.11.1.48.48,0,0,1,.07.18A2.13,2.13,0,0,1,194.86,492.38Z" transform="translate(-166.35 -218.07)"/><path class="cls-2" d="M208.14,492.32a.81.81,0,0,1-.06.33.8.8,0,0,1-.15.21.56.56,0,0,1-.2.11l-.21,0h-.27a1.48,1.48,0,0,1-.39-.05,1.09,1.09,0,0,1-.35-.19,2,2,0,0,1-.33-.36,5,5,0,0,1-.37-.58l-4.9-8.68-.74-1.31c-.24-.44-.48-.88-.7-1.3h0c0,.52,0,1.06,0,1.61v10.6a.21.21,0,0,1,0,.12.2.2,0,0,1-.11.09l-.2.05a2.49,2.49,0,0,1-.63,0l-.2-.05a.2.2,0,0,1-.11-.09.21.21,0,0,1,0-.12v-13a.64.64,0,0,1,.2-.53.75.75,0,0,1,.4-.14h.54a1.8,1.8,0,0,1,.43,0,.89.89,0,0,1,.31.15,1.1,1.1,0,0,1,.27.29,4.94,4.94,0,0,1,.3.47l3.75,6.65.67,1.2.62,1.13.59,1.09c.2.36.4.72.59,1.08h0c0-.6,0-1.22,0-1.88v-10a.21.21,0,0,1,0-.12.2.2,0,0,1,.11-.09.47.47,0,0,1,.2-.06h.61a.53.53,0,0,1,.21.06.2.2,0,0,1,.11.09.16.16,0,0,1,0,.12Z" transform="translate(-166.35 -218.07)"/><path class="cls-2" d="M217.1,492.72a.4.4,0,0,1-.1.15.42.42,0,0,1-.16.09l-.25.05H216l-.19,0-.15,0a.67.67,0,0,1-.12-.06.27.27,0,0,1-.08-.07.39.39,0,0,1-.06-.11l-4.76-13.22a.84.84,0,0,1-.06-.26.24.24,0,0,1,.09-.16.38.38,0,0,1,.22-.07l.4,0,.33,0a.74.74,0,0,1,.19.05.31.31,0,0,1,.11.08l.07.13,4.31,12.24h0l4.18-12.24.06-.13a.24.24,0,0,1,.11-.08,1,1,0,0,1,.22-.05l.37,0,.39,0a.38.38,0,0,1,.2.08.2.2,0,0,1,.06.15,1.48,1.48,0,0,1-.07.26Z" transform="translate(-166.35 -218.07)"/><path class="cls-2" d="M225.7,492.74a.21.21,0,0,1,0,.12.2.2,0,0,1-.11.09.72.72,0,0,1-.2.05,1.37,1.37,0,0,1-.31,0,1.42,1.42,0,0,1-.31,0,.81.81,0,0,1-.21-.05.24.24,0,0,1-.11-.09.21.21,0,0,1,0-.12V479.27a.19.19,0,0,1,0-.12.23.23,0,0,1,.12-.08l.2-.06.3,0,.31,0,.2.06a.24.24,0,0,1,.11.08.27.27,0,0,1,0,.12Z" transform="translate(-166.35 -218.07)"/><path class="cls-2" d="M238.46,492.72a.27.27,0,0,1,0,.13.18.18,0,0,1-.1.09.53.53,0,0,1-.21.06,1.72,1.72,0,0,1-.34,0h-.31a.65.65,0,0,1-.21-.07.35.35,0,0,1-.14-.13.69.69,0,0,1-.09-.21l-1.3-3.37c-.15-.38-.32-.74-.49-1.07a3.56,3.56,0,0,0-.62-.88,2.55,2.55,0,0,0-.88-.58,3.12,3.12,0,0,0-1.24-.22h-1.44v6.26a.21.21,0,0,1,0,.12.2.2,0,0,1-.11.09.72.72,0,0,1-.2.05,1.37,1.37,0,0,1-.31,0,1.42,1.42,0,0,1-.31,0,.81.81,0,0,1-.21-.05.18.18,0,0,1-.1-.09.16.16,0,0,1,0-.12v-13a.61.61,0,0,1,.21-.53.72.72,0,0,1,.39-.14H233l.85,0,.62.07a4.76,4.76,0,0,1,1.38.46,3,3,0,0,1,1.56,1.8,4.08,4.08,0,0,1,.18,1.24,3.69,3.69,0,0,1-.19,1.23,2.89,2.89,0,0,1-.55.95,3.31,3.31,0,0,1-.85.72,5.34,5.34,0,0,1-1.08.5,3,3,0,0,1,.64.4,3.18,3.18,0,0,1,.52.57,4.36,4.36,0,0,1,.46.77c.14.29.29.61.43,1l1.3,3.24c.09.25.15.42.18.52A1.06,1.06,0,0,1,238.46,492.72Zm-2.31-9.93a2.76,2.76,0,0,0-.39-1.51,2.23,2.23,0,0,0-1.33-.89,3.57,3.57,0,0,0-.68-.12,8.28,8.28,0,0,0-1,0h-1.72v5.1h2a4.39,4.39,0,0,0,1.39-.2,2.79,2.79,0,0,0,1-.54,2.15,2.15,0,0,0,.56-.81A2.68,2.68,0,0,0,236.15,482.79Z" transform="translate(-166.35 -218.07)"/><path class="cls-2" d="M252.44,485.85a11.21,11.21,0,0,1-.38,3,6.54,6.54,0,0,1-1.15,2.3,4.92,4.92,0,0,1-1.92,1.46,7.37,7.37,0,0,1-5.36,0,4.63,4.63,0,0,1-1.83-1.4,5.75,5.75,0,0,1-1.05-2.21,11.69,11.69,0,0,1-.34-3,10.9,10.9,0,0,1,.37-3,6.31,6.31,0,0,1,1.15-2.27,5.07,5.07,0,0,1,1.92-1.46,6.69,6.69,0,0,1,2.71-.51,6.6,6.6,0,0,1,2.63.48,4.83,4.83,0,0,1,1.83,1.38,6,6,0,0,1,1.07,2.2A11.21,11.21,0,0,1,252.44,485.85ZM251,486a10.65,10.65,0,0,0-.23-2.31,5.38,5.38,0,0,0-.76-1.88,3.82,3.82,0,0,0-1.41-1.26,4.78,4.78,0,0,0-2.18-.45,4.65,4.65,0,0,0-2.18.47,4.07,4.07,0,0,0-1.44,1.29,5.31,5.31,0,0,0-.79,1.88,10.3,10.3,0,0,0-.24,2.26,11.62,11.62,0,0,0,.22,2.36,5.28,5.28,0,0,0,.74,1.9,3.58,3.58,0,0,0,1.41,1.26,4.69,4.69,0,0,0,2.2.46,4.56,4.56,0,0,0,2.2-.49,4,4,0,0,0,1.44-1.31,5.49,5.49,0,0,0,.79-1.9A11.15,11.15,0,0,0,251,486Z" transform="translate(-166.35 -218.07)"/><path class="cls-2" d="M265.63,492.32a.81.81,0,0,1-.06.33.8.8,0,0,1-.15.21.56.56,0,0,1-.2.11l-.21,0h-.27a1.6,1.6,0,0,1-.39-.05,1.09,1.09,0,0,1-.35-.19,2,2,0,0,1-.33-.36,6.76,6.76,0,0,1-.37-.58l-4.9-8.68c-.24-.42-.49-.86-.73-1.31s-.49-.88-.71-1.3h0c0,.52,0,1.06,0,1.61v10.6a.21.21,0,0,1,0,.12.2.2,0,0,1-.11.09.72.72,0,0,1-.2.05,1.37,1.37,0,0,1-.31,0,1.42,1.42,0,0,1-.31,0,.81.81,0,0,1-.21-.05.24.24,0,0,1-.11-.09.21.21,0,0,1,0-.12v-13a.61.61,0,0,1,.21-.53.69.69,0,0,1,.39-.14h.54a1.74,1.74,0,0,1,.43,0,.89.89,0,0,1,.31.15,1.11,1.11,0,0,1,.28.29,5.11,5.11,0,0,1,.29.47l3.75,6.65.67,1.2.62,1.13.59,1.09c.2.36.4.72.59,1.08h0c0-.6,0-1.22,0-1.88v-10a.21.21,0,0,1,0-.12.2.2,0,0,1,.11-.09.52.52,0,0,1,.2-.06h.62a.52.52,0,0,1,.2.06.2.2,0,0,1,.11.09.16.16,0,0,1,0,.12Z" transform="translate(-166.35 -218.07)"/><path class="cls-2" d="M284.22,492.74a.21.21,0,0,1,0,.12.2.2,0,0,1-.11.09l-.2.05a1.52,1.52,0,0,1-.32,0,1.37,1.37,0,0,1-.3,0A.81.81,0,0,1,283,493a.18.18,0,0,1-.1-.09.21.21,0,0,1,0-.12V480.21h0l-5.46,12.61-.07.08a.34.34,0,0,1-.12.06l-.17.05h-.5a.65.65,0,0,1-.18-.05.23.23,0,0,1-.11-.06.21.21,0,0,1-.06-.08L271,480.21h0v12.53a.21.21,0,0,1,0,.12.2.2,0,0,1-.11.09.93.93,0,0,1-.21.05,1.47,1.47,0,0,1-.32,0,1.37,1.37,0,0,1-.31,0l-.2-.05a.18.18,0,0,1-.1-.09.21.21,0,0,1,0-.12v-13a.61.61,0,0,1,.21-.53.69.69,0,0,1,.39-.14H271a1.75,1.75,0,0,1,.48.06,1.19,1.19,0,0,1,.36.17,1.11,1.11,0,0,1,.26.27,2.55,2.55,0,0,1,.19.37l4.59,11h.05l4.78-11a2.13,2.13,0,0,1,.23-.43,1.51,1.51,0,0,1,.26-.29.89.89,0,0,1,.29-.15,1.27,1.27,0,0,1,.34,0h.78l.21,0a.52.52,0,0,1,.19.11.68.68,0,0,1,.21.53Z" transform="translate(-166.35 -218.07)"/><path class="cls-2" d="M295.73,492.38a1.66,1.66,0,0,1,0,.24.69.69,0,0,1-.07.19.29.29,0,0,1-.11.11.25.25,0,0,1-.14,0h-6.51a.69.69,0,0,1-.4-.15.59.59,0,0,1-.2-.53V479.73a.61.61,0,0,1,.2-.53.75.75,0,0,1,.4-.14h6.41a.32.32,0,0,1,.14,0,.43.43,0,0,1,.11.12.47.47,0,0,1,.06.19,1.64,1.64,0,0,1,0,.51.38.38,0,0,1-.06.17.29.29,0,0,1-.11.11.23.23,0,0,1-.14,0h-5.7v4.89h4.92l.15,0a.27.27,0,0,1,.1.11.75.75,0,0,1,.07.18,2.13,2.13,0,0,1,0,.27,1.66,1.66,0,0,1,0,.24.67.67,0,0,1-.07.17.22.22,0,0,1-.1.09.4.4,0,0,1-.15,0h-4.92v5.55h5.8a.25.25,0,0,1,.14,0,.35.35,0,0,1,.11.1.75.75,0,0,1,.07.18A2.13,2.13,0,0,1,295.73,492.38Z" transform="translate(-166.35 -218.07)"/><path class="cls-2" d="M309,492.32a.81.81,0,0,1-.06.33.8.8,0,0,1-.15.21.53.53,0,0,1-.21.11l-.2,0h-.27a1.48,1.48,0,0,1-.39-.05,1.09,1.09,0,0,1-.35-.19,2,2,0,0,1-.33-.36,5,5,0,0,1-.37-.58l-4.9-8.68-.74-1.31c-.24-.44-.48-.88-.7-1.3h0c0,.52,0,1.06,0,1.61v10.6a.21.21,0,0,1,0,.12.2.2,0,0,1-.11.09l-.2.05a2.49,2.49,0,0,1-.63,0l-.2-.05a.2.2,0,0,1-.11-.09.21.21,0,0,1,0-.12v-13a.64.64,0,0,1,.2-.53.75.75,0,0,1,.4-.14h.54a1.8,1.8,0,0,1,.43,0,.89.89,0,0,1,.31.15,1.1,1.1,0,0,1,.27.29,4.94,4.94,0,0,1,.3.47l3.75,6.65.67,1.2.62,1.13.59,1.09.59,1.08h0c0-.6,0-1.22,0-1.88v-10a.21.21,0,0,1,0-.12.2.2,0,0,1,.11-.09.47.47,0,0,1,.2-.06h.61a.53.53,0,0,1,.21.06.2.2,0,0,1,.11.09.16.16,0,0,1,0,.12Z" transform="translate(-166.35 -218.07)"/><path class="cls-2" d="M321.49,479.66a2,2,0,0,1,0,.25.56.56,0,0,1-.06.17.29.29,0,0,1-.11.11.25.25,0,0,1-.14,0H317v12.51a.21.21,0,0,1,0,.12.2.2,0,0,1-.11.09l-.2.05a1.47,1.47,0,0,1-.31,0,1.52,1.52,0,0,1-.32,0l-.2-.05a.2.2,0,0,1-.11-.09.21.21,0,0,1,0-.12V480.23h-4.15a.23.23,0,0,1-.14,0,.27.27,0,0,1-.1-.11.54.54,0,0,1-.07-.17,2,2,0,0,1,0-.25,1.84,1.84,0,0,1,0-.26.69.69,0,0,1,.07-.19.4.4,0,0,1,.1-.12.32.32,0,0,1,.14,0h9.61a.35.35,0,0,1,.14,0,.43.43,0,0,1,.11.12.71.71,0,0,1,.06.19A1.84,1.84,0,0,1,321.49,479.66Z" transform="translate(-166.35 -218.07)"/><path class="cls-2" d="M335.71,479.66a1,1,0,0,1,0,.25.29.29,0,0,1-.07.17.29.29,0,0,1-.11.11.23.23,0,0,1-.14,0H330v5.26h5.1a.32.32,0,0,1,.14,0,.31.31,0,0,1,.11.09.29.29,0,0,1,.07.17,1.06,1.06,0,0,1,0,.27,1,1,0,0,1,0,.25.36.36,0,0,1-.07.18.35.35,0,0,1-.11.1.23.23,0,0,1-.14,0H330v6.12a.21.21,0,0,1,0,.12.24.24,0,0,1-.11.09l-.2.05a2.49,2.49,0,0,1-.63,0l-.2-.05a.2.2,0,0,1-.11-.09.21.21,0,0,1,0-.12v-13a.64.64,0,0,1,.2-.53.75.75,0,0,1,.4-.14h6.09a.32.32,0,0,1,.14,0,.43.43,0,0,1,.11.12.36.36,0,0,1,.07.19A1,1,0,0,1,335.71,479.66Z" transform="translate(-166.35 -218.07)"/><path class="cls-2" d="M347.5,492.72a.28.28,0,0,1,0,.13.18.18,0,0,1-.1.09.53.53,0,0,1-.21.06,1.67,1.67,0,0,1-.34,0h-.31a.52.52,0,0,1-.2-.07.29.29,0,0,1-.14-.13.69.69,0,0,1-.1-.21l-1.3-3.37c-.15-.38-.31-.74-.48-1.07a3.59,3.59,0,0,0-.63-.88,2.46,2.46,0,0,0-.88-.58,3,3,0,0,0-1.23-.22h-1.44v6.26a.21.21,0,0,1,0,.12.24.24,0,0,1-.11.09l-.2.05a2.49,2.49,0,0,1-.63,0,.72.72,0,0,1-.2-.05.2.2,0,0,1-.11-.09.21.21,0,0,1,0-.12v-13a.64.64,0,0,1,.2-.53.75.75,0,0,1,.4-.14H342l.85,0,.62.07a4.94,4.94,0,0,1,1.39.46,3.09,3.09,0,0,1,1,.76,3.13,3.13,0,0,1,.58,1,4.08,4.08,0,0,1,.19,1.24,3.69,3.69,0,0,1-.2,1.23,3.05,3.05,0,0,1-.54.95,3.49,3.49,0,0,1-.85.72,5.18,5.18,0,0,1-1.09.5,2.77,2.77,0,0,1,.64.4,3.22,3.22,0,0,1,.53.57,5,5,0,0,1,.45.77,10,10,0,0,1,.43,1l1.3,3.24a3.61,3.61,0,0,1,.18.52A.68.68,0,0,1,347.5,492.72Zm-2.31-9.93a2.68,2.68,0,0,0-.4-1.51,2.2,2.2,0,0,0-1.33-.89,3.43,3.43,0,0,0-.68-.12,8.2,8.2,0,0,0-.95,0h-1.72v5.1h2a4.37,4.37,0,0,0,1.38-.2,2.62,2.62,0,0,0,1-.54,2,2,0,0,0,.56-.81A2.68,2.68,0,0,0,345.19,482.79Z" transform="translate(-166.35 -218.07)"/><path class="cls-2" d="M351.82,492.74a.16.16,0,0,1,0,.12.18.18,0,0,1-.1.09l-.2.05a2.49,2.49,0,0,1-.63,0,.72.72,0,0,1-.2-.05.2.2,0,0,1-.11-.09.21.21,0,0,1,0-.12V479.27a.27.27,0,0,1,0-.12.36.36,0,0,1,.12-.08l.21-.06.29,0,.32,0,.2.06a.21.21,0,0,1,.1.08.19.19,0,0,1,0,.12Z" transform="translate(-166.35 -218.07)"/><path class="cls-2" d="M363.33,492.38a.9.9,0,0,1,0,.24.47.47,0,0,1-.07.19.29.29,0,0,1-.11.11.25.25,0,0,1-.14,0h-6.51a.69.69,0,0,1-.4-.15.61.61,0,0,1-.2-.53V479.73a.64.64,0,0,1,.2-.53.75.75,0,0,1,.4-.14h6.41a.32.32,0,0,1,.14,0,.43.43,0,0,1,.11.12.47.47,0,0,1,.06.19,1.64,1.64,0,0,1,0,.51.38.38,0,0,1-.06.17.29.29,0,0,1-.11.11.23.23,0,0,1-.14,0h-5.7v4.89h4.92a.37.37,0,0,1,.15,0,.38.38,0,0,1,.11.11.76.76,0,0,1,.06.18,2.13,2.13,0,0,1,0,.27,1.66,1.66,0,0,1,0,.24.67.67,0,0,1-.06.17.31.31,0,0,1-.11.09.37.37,0,0,1-.15,0h-4.92v5.55H363a.25.25,0,0,1,.14,0,.35.35,0,0,1,.11.1.48.48,0,0,1,.07.18A1.14,1.14,0,0,1,363.33,492.38Z" transform="translate(-166.35 -218.07)"/><path class="cls-2" d="M376.61,492.32a.81.81,0,0,1-.06.33.8.8,0,0,1-.15.21.56.56,0,0,1-.2.11l-.21,0h-.27a1.48,1.48,0,0,1-.39-.05,1.09,1.09,0,0,1-.35-.19,2,2,0,0,1-.33-.36,5,5,0,0,1-.37-.58l-4.9-8.68-.74-1.31c-.24-.44-.48-.88-.7-1.3h0c0,.52,0,1.06,0,1.61v10.6a.21.21,0,0,1,0,.12.2.2,0,0,1-.11.09l-.2.05a1.42,1.42,0,0,1-.31,0,1.52,1.52,0,0,1-.32,0l-.2-.05a.2.2,0,0,1-.11-.09.21.21,0,0,1,0-.12v-13a.64.64,0,0,1,.2-.53.75.75,0,0,1,.4-.14h.54a1.8,1.8,0,0,1,.43,0,.89.89,0,0,1,.31.15,1.1,1.1,0,0,1,.27.29,4.94,4.94,0,0,1,.3.47l3.75,6.65.67,1.2.62,1.13.59,1.09c.2.36.4.72.59,1.08h0c0-.6,0-1.22,0-1.88v-10a.21.21,0,0,1,0-.12.2.2,0,0,1,.11-.09.47.47,0,0,1,.2-.06h.61a.53.53,0,0,1,.21.06.2.2,0,0,1,.11.09.16.16,0,0,1,0,.12Z" transform="translate(-166.35 -218.07)"/><path class="cls-2" d="M390.89,485.8a10,10,0,0,1-.44,3.09,6,6,0,0,1-1.3,2.24A5.55,5.55,0,0,1,387,492.5a8.94,8.94,0,0,1-3,.46h-2.74a.69.69,0,0,1-.4-.15.61.61,0,0,1-.2-.53V479.73a.64.64,0,0,1,.2-.53.75.75,0,0,1,.4-.14h2.92a8.14,8.14,0,0,1,3,.48,5.48,5.48,0,0,1,2.05,1.37,5.92,5.92,0,0,1,1.24,2.13A8.55,8.55,0,0,1,390.89,485.8Zm-1.41.07a7.7,7.7,0,0,0-.31-2.25,4.86,4.86,0,0,0-.94-1.79,4.53,4.53,0,0,0-1.62-1.18,6.34,6.34,0,0,0-2.49-.42H382v11.56h2.15a7.33,7.33,0,0,0,2.4-.35,3.93,3.93,0,0,0,1.64-1.08,4.83,4.83,0,0,0,1-1.84A9.45,9.45,0,0,0,389.48,485.87Z" transform="translate(-166.35 -218.07)"/><path class="cls-2" d="M401,492.36a.94.94,0,0,1,0,.25.47.47,0,0,1-.06.19.26.26,0,0,1-.11.12.24.24,0,0,1-.15,0h-6a.66.66,0,0,1-.39-.15.59.59,0,0,1-.21-.53v-13a.27.27,0,0,1,0-.12.31.31,0,0,1,.11-.08l.21-.06.31,0,.31,0,.2.06a.24.24,0,0,1,.11.08.27.27,0,0,1,0,.12v12.5h5.32a.33.33,0,0,1,.15,0,.38.38,0,0,1,.11.11.48.48,0,0,1,.06.18A1.14,1.14,0,0,1,401,492.36Z" transform="translate(-166.35 -218.07)"/><path class="cls-2" d="M405.31,487.48v5.26a.21.21,0,0,1,0,.12.2.2,0,0,1-.11.09l-.2.05a2.49,2.49,0,0,1-.63,0l-.2-.05a.19.19,0,0,1-.12-.09.21.21,0,0,1,0-.12v-5.26l-4-8a1.15,1.15,0,0,1-.09-.26.17.17,0,0,1,0-.15.38.38,0,0,1,.2-.08l.35,0,.38,0a1.11,1.11,0,0,1,.24.05.32.32,0,0,1,.13.08l.09.13,2.13,4.33c.2.41.4.83.59,1.27l.6,1.32h0l.57-1.28c.19-.43.39-.85.59-1.28l2.15-4.36a.54.54,0,0,1,.07-.13.36.36,0,0,1,.12-.08l.2-.05.31,0,.42,0a.6.6,0,0,1,.22.08.18.18,0,0,1,.05.16.59.59,0,0,1-.08.25Z" transform="translate(-166.35 -218.07)"/><path class="cls-2" d="M258,518.92a.78.78,0,0,1,.06.26.19.19,0,0,1-.08.16.43.43,0,0,1-.21.07H257a.81.81,0,0,1-.21,0,.2.2,0,0,1-.11-.09.4.4,0,0,1-.07-.13l-1.34-3.7h-6.1l-1.27,3.68a.54.54,0,0,1-.07.13.27.27,0,0,1-.12.09.53.53,0,0,1-.21.06,1.67,1.67,0,0,1-.34,0,2,2,0,0,1-.37,0,.47.47,0,0,1-.22-.07.22.22,0,0,1-.08-.15.78.78,0,0,1,.06-.26l4.87-13.23a.33.33,0,0,1,.1-.14.35.35,0,0,1,.16-.09l.25,0,.33,0,.34,0,.24,0a.35.35,0,0,1,.16.09.42.42,0,0,1,.09.14Zm-5.77-12h0l-2.62,7.47h5.32Z" transform="translate(-166.35 -218.07)"/><path class="cls-2" d="M268.49,509.44a4.66,4.66,0,0,1-.33,1.78,4,4,0,0,1-.94,1.38,4.22,4.22,0,0,1-1.49.9,6.11,6.11,0,0,1-2.13.33h-1.8v5.31a.21.21,0,0,1,0,.12.18.18,0,0,1-.1.09l-.2,0a1.52,1.52,0,0,1-.32,0,1.42,1.42,0,0,1-.31,0,.81.81,0,0,1-.21,0,.18.18,0,0,1-.1-.09.21.21,0,0,1,0-.12v-13a.61.61,0,0,1,.21-.53.72.72,0,0,1,.4-.14h2.82a7.38,7.38,0,0,1,.82,0,5.67,5.67,0,0,1,.93.16,3.54,3.54,0,0,1,1.08.46,3.4,3.4,0,0,1,.94.83,3.49,3.49,0,0,1,.6,1.11A4.34,4.34,0,0,1,268.49,509.44Zm-1.39.12a3.15,3.15,0,0,0-.35-1.53,2.46,2.46,0,0,0-.87-.93,2.68,2.68,0,0,0-1.06-.39,7.9,7.9,0,0,0-1.05-.08h-2v6h1.89a4.22,4.22,0,0,0,1.52-.24,2.88,2.88,0,0,0,1-.63,2.77,2.77,0,0,0,.64-1A3.39,3.39,0,0,0,267.1,509.56Z" transform="translate(-166.35 -218.07)"/><path class="cls-2" d="M279.66,509.44a4.66,4.66,0,0,1-.33,1.78,4,4,0,0,1-.94,1.38,4.13,4.13,0,0,1-1.49.9,6.11,6.11,0,0,1-2.13.33H273v5.31a.21.21,0,0,1,0,.12.24.24,0,0,1-.11.09l-.2,0a2.49,2.49,0,0,1-.63,0,.72.72,0,0,1-.2,0,.2.2,0,0,1-.11-.09.21.21,0,0,1,0-.12v-13a.64.64,0,0,1,.2-.53.75.75,0,0,1,.4-.14h2.82a7.27,7.27,0,0,1,.82,0,5.67,5.67,0,0,1,.93.16,3.44,3.44,0,0,1,1.08.46,3.27,3.27,0,0,1,.94.83,3.49,3.49,0,0,1,.6,1.11A4.34,4.34,0,0,1,279.66,509.44Zm-1.39.12a3,3,0,0,0-.35-1.53,2.38,2.38,0,0,0-.87-.93,2.68,2.68,0,0,0-1.06-.39,7.9,7.9,0,0,0-1.05-.08h-2v6h1.89a4.14,4.14,0,0,0,1.52-.24,2.8,2.8,0,0,0,1-.63,2.65,2.65,0,0,0,.64-1A3.39,3.39,0,0,0,278.27,509.56Z" transform="translate(-166.35 -218.07)"/><path class="cls-2" d="M291.53,519.12a.28.28,0,0,1,0,.13.18.18,0,0,1-.1.09.53.53,0,0,1-.21.06,1.67,1.67,0,0,1-.34,0h-.3a.58.58,0,0,1-.21-.07.29.29,0,0,1-.14-.13.69.69,0,0,1-.1-.21l-1.3-3.37c-.15-.38-.31-.74-.48-1.07a3.35,3.35,0,0,0-.63-.88,2.46,2.46,0,0,0-.88-.58,3,3,0,0,0-1.23-.22h-1.44v6.26a.21.21,0,0,1,0,.12.2.2,0,0,1-.11.09l-.2,0a2.49,2.49,0,0,1-.63,0l-.2,0a.2.2,0,0,1-.11-.09.21.21,0,0,1,0-.12v-13a.64.64,0,0,1,.2-.53.75.75,0,0,1,.4-.14H286c.34,0,.63,0,.85,0s.44,0,.62.06a4.94,4.94,0,0,1,1.39.46,3,3,0,0,1,1.55,1.8,3.79,3.79,0,0,1,.19,1.24,3.69,3.69,0,0,1-.2,1.23,2.87,2.87,0,0,1-.54,1,3.49,3.49,0,0,1-.85.72,5.18,5.18,0,0,1-1.09.5,2.77,2.77,0,0,1,.64.4,3.22,3.22,0,0,1,.53.57,6,6,0,0,1,.46.77c.14.29.28.61.43,1l1.29,3.24a4.09,4.09,0,0,1,.18.52A.68.68,0,0,1,291.53,519.12Zm-2.31-9.93a2.68,2.68,0,0,0-.4-1.51,2.2,2.2,0,0,0-1.33-.89,3.43,3.43,0,0,0-.68-.12,8.2,8.2,0,0,0-.95,0h-1.72v5.1h2a4.06,4.06,0,0,0,1.38-.2,2.62,2.62,0,0,0,1-.54,2,2,0,0,0,.56-.81A2.68,2.68,0,0,0,289.22,509.19Z" transform="translate(-166.35 -218.07)"/><path class="cls-2" d="M305.51,512.25a10.81,10.81,0,0,1-.39,3,6.36,6.36,0,0,1-1.14,2.3,5.19,5.19,0,0,1-1.92,1.47,6.72,6.72,0,0,1-2.71.51,6.51,6.51,0,0,1-2.66-.49,4.7,4.7,0,0,1-1.83-1.39,6.18,6.18,0,0,1-1.05-2.22,12.16,12.16,0,0,1-.34-3,10.89,10.89,0,0,1,.38-3,6.14,6.14,0,0,1,1.14-2.27,5.18,5.18,0,0,1,1.93-1.46,6.65,6.65,0,0,1,2.71-.51,6.55,6.55,0,0,1,2.62.48,4.68,4.68,0,0,1,1.83,1.38,6,6,0,0,1,1.08,2.2A11.27,11.27,0,0,1,305.51,512.25Zm-1.4.12a11.33,11.33,0,0,0-.23-2.32,5.58,5.58,0,0,0-.76-1.88,3.85,3.85,0,0,0-1.42-1.26,4.73,4.73,0,0,0-2.18-.45,4.61,4.61,0,0,0-2.17.47,4.07,4.07,0,0,0-1.44,1.29,5.32,5.32,0,0,0-.8,1.88,10.33,10.33,0,0,0-.24,2.27,11.58,11.58,0,0,0,.22,2.35,5.48,5.48,0,0,0,.75,1.9,3.62,3.62,0,0,0,1.4,1.26,4.73,4.73,0,0,0,2.21.46,4.61,4.61,0,0,0,2.2-.49,4.12,4.12,0,0,0,1.44-1.31,5.48,5.48,0,0,0,.78-1.9A10.46,10.46,0,0,0,304.11,512.37Z" transform="translate(-166.35 -218.07)"/><path class="cls-2" d="M318.38,518.92a.56.56,0,0,1,.05.26.19.19,0,0,1-.07.16.52.52,0,0,1-.22.07h-.73a.81.81,0,0,1-.21,0,.24.24,0,0,1-.11-.09.76.76,0,0,1-.07-.13l-1.33-3.7h-6.1l-1.28,3.68-.06.13a.27.27,0,0,1-.12.09.53.53,0,0,1-.21.06,1.72,1.72,0,0,1-.34,0,2.12,2.12,0,0,1-.38,0,.52.52,0,0,1-.22-.07.21.21,0,0,1-.07-.15.48.48,0,0,1,.06-.26l4.86-13.23a.45.45,0,0,1,.1-.14.39.39,0,0,1,.17-.09l.24,0,.33,0,.34,0,.25,0a.36.36,0,0,1,.25.23Zm-5.77-12h0L310,514.34h5.32Z" transform="translate(-166.35 -218.07)"/><path class="cls-2" d="M329.89,517.47a1.34,1.34,0,0,1,0,.21c0,.07,0,.12,0,.17l-.06.14a.88.88,0,0,1-.14.17,3.26,3.26,0,0,1-.45.33,4.83,4.83,0,0,1-.86.46,7.69,7.69,0,0,1-1.2.39,6.88,6.88,0,0,1-1.49.16,5.88,5.88,0,0,1-2.38-.46,4.79,4.79,0,0,1-1.81-1.34,6.23,6.23,0,0,1-1.15-2.17,11,11,0,0,1,0-6,6.74,6.74,0,0,1,1.21-2.29,5.14,5.14,0,0,1,1.87-1.44,5.77,5.77,0,0,1,2.41-.5,6,6,0,0,1,1.21.12,7.67,7.67,0,0,1,1.08.3,4.79,4.79,0,0,1,.88.42,2.24,2.24,0,0,1,.54.38.71.71,0,0,1,.18.21.35.35,0,0,1,.06.14,1.06,1.06,0,0,1,0,.19c0,.06,0,.14,0,.23a2,2,0,0,1,0,.26.87.87,0,0,1-.05.19.48.48,0,0,1-.09.13.28.28,0,0,1-.13,0,.78.78,0,0,1-.43-.22,5.91,5.91,0,0,0-1.81-1,4.66,4.66,0,0,0-1.53-.22,4.13,4.13,0,0,0-1.8.39,3.88,3.88,0,0,0-1.4,1.16,5.68,5.68,0,0,0-.91,1.88,10.16,10.16,0,0,0,0,5,5.17,5.17,0,0,0,.87,1.81,3.69,3.69,0,0,0,1.41,1.13,4.45,4.45,0,0,0,1.9.38,4.64,4.64,0,0,0,1.52-.22,6.48,6.48,0,0,0,1.11-.48c.31-.18.56-.35.76-.49a.86.86,0,0,1,.45-.22l.11,0a.2.2,0,0,1,.07.1,1.67,1.67,0,0,1,.05.19C329.88,517.26,329.89,517.35,329.89,517.47Z" transform="translate(-166.35 -218.07)"/><path class="cls-2" d="M342.13,519.14a.16.16,0,0,1,0,.12.18.18,0,0,1-.1.09.81.81,0,0,1-.21,0,1.42,1.42,0,0,1-.31,0,1.52,1.52,0,0,1-.32,0,.64.64,0,0,1-.19,0,.2.2,0,0,1-.11-.09.21.21,0,0,1,0-.12v-6.47h-6.94v6.47a.16.16,0,0,1,0,.12.18.18,0,0,1-.1.09l-.2,0a2.49,2.49,0,0,1-.63,0,.64.64,0,0,1-.2,0,.2.2,0,0,1-.11-.09.21.21,0,0,1,0-.12V505.67a.27.27,0,0,1,0-.12.24.24,0,0,1,.11-.08.64.64,0,0,1,.2-.05,1.42,1.42,0,0,1,.31,0,1.39,1.39,0,0,1,.32,0l.2.05a.21.21,0,0,1,.1.08.19.19,0,0,1,0,.12v5.83h6.94v-5.83a.27.27,0,0,1,0-.12.24.24,0,0,1,.11-.08.64.64,0,0,1,.19-.05,1.45,1.45,0,0,1,.32,0,1.35,1.35,0,0,1,.31,0,.81.81,0,0,1,.21.05.21.21,0,0,1,.1.08.19.19,0,0,1,0,.12Z" transform="translate(-166.35 -218.07)"/></svg>
