<svg style="transform: rotate(90deg);" id="Réteg_1" data-name="Réteg 1" xmlns="http://www.w3.org/2000/svg" viewBox="0 0 21.42 18.61">
    <defs>
        <style>.cls-1{fill:#fff; opacity:0.8}</style>
    </defs>
    <path class="cls-1"
          d="M692.82,385.85l.09-.17.13-.23c0-.08,0-.16.07-.24l.06-.2a2.37,2.37,0,0,0,0-.92l-.06-.21c0-.08,0-.15-.07-.23l-.13-.23-.09-.17a3.47,3.47,0,0,0-.3-.37l-6.95-6.95a2.35,2.35,0,0,0-3.32,3.33l2.94,2.94H674.14a2.35,2.35,0,0,0,0,4.7h11.05l-2.94,2.94a2.35,2.35,0,0,0,3.32,3.33l6.95-7a2.6,2.6,0,0,0,.3-.36"
          transform="translate(-671.79 -375.25)"/>
</svg>