<svg id="Réteg_1" data-name="Réteg 1" xmlns="http://www.w3.org/2000/svg" viewBox="0 0 88.53 136.76"><defs><style>.cls-1{fill:#00575f;}.cls-2{fill:#fff;}</style></defs><rect class="cls-1" width="88.53" height="136.76" rx="44.27"/><path class="cls-2" d="M408.65,442.74a2.71,2.71,0,0,0-3.82,0l-4.71,5.84-2.24,2.79c-.27.33-.58.82-.93,1.28l-.2-.21-1.52-1.56c-2.43-2.5-6.25,1.32-3.82,3.82,1.25,1.28,2.53,3.08,4.23,3.76,1.86.75,3.51-.15,4.71-1.6,2.81-3.41,5.54-6.87,8.3-10.31A2.77,2.77,0,0,0,408.65,442.74Z" transform="translate(-355.73 -331.49)"/><circle class="cls-2" cx="44.27" cy="44.41" r="36.14"/><path class="cls-1" d="M414.53,364.39a14.57,14.57,0,0,0-29,0,12.11,12.11,0,0,0,2.26,24H396V387h-8.27a10.76,10.76,0,0,1-1.53-21.41l.56-.08,0-.55a13.22,13.22,0,0,1,26.4,0l0,.56.55.08a10.76,10.76,0,0,1-1.57,21.4h-8.72v1.35h8.72a12.11,12.11,0,0,0,2.3-24Z" transform="translate(-355.73 -331.49)"/><path class="cls-1" d="M405.58,371.71a.67.67,0,0,0,.15-.94.68.68,0,0,0-1-.14l-4.19,3.09,0-8.05a.67.67,0,0,0-.67-.67h0a.67.67,0,0,0-.67.68l.06,14.33-7.48-5.52a.67.67,0,1,0-.8,1.08l8.29,6.12.07,18.33a.67.67,0,0,0,.67.67h0a.68.68,0,0,0,.67-.68l-.1-24.62Z" transform="translate(-355.73 -331.49)"/><path class="cls-2" d="M365.35,424a.19.19,0,0,1,0,.08.08.08,0,0,1,0,.06.08.08,0,0,1,0,0H363a.22.22,0,0,1-.13,0,.21.21,0,0,1-.07-.18v-4.24a.18.18,0,0,1,.07-.17.18.18,0,0,1,.13-.05h2.21l0,0s0,0,0,.06,0,.06,0,.09,0,.06,0,.08,0,.05,0,.06l0,0h-2v1.65H365s0,0,0,0,0,0,0,.06v.17s0,0,0,.06l0,0h-1.71v1.87h2a.08.08,0,0,1,0,0,.08.08,0,0,1,0,.06A.25.25,0,0,1,365.35,424Zm4.48,0a.36.36,0,0,1,0,.11.18.18,0,0,1-.05.07l-.07,0h-.16l-.13,0a.34.34,0,0,1-.12-.06.65.65,0,0,1-.11-.12,2.36,2.36,0,0,1-.13-.2l-1.65-2.93-.25-.44c-.08-.15-.16-.29-.23-.44h0c0,.18,0,.36,0,.54v3.58s0,0,0,0l0,0-.07,0h-.21l-.07,0,0,0s0,0,0,0v-4.39a.21.21,0,0,1,.07-.17.2.2,0,0,1,.14-.05H367l.11.05a.45.45,0,0,1,.09.1l.1.16,1.26,2.24.23.41.21.38.2.36.2.37h0v-4a.08.08,0,0,1,0,0l0,0,.07,0h.21l.07,0,0,0a.08.08,0,0,1,0,0Zm3,.13,0,.05a.07.07,0,0,1-.06,0l-.08,0h-.26l-.05,0h0l0,0s0,0,0,0l-1.61-4.46a.31.31,0,0,1,0-.08.07.07,0,0,1,0-.06l.07,0H371l.06,0s0,0,0,0a.05.05,0,0,1,0,0l1.46,4.13h0l1.42-4.13a.05.05,0,0,1,0,0,0,0,0,0,1,0,0l.08,0h.25s.06,0,.07,0a.08.08,0,0,1,0,.05.31.31,0,0,1,0,.08Zm2.9,0s0,0,0,0l0,0-.07,0h-.21l-.07,0,0,0s0,0,0,0v-4.54s0,0,0,0l0,0,.07,0h.21l.07,0,0,0s0,0,0,0Zm4.31,0a.43.43,0,0,1,0,.05l0,0-.07,0h-.21l-.07,0-.05,0a.19.19,0,0,1,0-.08l-.44-1.13c-.05-.13-.11-.25-.17-.37a.86.86,0,0,0-.21-.29,1,1,0,0,0-.29-.2,1.09,1.09,0,0,0-.42-.07h-.49v2.11s0,0,0,0l0,0-.07,0h-.21l-.07,0,0,0s0,0,0,0v-4.39a.21.21,0,0,1,.07-.17.2.2,0,0,1,.14-.05h1.16l.21,0a1.53,1.53,0,0,1,.47.15,1.23,1.23,0,0,1,.33.26.92.92,0,0,1,.19.35,1.16,1.16,0,0,1,.07.42,1.3,1.3,0,0,1-.07.41.92.92,0,0,1-.18.32,1,1,0,0,1-.29.24,1.4,1.4,0,0,1-.37.17,1.18,1.18,0,0,1,.22.14,1.66,1.66,0,0,1,.18.19,3,3,0,0,1,.15.26l.15.33.43,1.09a.52.52,0,0,1,.06.18Zm-.78-3.35a.93.93,0,0,0-.14-.51.73.73,0,0,0-.44-.29l-.23-.05h-.91v1.72h.68a1.33,1.33,0,0,0,.47-.07.83.83,0,0,0,.32-.18.7.7,0,0,0,.19-.27A.93.93,0,0,0,379.28,420.77Zm5.49,1a3.53,3.53,0,0,1-.13,1,2.11,2.11,0,0,1-.38.78,1.75,1.75,0,0,1-.65.49,2.43,2.43,0,0,1-1.81,0,1.62,1.62,0,0,1-.62-.47,1.86,1.86,0,0,1-.35-.75,3.73,3.73,0,0,1-.12-1,3.85,3.85,0,0,1,.13-1,1.93,1.93,0,0,1,.39-.77,1.64,1.64,0,0,1,.64-.49,2.19,2.19,0,0,1,.92-.18,2.16,2.16,0,0,1,.88.17,1.53,1.53,0,0,1,.62.47,2,2,0,0,1,.36.73A3.73,3.73,0,0,1,384.77,421.81Zm-.47,0a4,4,0,0,0-.08-.79,1.78,1.78,0,0,0-.26-.63,1.13,1.13,0,0,0-.47-.42,1.53,1.53,0,0,0-.74-.16,1.61,1.61,0,0,0-.73.16,1.48,1.48,0,0,0-.49.44,1.78,1.78,0,0,0-.26.63,3.19,3.19,0,0,0-.09.77,3.91,3.91,0,0,0,.08.79,1.75,1.75,0,0,0,.25.64,1.39,1.39,0,0,0,.47.43,1.67,1.67,0,0,0,.75.15,1.53,1.53,0,0,0,.74-.16,1.41,1.41,0,0,0,.49-.45,1.83,1.83,0,0,0,.26-.64A3.77,3.77,0,0,0,384.3,421.85Zm4.92,2.14a.36.36,0,0,1,0,.11.18.18,0,0,1-.05.07l-.07,0h-.16l-.13,0a.34.34,0,0,1-.12-.06.65.65,0,0,1-.11-.12,2.36,2.36,0,0,1-.13-.2l-1.65-2.93-.25-.44c-.08-.15-.16-.29-.23-.44h0c0,.18,0,.36,0,.54v3.58s0,0,0,0l0,0-.07,0H386l-.07,0,0,0s0,0,0,0v-4.39a.21.21,0,0,1,.07-.17.2.2,0,0,1,.14-.05h.32l.11.05a.45.45,0,0,1,.09.1l.1.16,1.26,2.24.23.41.21.38.2.36.2.37h0v-4a.08.08,0,0,1,0,0l0,0,.07,0h.21l.07,0,0,0a.08.08,0,0,1,0,0Zm6.27.14s0,0,0,0l0,0-.07,0h-.21l-.07,0,0,0s0,0,0,0V419.9h0l-1.85,4.26,0,0,0,0h-.29l0,0,0,0L391,419.9h0v4.23s0,0,0,0l0,0-.07,0h-.21l-.07,0,0,0s0,0,0,0v-4.39a.18.18,0,0,1,.07-.17.18.18,0,0,1,.13-.05H391a.41.41,0,0,1,.16,0,.33.33,0,0,1,.12,0,.28.28,0,0,1,.09.1.63.63,0,0,1,.07.12l1.54,3.72h0l1.61-3.71c0-.05.05-.1.08-.14l.09-.1.1-.05h.44a.1.1,0,0,1,.07,0s0,0,.05.07a.25.25,0,0,1,0,.1Zm3.88-.12a.19.19,0,0,1,0,.08.08.08,0,0,1,0,.06.08.08,0,0,1,0,0h-2.24a.22.22,0,0,1-.13,0,.21.21,0,0,1-.07-.18v-4.24a.18.18,0,0,1,.07-.17.18.18,0,0,1,.13-.05h2.21l0,0s0,0,0,.06,0,.06,0,.09,0,.06,0,.08,0,.05,0,.06l0,0h-2v1.65H399s0,0,0,0l0,.06v.17a.14.14,0,0,0,0,.06l0,0H397.3v1.87h2a.08.08,0,0,1,0,0,.08.08,0,0,1,0,.06A.25.25,0,0,1,399.37,424Zm4.48,0a.36.36,0,0,1,0,.11.18.18,0,0,1-.05.07l-.07,0h-.16l-.13,0a.34.34,0,0,1-.12-.06.65.65,0,0,1-.11-.12,2.36,2.36,0,0,1-.13-.2l-1.65-2.93-.25-.44c-.08-.15-.16-.29-.23-.44h0c0,.18,0,.36,0,.54v3.58a.05.05,0,0,1,0,0l0,0-.07,0h-.21l-.07,0,0,0s0,0,0,0v-4.39a.21.21,0,0,1,.07-.17.2.2,0,0,1,.14-.05H401l.11.05a.45.45,0,0,1,.09.1l.1.16,1.26,2.24.23.41.21.38.2.36.2.37h0v-4a.08.08,0,0,1,0,0l0,0,.07,0h.21l.07,0,0,0s0,0,0,0Zm4.21-4.27a.19.19,0,0,1,0,.08.08.08,0,0,1,0,.06l0,0h-1.44v4.22s0,0,0,0l0,0-.07,0h-.21l-.07,0,0,0s0,0,0,0v-4.22h-1.45l0,0,0-.06v-.17l0-.06,0,0H408l0,0a.11.11,0,0,1,0,.06A.28.28,0,0,1,408.06,419.72Zm4.8,0s0,.06,0,.08,0,.05,0,.06l0,0h-1.87v1.78h1.77s0,0,0,0a.08.08,0,0,1,0,0,.28.28,0,0,1,0,.09.25.25,0,0,1,0,.09.14.14,0,0,1,0,.06s0,0,0,0l0,0h-1.73v2.06s0,0,0,0l0,0-.07,0h-.21l-.07,0,0,0s0,0,0,0v-4.39a.21.21,0,0,1,.07-.17.2.2,0,0,1,.14-.05h2.1l0,0s0,0,0,.06S412.86,419.69,412.86,419.72Zm4,4.4a.07.07,0,0,1,0,.05l0,0-.07,0h-.22l-.07,0-.05,0,0-.08-.44-1.13c-.05-.13-.1-.25-.16-.37a1.27,1.27,0,0,0-.21-.29,1,1,0,0,0-.3-.2,1.09,1.09,0,0,0-.42-.07h-.48v2.11s0,0,0,0l0,0-.07,0H414l-.07,0,0,0s0,0,0,0v-4.39a.21.21,0,0,1,.06-.17.22.22,0,0,1,.14-.05h1.17l.21,0a1.55,1.55,0,0,1,.46.15,1,1,0,0,1,.33.26,1.1,1.1,0,0,1,.2.35,1.42,1.42,0,0,1,.06.42,1.07,1.07,0,0,1-.07.41.92.92,0,0,1-.18.32,1,1,0,0,1-.29.24,1.49,1.49,0,0,1-.36.17,1.1,1.1,0,0,1,.21.14.81.81,0,0,1,.18.19,1.1,1.1,0,0,1,.15.26q.07.15.15.33l.44,1.09c0,.09.05.14.06.18A.18.18,0,0,1,416.83,424.12Zm-.78-3.35a.92.92,0,0,0-.13-.51.79.79,0,0,0-.45-.29l-.23-.05h-.9v1.72H415a1.33,1.33,0,0,0,.47-.07.77.77,0,0,0,.32-.18.7.7,0,0,0,.19-.27A.93.93,0,0,0,416.05,420.77Zm2.24,3.36s0,0,0,0l0,0-.07,0H418l-.07,0,0,0a.05.05,0,0,1,0,0v-4.54a.05.05,0,0,1,0,0l0,0,.07,0h.2l.07,0,0,0s0,0,0,0Zm3.88-.12a.19.19,0,0,1,0,.08.08.08,0,0,1,0,.06.08.08,0,0,1,0,0h-2.24a.22.22,0,0,1-.13,0,.21.21,0,0,1-.07-.18v-4.24a.18.18,0,0,1,.07-.17.18.18,0,0,1,.13-.05h2.21l0,0,0,.06v.17l0,.06,0,0h-2v1.65h1.71l0,0a.16.16,0,0,1,0,.06v.17l0,.06,0,0H420.1v1.87h2a.08.08,0,0,1,0,0,.08.08,0,0,1,0,.06A.25.25,0,0,1,422.17,424Zm4.48,0a.36.36,0,0,1,0,.11.18.18,0,0,1-.05.07l-.07,0h-.16l-.13,0a.34.34,0,0,1-.12-.06A.43.43,0,0,1,426,424a2.36,2.36,0,0,1-.13-.2l-1.65-2.93-.25-.44-.24-.44h0v4.12s0,0,0,0l0,0-.07,0h-.21l-.07,0,0,0s0,0,0,0v-4.39a.21.21,0,0,1,.07-.17.2.2,0,0,1,.14-.05h.32l.11.05a.45.45,0,0,1,.09.1l.1.16,1.26,2.24.23.41.21.38.2.36.2.37h0v-4a.08.08,0,0,1,0,0l0,0,.07,0h.21l.07,0,0,0s0,0,0,0Zm4.81-2.2a3.59,3.59,0,0,1-.14,1,2,2,0,0,1-.44.76,2.07,2.07,0,0,1-.72.46,3,3,0,0,1-1,.15h-.92a.22.22,0,0,1-.13,0A.21.21,0,0,1,428,424v-4.24a.18.18,0,0,1,.07-.17.18.18,0,0,1,.13-.05h1a2.74,2.74,0,0,1,1,.16,1.82,1.82,0,0,1,.68.46,1.85,1.85,0,0,1,.42.72A2.75,2.75,0,0,1,431.46,421.79Zm-.47,0a3.1,3.1,0,0,0-.1-.76,1.73,1.73,0,0,0-.32-.6,1.59,1.59,0,0,0-.55-.4,2.23,2.23,0,0,0-.84-.14h-.72v3.9h.72a2.39,2.39,0,0,0,.81-.12,1.36,1.36,0,0,0,.56-.36,1.83,1.83,0,0,0,.33-.62A3.35,3.35,0,0,0,431,421.81Zm3.88,2.19v.09l0,.06,0,0h-2.09a.24.24,0,0,1-.13,0,.21.21,0,0,1-.07-.18v-4.39s0,0,0,0l0,0,.07,0h.21l.07,0,0,0s0,0,0,0v4.21h1.8l.05,0,0,0,0,.06Zm1.46-1.64v1.77s0,0,0,0l0,0-.07,0H436l-.07,0,0,0s0,0,0,0v-1.77l-1.34-2.7a.16.16,0,0,1,0-.08,0,0,0,0,1,0-.05s0,0,.07,0h.25l.08,0s0,0,0,0l0,0,.72,1.46c.07.14.13.28.2.43s.13.29.2.44h0c.06-.14.13-.28.19-.43s.13-.29.2-.43l.73-1.47a.05.05,0,0,1,0,0s0,0,0,0l.07,0h.24l.08,0a.08.08,0,0,1,0,.05l0,.08ZM386.63,433a.18.18,0,0,1,0,.09.08.08,0,0,1,0,.05l-.08,0h-.31l0,0,0,0-.45-1.25h-2.06l-.43,1.24s0,0,0,0l0,0-.07,0h-.25l-.07,0s0,0,0-.05,0-.05,0-.09l1.64-4.46a.05.05,0,0,1,0-.05l.05,0,.09,0h.22l.09,0,0,0,0,.05Zm-1.94-4.07h0l-.88,2.53h1.79Zm5.49.87a1.46,1.46,0,0,1-.11.6,1.38,1.38,0,0,1-.31.47,1.44,1.44,0,0,1-.51.3,2,2,0,0,1-.72.11h-.6V433s0,0,0,0l0,0-.07,0h-.21l-.07,0,0,0s0,0,0,0v-4.39a.22.22,0,0,1,.07-.18.27.27,0,0,1,.14-.05h1.23l.31.06a1.38,1.38,0,0,1,.36.15,1.24,1.24,0,0,1,.32.28,1.07,1.07,0,0,1,.2.38A1.39,1.39,0,0,1,390.18,429.76Zm-.46,0a1,1,0,0,0-.12-.51.85.85,0,0,0-.3-.32.93.93,0,0,0-.35-.13,2.3,2.3,0,0,0-.36,0h-.66v2h.63a1.32,1.32,0,0,0,.52-.08,1,1,0,0,0,.35-.21.93.93,0,0,0,.21-.33A1.18,1.18,0,0,0,389.72,429.8Zm4.23,0a1.64,1.64,0,0,1-.11.6,1.27,1.27,0,0,1-.32.47,1.31,1.31,0,0,1-.5.3,2,2,0,0,1-.72.11h-.61V433a.08.08,0,0,1,0,0l0,0-.07,0h-.21l-.07,0a.05.05,0,0,1,0,0s0,0,0,0v-4.39c0-.09,0-.15.07-.18a.27.27,0,0,1,.13-.05h1.23l.32.06a1.38,1.38,0,0,1,.36.15,1.24,1.24,0,0,1,.32.28,1.25,1.25,0,0,1,.2.38A1.39,1.39,0,0,1,394,429.76Zm-.47,0a1,1,0,0,0-.12-.51.82.82,0,0,0-.29-.32.92.92,0,0,0-.36-.13,2.11,2.11,0,0,0-.35,0h-.67v2h.64a1.32,1.32,0,0,0,.52-.08,1,1,0,0,0,.34-.21.83.83,0,0,0,.22-.33A1.18,1.18,0,0,0,393.48,429.8ZM398,433v0l0,0-.07,0h-.22l-.07,0,0,0a.16.16,0,0,1,0-.07l-.44-1.14a3,3,0,0,0-.16-.36,1.61,1.61,0,0,0-.21-.3.77.77,0,0,0-.3-.19,1,1,0,0,0-.41-.08h-.49V433a.08.08,0,0,1,0,0l0,0-.06,0h-.21l-.07,0,0,0a.08.08,0,0,1,0,0v-4.39c0-.09,0-.15.07-.18a.24.24,0,0,1,.13-.05h1.17l.21,0a1.62,1.62,0,0,1,.47.15,1.46,1.46,0,0,1,.33.26,1.19,1.19,0,0,1,.19.35,1.5,1.5,0,0,1,0,.84,1.29,1.29,0,0,1-.19.32,1.31,1.31,0,0,1-.28.24,2.09,2.09,0,0,1-.37.17,1,1,0,0,1,.22.13,1.54,1.54,0,0,1,.17.19,2.26,2.26,0,0,1,.16.26,2.52,2.52,0,0,1,.14.33l.44,1.1.06.17A.2.2,0,0,1,398,433Zm-.77-3.35a.93.93,0,0,0-.14-.51.75.75,0,0,0-.45-.3l-.23,0h-.9v1.72h.68a1.53,1.53,0,0,0,.46-.07,1.29,1.29,0,0,0,.33-.18.77.77,0,0,0,.19-.28A.88.88,0,0,0,397.18,429.68Zm5.49,1a3.65,3.65,0,0,1-.13,1,2.23,2.23,0,0,1-.39.77,1.62,1.62,0,0,1-.65.5,2.31,2.31,0,0,1-.91.17,2.17,2.17,0,0,1-.89-.17,1.45,1.45,0,0,1-.62-.47,2,2,0,0,1-.36-.74,4.37,4.37,0,0,1-.11-1,3.46,3.46,0,0,1,.13-1,2.06,2.06,0,0,1,.38-.77,1.86,1.86,0,0,1,.65-.49,2.36,2.36,0,0,1,.92-.17,2.16,2.16,0,0,1,.88.16,1.7,1.7,0,0,1,.62.47,2,2,0,0,1,.36.74A3.7,3.7,0,0,1,402.67,430.71Zm-.47,0a3.81,3.81,0,0,0-.08-.78,1.71,1.71,0,0,0-.26-.63,1.21,1.21,0,0,0-.47-.43,1.65,1.65,0,0,0-.74-.15,1.49,1.49,0,0,0-.73.16,1.45,1.45,0,0,0-.49.43,2,2,0,0,0-.27.64,3.69,3.69,0,0,0-.08.76,4.09,4.09,0,0,0,.08.8,1.6,1.6,0,0,0,.25.63,1.15,1.15,0,0,0,.47.43,1.65,1.65,0,0,0,.74.15,1.54,1.54,0,0,0,.75-.16,1.36,1.36,0,0,0,.48-.44,1.93,1.93,0,0,0,.27-.64A3.87,3.87,0,0,0,402.2,430.75ZM407,433a.51.51,0,0,1,0,.09.05.05,0,0,1,0,.05l-.07,0h-.32l0,0,0,0-.45-1.25H404l-.43,1.24a.05.05,0,0,1,0,0l0,0-.07,0h-.24l-.07,0a.05.05,0,0,1,0-.05.37.37,0,0,1,0-.09l1.64-4.46,0-.05.06,0,.08,0h.23l.08,0,.06,0,0,.05Zm-1.95-4.07h0l-.88,2.53H406Zm5.83,3.58v.07s0,0,0,.06l0,0-.05.05a.82.82,0,0,1-.15.12,1.92,1.92,0,0,1-.29.15,2.85,2.85,0,0,1-.41.13,2,2,0,0,1-.5.06,2.08,2.08,0,0,1-.8-.16,1.59,1.59,0,0,1-.61-.45,2,2,0,0,1-.39-.73,3.35,3.35,0,0,1-.13-1,3.25,3.25,0,0,1,.14-1,2.26,2.26,0,0,1,.41-.77,1.68,1.68,0,0,1,.63-.49,2,2,0,0,1,.81-.17,2.71,2.71,0,0,1,.41,0l.36.1a1.68,1.68,0,0,1,.3.15.9.9,0,0,1,.18.12l.07.07a.08.08,0,0,0,0,0,.2.2,0,0,0,0,.07V429a.22.22,0,0,1,0,.09.15.15,0,0,1,0,.07l0,0h-.05a.25.25,0,0,1-.14-.07,1.91,1.91,0,0,0-.24-.17,2.16,2.16,0,0,0-.37-.16,1.64,1.64,0,0,0-.52-.07,1.32,1.32,0,0,0-.6.13,1.29,1.29,0,0,0-.48.39,2.06,2.06,0,0,0-.31.63,3.23,3.23,0,0,0-.11.87,3,3,0,0,0,.11.83,1.65,1.65,0,0,0,.29.61,1.43,1.43,0,0,0,.47.38,1.67,1.67,0,0,0,.65.13,1.6,1.6,0,0,0,.51-.08,2.16,2.16,0,0,0,.37-.16,2.36,2.36,0,0,0,.26-.17.27.27,0,0,1,.15-.07h0s0,0,0,0,0,0,0,.06ZM415,433s0,0,0,0l0,0-.07,0h-.21l-.07,0,0,0a.08.08,0,0,1,0,0v-2.19h-2.34V433s0,0,0,0l0,0-.07,0h-.21l-.07,0,0,0s0,0,0,0v-4.59l0,0h.35l0,0v2h2.34v-2a.06.06,0,0,1,0,0l0,0H415l0,0V433Z" transform="translate(-355.73 -331.49)"/></svg>