<?xml version="1.0" standalone="no"?>
<!DOCTYPE svg PUBLIC "-//W3C//DTD SVG 20010904//EN"
 "http://www.w3.org/TR/2001/REC-SVG-20010904/DTD/svg10.dtd">
<svg version="1.0" xmlns="http://www.w3.org/2000/svg"
 width="676.000000pt" height="676.000000pt" viewBox="0 0 676.000000 676.000000"
 preserveAspectRatio="xMidYMid meet">
<metadata>
Created by potrace 1.14, written by Peter Selinger 2001-2017
</metadata>
<g transform="translate(0.000000,676.000000) scale(0.100000,-0.100000)"
fill="#000000" stroke="none">
<path d="M130 3950 c0 -2241 3 -2810 13 -2811 6 -1 244 -3 527 -4 283 -1 520
-3 525 -4 7 -1 10 -176 10 -503 l0 -503 105 -38 c58 -21 134 -50 169 -63 l64
-25 44 43 c25 24 281 279 570 568 l525 525 1971 0 1972 0 3 2813 2 2812 -3250
0 -3250 0 0 -2810z m6247 -2 l-2 -2562 -1899 0 -1898 -1 -558 -557 c-307 -307
-559 -558 -561 -558 -2 0 -4 246 -4 548 1 301 -1 552 -2 558 -3 7 -163 10
-526 9 -287 0 -527 1 -534 3 -9 3 -11 616 -11 2555 0 1403 2 2555 4 2559 3 4
1352 7 2999 7 l2994 0 -2 -2561z"/>
<path d="M1229 5903 c-139 -35 -235 -151 -246 -294 -17 -227 119 -366 365
-373 28 0 52 3 52 7 0 5 4 6 9 2 16 -10 119 35 156 68 33 29 80 93 80 109 0 3
3 10 8 14 18 18 3 36 -55 63 l-63 29 -6 -22 c-8 -27 -37 -75 -59 -97 -69 -69
-203 -58 -260 20 -110 155 -8 381 165 366 56 -4 89 -26 128 -83 26 -39 29 -40
80 -39 l52 2 1 105 c0 58 -1 110 -3 116 -2 6 -27 10 -56 10 -47 -1 -52 -4 -51
-24 2 -26 -4 -27 -31 -8 -57 39 -177 52 -266 29z"/>
<path d="M1714 5901 c-2 -2 -4 -26 -4 -52 l0 -48 37 -3 38 -3 0 -210 c1 -115
-1 -216 -3 -222 -2 -7 -19 -13 -38 -13 l-34 0 0 -53 0 -53 140 0 c89 0 141 4
142 10 2 6 3 29 3 51 0 38 -2 40 -32 43 l-33 3 0 102 c0 56 4 107 8 114 4 7
26 16 49 21 33 8 45 7 54 -4 8 -10 12 -69 13 -177 l1 -162 105 0 105 0 3 53 3
52 -35 0 -34 0 -1 124 c0 194 -29 240 -153 237 -28 0 -60 -9 -82 -22 l-36 -21
0 116 c0 64 -3 117 -7 117 -23 4 -205 4 -209 0z"/>
<path d="M5000 5870 c0 -6 -8 -14 -17 -18 -10 -4 -40 -23 -66 -42 -44 -31 -48
-38 -45 -67 3 -22 0 -33 -9 -34 -42 -4 -52 -15 -50 -57 3 -44 13 -63 31 -56 8
3 16 1 20 -4 3 -5 6 -69 6 -143 2 -125 4 -136 26 -166 20 -26 70 -51 94 -46 3
1 25 4 50 8 55 8 60 12 61 56 2 58 1 62 -24 55 -28 -7 -55 11 -57 39 -1 11 -2
62 -1 113 l1 93 35 -3 c43 -3 46 1 49 52 3 48 -8 59 -51 55 -37 -3 -35 -7 -33
97 1 37 -3 69 -9 73 -6 3 -11 1 -11 -5z"/>
<path d="M3478 5862 c-1 -4 -27 -25 -55 -46 -53 -37 -56 -42 -55 -81 0 -24
-17 -36 -40 -29 -15 4 -18 -1 -19 -33 -2 -70 0 -75 33 -77 23 -1 23 -3 24
-141 0 -91 5 -148 13 -163 12 -23 88 -65 102 -56 4 2 24 6 45 9 69 11 70 11
69 62 0 45 -2 48 -26 49 -56 2 -57 4 -57 123 0 77 3 111 11 113 7 0 17 2 22 3
6 2 20 3 31 4 19 1 21 7 20 54 -1 52 -1 52 -33 53 -18 1 -38 2 -43 3 -6 0 -9
33 -8 81 3 69 1 80 -14 80 -9 0 -18 -3 -20 -8z"/>
<path d="M2515 5713 c-148 -28 -242 -192 -190 -330 29 -75 75 -114 165 -138
74 -20 191 -5 226 29 6 6 21 18 34 26 12 8 26 23 31 32 8 14 0 19 -46 33 -53
15 -56 15 -92 -7 -21 -13 -50 -25 -66 -26 -55 -6 -109 36 -119 93 -3 19 3 20
167 20 l170 0 -2 30 c-6 108 -61 192 -147 225 -33 12 -100 19 -131 13z m100
-123 c23 -21 39 -59 27 -61 -9 -1 -142 -1 -164 0 -27 2 -22 29 11 61 23 23 35
28 65 25 21 -2 48 -13 61 -25z"/>
<path d="M2984 5709 c-86 -11 -137 -60 -136 -130 1 -89 50 -125 220 -159 68
-14 90 -35 69 -64 -28 -38 -129 -22 -161 26 -13 20 -23 24 -58 22 -24 -1 -45
-3 -48 -3 -3 -1 -6 -35 -7 -76 -1 -57 2 -75 13 -76 55 -5 81 -4 91 4 7 5 20 4
33 -3 31 -17 109 -18 159 -3 48 14 100 64 103 97 7 90 -10 134 -60 160 -29 15
-124 41 -179 49 -17 3 -37 8 -42 12 -15 9 -14 45 2 47 75 9 131 -2 141 -28 4
-11 19 -14 58 -12 l53 3 1 62 c0 49 -3 64 -15 67 -23 6 -74 2 -88 -7 -7 -4
-22 -3 -33 3 -11 6 -20 8 -20 6 0 -3 -10 -2 -22 2 -13 5 -46 5 -74 1z"/>
<path d="M3664 5695 c-1 -5 -4 -29 -6 -52 -3 -40 -2 -43 22 -44 14 -1 31 -1
38 0 9 1 12 -29 12 -124 l0 -125 -35 0 -35 0 0 -53 0 -52 140 0 c77 0 141 2
141 5 1 3 3 26 4 53 l2 47 -33 0 c-20 0 -35 5 -35 13 -1 6 -2 53 -3 102 l-1
90 30 17 c41 23 72 22 85 -3 7 -12 12 -84 13 -172 l2 -152 95 0 c52 -1 100 1
107 3 6 2 11 25 11 53 l1 49 -35 0 -34 0 0 113 c0 120 -10 172 -38 204 -47 55
-110 57 -225 8 -10 -4 -17 -4 -16 1 1 5 1 14 0 20 -1 13 -202 13 -207 -1z"/>
<path d="M4225 5701 c-2 -4 -5 -26 -6 -51 -4 -45 -3 -45 31 -50 l35 -5 5 -136
c4 -106 9 -141 22 -162 40 -60 119 -75 203 -38 56 25 56 25 49 7 -3 -7 1 -15
8 -18 11 -3 182 -3 206 1 4 0 8 24 8 51 l0 50 -38 0 -38 0 0 178 0 178 -107
-1 -108 -1 -1 -52 c0 -29 2 -52 5 -53 4 -1 19 -2 36 -3 l29 -1 1 -104 c0 -101
-1 -104 -25 -114 -14 -6 -36 -12 -50 -14 -51 -6 -54 3 -56 174 -1 87 -3 160
-3 163 -1 7 -201 8 -206 1z"/>
<path d="M1229 4827 c-161 -45 -253 -175 -245 -348 10 -209 156 -325 396 -314
153 7 255 74 304 201 20 51 27 132 12 136 -9 3 -223 2 -281 -1 -17 -1 -20 -8
-20 -53 l0 -53 58 -3 c31 -2 57 -7 57 -12 0 -17 -55 -73 -85 -86 -34 -14 -105
-12 -145 4 -67 27 -111 109 -111 205 0 87 9 116 50 160 80 87 227 74 295 -26
28 -41 31 -43 80 -42 l51 1 3 117 3 117 -55 0 c-40 0 -55 -4 -60 -16 -3 -9 -4
-20 0 -25 9 -15 -13 -10 -26 6 -29 35 -199 54 -281 32z"/>
<path d="M1772 4778 c3 -49 5 -52 31 -53 15 -1 30 -5 34 -8 3 -4 7 -100 7
-214 1 -221 -1 -233 -48 -228 -25 3 -26 1 -26 -51 l0 -54 139 0 c102 0 140 3
143 13 4 10 3 63 -1 89 -1 4 -13 6 -28 5 l-28 -2 -3 278 -2 277 -111 0 -110 0
3 -52z"/>
<path d="M2609 4828 c-1 -4 -1 -81 0 -94 1 -6 18 -11 39 -10 l37 1 1 -215 c0
-118 -1 -220 -3 -226 -2 -6 -19 -10 -38 -9 -38 3 -42 -3 -40 -60 l1 -40 112
-3 112 -3 0 25 0 25 36 -24 c20 -14 42 -26 48 -26 106 -13 174 19 217 102 87
170 -21 385 -184 366 -26 -4 -61 -15 -76 -27 -16 -11 -31 -20 -34 -20 -2 0 -4
48 -5 108 0 59 0 113 -1 120 -1 9 -30 12 -111 12 -60 0 -110 -1 -111 -2z m362
-323 c62 -49 46 -198 -24 -224 -29 -11 -74 6 -94 35 -31 48 -24 140 16 187 16
20 79 21 102 2z"/>
<path d="M3779 4828 c0 -2 -2 -20 -3 -40 -3 -44 6 -63 34 -64 11 -1 24 -2 29
-3 13 -2 11 -439 -3 -444 -6 -2 -22 -3 -36 -2 -24 2 -26 -1 -24 -44 1 -25 2
-49 3 -53 0 -5 64 -8 141 -8 l140 0 0 53 0 54 -32 -1 -33 -1 -1 270 c-1 149
-2 273 -3 278 -1 6 -210 11 -212 5z"/>
<path d="M2221 4613 c-62 -32 -77 -48 -107 -109 -43 -87 -26 -200 40 -272 40
-45 95 -66 171 -66 86 0 93 2 150 43 65 46 85 87 92 186 7 95 -37 174 -121
217 -61 33 -166 33 -225 1z m141 -95 c81 -30 76 -211 -7 -238 -58 -19 -103 20
-111 96 -3 27 -6 51 -7 54 0 3 6 21 15 41 23 54 56 68 110 47z"/>
<path d="M3340 4625 c-41 -13 -120 -78 -109 -89 2 -3 17 -7 32 -10 15 -2 35
-7 45 -11 11 -3 40 4 67 16 41 18 53 20 85 10 39 -11 50 -26 56 -73 4 -30 -6
-34 -38 -17 -21 11 -82 14 -126 5 -103 -21 -161 -148 -104 -226 46 -62 131
-81 219 -50 44 15 53 16 53 4 0 -11 21 -14 109 -14 l109 0 0 50 c1 31 -4 51
-11 52 -7 0 -23 1 -37 2 l-25 1 -1 111 c-1 60 -6 126 -13 146 -14 43 -50 78
-95 93 -48 17 -163 17 -216 0z m167 -277 c14 -11 9 -47 -9 -64 -16 -15 -77
-31 -100 -26 -22 4 -38 51 -27 80 5 12 19 26 31 31 23 8 84 -3 105 -21z"/>
<path d="M970 3750 c-4 -3 -7 -27 -6 -55 1 -47 2 -50 30 -52 16 -1 34 -4 40
-6 13 -5 15 -411 3 -424 -5 -4 -23 -8 -40 -8 -32 0 -32 -1 -34 -52 -1 -32 3
-53 10 -56 10 -3 308 -2 330 2 4 0 7 25 5 54 l-3 52 -38 0 c-21 0 -42 6 -46
13 -6 10 -7 72 -2 112 1 3 27 5 59 5 31 -1 81 5 110 11 29 6 55 12 58 12 13 1
73 48 85 66 7 12 18 45 24 75 24 117 -33 211 -146 241 -53 13 -420 22 -439 10z
m358 -121 c36 -12 56 -53 49 -103 -8 -58 -23 -69 -115 -80 -23 -3 -34 0 -40
12 -6 13 -8 130 -3 175 1 11 74 9 109 -4z"/>
<path d="M2733 3676 c-63 -45 -71 -54 -68 -77 5 -26 -13 -52 -31 -48 -25 4
-30 -5 -28 -48 1 -27 2 -51 3 -54 0 -3 12 -4 26 -1 14 2 25 0 26 -4 0 -5 2
-70 3 -144 1 -86 6 -143 14 -158 22 -39 55 -53 119 -51 84 4 98 14 99 72 0 45
-1 47 -25 43 -55 -8 -61 4 -61 129 l0 113 40 -2 c22 -2 40 0 41 3 6 38 3 93
-4 98 -6 3 -24 7 -41 7 l-31 1 -5 87 -5 86 -72 -52z"/>
<path d="M1737 3558 c-50 -10 -91 -32 -121 -65 -30 -32 -23 -39 46 -48 36 -5
55 -3 73 9 30 20 93 20 118 1 11 -7 21 -32 24 -55 6 -42 6 -42 -18 -29 -13 7
-54 13 -91 13 -56 0 -73 -5 -108 -28 -92 -61 -92 -188 0 -244 43 -26 129 -28
179 -3 37 17 41 18 41 3 0 -15 14 -17 110 -17 l110 0 0 42 c0 24 0 46 0 51 1
4 -16 9 -36 12 l-36 5 -2 120 c-2 124 -12 161 -52 196 -43 37 -154 55 -237 37z
m125 -279 c30 -16 22 -55 -16 -78 -61 -38 -116 -20 -116 39 0 54 67 74 132 39z"/>
<path d="M3740 3558 c0 -4 -3 -7 -7 -6 -16 3 -62 -22 -96 -51 -135 -119 -90
-355 77 -403 64 -18 165 -14 216 9 48 21 103 70 97 86 -2 6 -25 17 -52 24 -45
14 -50 13 -77 -7 -58 -43 -139 -35 -173 17 -18 27 -27 62 -17 64 4 1 81 2 172
3 158 1 165 2 164 21 -8 107 -65 199 -143 232 -37 16 -161 24 -161 11z m117
-109 c19 -16 46 -69 36 -70 -5 -1 -48 -2 -96 -3 l-89 -2 6 30 c4 16 7 30 9 31
1 1 12 9 25 17 26 18 86 16 109 -3z"/>
<path d="M4645 3560 c-95 -23 -134 -65 -130 -140 3 -49 2 -46 34 -79 28 -29
98 -56 171 -67 63 -9 90 -24 90 -50 0 -58 -140 -50 -168 10 -8 18 -18 21 -58
21 l-49 -1 -3 -77 c-2 -57 0 -77 10 -78 45 -5 94 -3 99 5 4 4 17 2 30 -6 38
-23 137 -16 189 13 47 26 79 80 74 127 -1 15 -2 34 -3 43 -3 45 -91 95 -196
113 -80 13 -95 19 -95 37 0 43 102 49 145 9 18 -17 32 -21 71 -18 l48 3 1 50
c1 80 1 81 -58 78 -29 -2 -56 -3 -62 -4 -10 -1 -81 10 -100 15 -5 1 -23 -1
-40 -4z"/>
<path d="M2148 3545 c0 -5 -2 -29 -2 -52 -1 -37 1 -43 19 -44 64 -3 59 5 60
-109 1 -140 1 -142 -44 -138 l-36 3 -3 -55 -3 -56 161 1 c135 0 160 2 161 15
2 26 -3 85 -7 89 -2 2 -22 4 -44 3 l-40 -2 0 43 c0 24 7 64 15 88 18 51 49 75
113 85 44 7 44 7 44 74 0 75 1 72 -42 67 -45 -5 -103 -41 -121 -74 -16 -31
-24 -21 -20 27 2 33 -1 40 -16 41 -99 5 -193 2 -195 -6z"/>
<path d="M2961 3550 c-4 -3 -7 -25 -6 -49 0 -35 4 -45 20 -51 11 -4 26 -5 33
-3 15 6 15 5 17 -135 1 -112 1 -113 -21 -109 -13 2 -28 1 -35 -3 -15 -10 -19
-88 -5 -99 9 -6 251 -8 277 -2 3 0 4 22 4 49 -2 46 -3 47 -36 52 l-34 5 -1
100 c-1 110 2 116 62 129 58 13 65 -5 63 -174 -1 -81 1 -152 4 -157 3 -5 52
-9 108 -8 l103 0 1 48 c2 53 0 56 -41 59 l-29 2 1 110 c0 61 -4 127 -9 148
-22 86 -112 120 -214 79 -47 -18 -52 -19 -55 -4 -3 15 -18 17 -102 18 -54 0
-101 -2 -105 -5z"/>
<path d="M4084 3500 l1 -55 38 2 c26 1 37 -3 38 -13 1 -8 1 -57 1 -109 0 -135
2 -127 -31 -122 -39 7 -52 -4 -55 -44 -4 -65 -4 -65 166 -64 l153 0 0 55 0 55
-30 -3 c-16 -2 -34 -5 -40 -5 -20 -4 -17 102 5 147 22 46 47 62 110 72 l39 6
0 65 c-1 74 -9 82 -70 64 -42 -13 -99 -64 -99 -88 0 -8 -4 -12 -8 -9 -4 2 -7
25 -6 50 1 28 -3 46 -10 47 -6 1 -54 2 -107 3 l-96 2 1 -56z"/>
<path d="M949 2677 c-1 -1 -2 -19 -3 -39 -2 -39 -3 -39 54 -42 l25 -1 3 -248
2 -249 -32 3 c-45 4 -55 -5 -54 -43 l1 -33 275 0 275 0 0 95 c-1 92 -1 94 -25
100 -32 8 -61 1 -59 -14 1 -6 1 -32 0 -57 l-1 -47 -140 1 -140 0 0 107 0 107
111 -1 c61 -1 116 2 122 6 6 4 12 23 14 42 l2 36 -57 1 c-31 0 -86 1 -122 2
l-65 2 -3 96 -3 95 138 -1 c76 -1 140 -3 143 -4 3 0 5 -24 5 -53 l0 -51 38 -2
c20 0 37 1 38 4 4 20 5 159 1 173 -4 15 -30 16 -273 16 -148 0 -270 -1 -270
-1z"/>
<path d="M3847 2494 c-2 -2 -14 -6 -28 -8 -13 -2 -25 -5 -26 -7 -2 -1 -6 -2
-10 -3 -5 -1 -21 -9 -38 -18 -137 -74 -154 -293 -30 -395 96 -79 267 -73 358
13 20 19 37 39 37 44 0 4 -17 14 -37 23 -34 13 -38 13 -57 -5 -48 -46 -131
-66 -187 -46 -38 13 -87 69 -91 103 l-3 30 188 0 187 0 0 31 c0 73 -51 164
-113 203 -29 17 -141 44 -150 35z m103 -103 c25 -18 70 -77 70 -92 0 -5 -65
-9 -144 -9 l-145 0 10 29 c11 30 67 93 78 87 3 -2 15 0 26 5 27 11 74 2 105
-20z"/>
<path d="M2388 2479 c-34 -9 -88 -41 -88 -52 0 -5 -7 -15 -15 -23 -13 -14 -15
-10 -15 31 l0 47 -82 -4 -83 -3 1 -39 0 -39 47 0 46 1 -2 -147 -2 -146 -42 -3
c-24 -2 -43 -8 -44 -15 -1 -7 -2 -24 -3 -39 l-3 -28 144 0 143 0 0 40 0 40
-50 0 -50 0 1 93 c0 50 5 108 12 127 14 41 63 70 118 70 44 0 56 13 55 60 -1
31 -4 35 -31 36 -16 0 -42 -3 -57 -7z"/>
<path d="M2643 2480 c-13 -5 -23 -7 -23 -3 0 8 -72 -47 -95 -74 -54 -61 -66
-187 -25 -265 29 -56 85 -106 135 -120 173 -48 328 72 319 246 -8 130 -113
227 -245 225 -24 0 -54 -4 -66 -9z m146 -102 c97 -66 92 -216 -9 -265 -126
-63 -253 66 -196 201 33 78 137 111 205 64z"/>
<path d="M3125 2482 c-3 -3 -30 -4 -60 -3 -51 2 -55 1 -56 -21 -3 -55 5 -65
49 -62 l27 2 -1 -242 c-1 -132 -2 -246 -3 -252 0 -7 -17 -11 -38 -10 -38 1
-38 1 -38 -39 l0 -40 123 0 c122 -1 140 4 137 35 -1 8 -3 22 -3 32 -2 13 -10
16 -42 13 -22 -2 -41 0 -41 3 -1 4 -2 42 -3 85 -2 74 5 100 19 77 3 -6 25 -20
48 -31 75 -39 174 -23 244 38 30 27 66 99 68 140 1 18 5 36 8 39 10 11 -23
110 -51 149 -60 86 -173 114 -264 67 -27 -14 -48 -29 -48 -34 0 -14 -25 -4
-26 10 -1 7 -2 18 -3 26 -1 14 -36 28 -46 18z m268 -97 c66 -43 88 -118 59
-200 -30 -88 -109 -118 -198 -74 -137 66 -82 300 69 294 24 -1 56 -10 70 -20z"/>
<path d="M1559 2469 c-6 -57 -3 -64 29 -67 l32 -3 0 -127 c1 -147 9 -196 42
-229 41 -40 171 -32 209 13 17 21 29 17 26 -8 -2 -22 1 -23 85 -26 l88 -3 -2
41 c-1 39 -2 40 -39 40 l-39 0 -2 188 -3 187 -85 2 -85 2 0 -37 c0 -36 2 -37
40 -42 l40 -5 1 -122 c1 -80 -3 -126 -10 -132 -31 -25 -90 -51 -116 -51 -53 0
-60 24 -60 217 l0 173 -75 -1 c-41 -1 -75 -5 -76 -10z"/>
</g>
</svg>
