<?xml version="1.0" encoding="UTF-8"?><svg id="Réteg_1" xmlns="http://www.w3.org/2000/svg" viewBox="0 0 113.95 103.41"><defs><style>.cls-1{stroke:#59c5c5;}.cls-1,.cls-2{fill:none;stroke-linecap:round;stroke-miterlimit:10;stroke-width:6px;}.cls-2{stroke:#6610f1;}</style></defs><line class="cls-2" x1="3" y1="100.41" x2="110.95" y2="100.41"/><path class="cls-1" d="M63.24,23.52c-.37-2.87-2.94-3.95-4.37-6.88-1.45-2.97-1.72-6.59-1.72-6.59,0,0-5.73,10.06-6.38,13.47-.56,2.97,.79,4.95,2.72,5.97v12.23h6.97v-12.22c1.87-1.01,3.16-2.98,2.78-5.98Z"/><line class="cls-1" x1="53.49" y1="29.49" x2="60.46" y2="29.5"/><line class="cls-2" x1="102.63" y1="66.76" x2="12.25" y2="66.76"/><path class="cls-2" d="M103.2,58.46v41.94H10.75c0-11.35,0-30.6,0-41.94"/><line class="cls-2" x1="102.17" y1="83.58" x2="11.78" y2="83.58"/><path class="cls-2" d="M81.2,55.6c-10.04,10.8-5.77-12.83-21.24,.74-15.46,13.57-7.38-15.15-19.93-1.4-12.55,13.75-11.29-8.12-19.33,0-5.28,5.34-10.46,3.65-13.38,1.87-1.53-.93-2.43-2.62-2.43-4.42v-5.41c0-2.93,2.34-5.27,5.24-5.27H103.82c2.89,0,5.24,2.34,5.24,5.24,0,0,.76,10.56-.83,11.51-5.98,3.58-16.99-13.67-27.03-2.86Z"/></svg>