<?xml version="1.0" encoding="UTF-8"?><svg id="Réteg_1" xmlns="http://www.w3.org/2000/svg" viewBox="0 0 81.12 99.76"><defs><style>.cls-1{stroke:#59c5c5;}.cls-1,.cls-2{fill:none;stroke-linecap:round;stroke-miterlimit:10;stroke-width:6px;}.cls-2{stroke:#6610f1;}.cls-3{fill:#6610f1;}</style></defs><line class="cls-1" x1="34.64" y1="11.29" x2="43.86" y2="36.76"/><path class="cls-1" d="M45.2,15.64s-2.72-2.41-9.12-.33c0,0-5.98,2.04-6.68,6.22-.89,5.27,9.73,2.18,9.73,2.18,0,0,9.42-2.69,10.27,1.32s-7.1,7.43-7.1,7.43c0,0-7.09,2.57-9.71-.22"/><path class="cls-2" d="M58.49,33.02h7.39c2.8,0,4.2,1.14,4.77,1.72,.81,.83,1.02,1.36,1.33,2.03"/><path class="cls-2" d="M78.12,58.17h-31c-3.52,0-6.38,2.86-6.38,6.38v9.81c0,3.52,2.86,6.38,6.38,6.38h31v-22.58Z"/><circle class="cls-3" cx="51.09" cy="69.46" r="2.97"/><path class="cls-1" d="M29.42,41.87h19.98c6.39-3.53,10.73-10.33,10.73-18.15,0-11.44-9.28-20.72-20.72-20.72S18.69,12.28,18.69,23.72c0,7.82,4.33,14.62,10.73,18.15Z"/><path class="cls-2" d="M72.34,52.71c.04-1.86-.02-3.37-.08-4.46-.05-.78-.09-1.28-.29-1.9-.31-1-.86-1.89-1.58-2.61-1.52-1.52-3.29-1.8-4.51-1.87-4.54-.26-18.18,0-18.18,0H29.08s7.54,0-7.66,0c-.71,0-6.1,0-12.32,0-5.05,0-5.66-3.87-5.66-4.79"/><path class="cls-2" d="M72.26,81.24v9.14c0,.43-.04,2.69-1.87,4.51-1.15,1.15-2.75,1.87-4.51,1.87H9.38c-3.52,0-6.38-2.86-6.38-6.38V39.4c0-3.52,2.86-6.38,6.38-6.38h4.93"/></svg>