<?xml version="1.0" encoding="UTF-8"?><svg id="Réteg_1" xmlns="http://www.w3.org/2000/svg" viewBox="0 0 97.51 99.76"><defs><style>.cls-1{stroke:#59c5c5;}.cls-1,.cls-2{fill:none;stroke-linecap:round;stroke-miterlimit:10;stroke-width:6px;}.cls-2{stroke:#6610f1;}</style></defs><path class="cls-1" d="M53.38,24.81s21.68,.95,21.47-21.8c0,0-22.73,.05-21.47,21.8Z"/><path class="cls-1" d="M39.45,11.65s9.35,3.47,13.45,15.37"/><path class="cls-1" d="M14.8,58.62s-.2-8.33,1.37-13.34c3.08-9.82,14.9-15.6,25.06-11.77,7.13,2.69,16.93,2.05,22.99-.19,10.44-3.87,24.81,4.23,26.18,20.21,2.59,30.34-18.7,45.3-29.03,42.63-6.76-1.75-10.79-1.71-17.19-.03-12.15,3.19-18.18-6.63-18.18-6.63"/><path class="cls-1" d="M70.13,42.38c.51,0,8.78,1.6,10.45,14.37"/><path class="cls-2" d="M3,52.72v19.22s-.04,7.46,6.51,7.45l41.53-.08v-20.17H10.16c-4.35,0-7.17-.78-7.16-6.01,0-2.42,.64-5.05,3.54-5.75,.83-.2,.74-.22,2.78-.22"/><line class="cls-2" x1="15.91" y1="69.14" x2="15.91" y2="79.31"/><line class="cls-2" x1="28.12" y1="69.14" x2="28.12" y2="79.31"/><line class="cls-2" x1="40.33" y1="69.14" x2="40.33" y2="79.31"/></svg>