<?xml version="1.0" encoding="UTF-8"?><svg id="Réteg_1" xmlns="http://www.w3.org/2000/svg" viewBox="0 0 98.74 99.76"><defs><style>.cls-1{fill:none;stroke:#6610f1;stroke-linecap:round;stroke-miterlimit:10;stroke-width:6px;}</style></defs><g><line class="cls-1" x1="29.81" y1="51.87" x2="29.81" y2="78.19"/><line class="cls-1" x1="68.92" y1="51.87" x2="68.92" y2="78.19"/><line class="cls-1" x1="42.85" y1="45.69" x2="42.85" y2="78.19"/><line class="cls-1" x1="55.89" y1="45.69" x2="55.89" y2="78.19"/></g><path class="cls-1" d="M25.87,31.03c-8.63-3.09-4.56-17.37,7.03-15.13,15.87,3.06,10.76,26.64-5.97,28.99S.07,33.16,3.7,18.56C5.27,12.28,9.93,3,24.72,3h21.4s14.46,.06,27.91,.06c14.79,0,19.45,9.28,21.01,15.56,3.63,14.6-7.19,28.57-23.23,26.32-16.73-2.34-21.84-25.92-5.97-28.99,11.6-2.24,15.67,12.04,7.03,15.13"/><rect class="cls-1" x="21.39" y="85.74" width="55.96" height="11.01"/></svg>