<?xml version="1.0" encoding="UTF-8"?><svg id="Réteg_1" xmlns="http://www.w3.org/2000/svg" viewBox="0 0 90.26 99.76"><defs><style>.cls-1{fill:none;stroke:#6610f1;stroke-linecap:round;stroke-miterlimit:10;stroke-width:6px;}</style></defs><g><path class="cls-1" d="M62.48,21.48c0,14.68-8.49,29.29-17.35,29.29s-17.35-14.61-17.35-29.29c0-14.68,8.49-18.48,17.35-18.48,8.86,0,17.35,3.8,17.35,18.48Z"/><path class="cls-1" d="M28.39,23.74c17.28-.39,20.74-10.11,20.74-10.11,0,0,4.26,10.12,11.94,8.66"/></g><path class="cls-1" d="M87.26,96.76s-1.55-27.86-2.48-30.17c-.57-1.4-.56-4.75-10.54-7.44-7.83-2.11-13.02-2.07-13.02-2.07,0,0-2.32,4.8-3.93,6.82-4.47,5.63-11.34,5.47-11.34,5.47h-1.65s-6.87,.16-11.34-5.47c-1.6-2.02-3.93-6.82-3.93-6.82,0,0-5.19-.05-13.02,2.07-9.98,2.69-9.97,6.04-10.54,7.44-.93,2.31-2.48,30.17-2.48,30.17"/></svg>