<?xml version="1.0" encoding="UTF-8"?><svg id="Réteg_1" xmlns="http://www.w3.org/2000/svg" viewBox="0 0 134.47 86.79"><defs><style>.cls-1{stroke:#59c5c5;}.cls-1,.cls-2{fill:none;stroke-linecap:round;stroke-miterlimit:10;stroke-width:6px;}.cls-2{stroke:#6610f1;}.cls-3{fill:#6610f1;}</style></defs><path class="cls-3" d="M56.82,66.4h0c0-6.52,5.78-11.52,12.23-10.6l52.34,7.52c1.53,.22,2.67,1.53,2.67,3.08h0c0,1.55-1.14,2.86-2.67,3.08l-52.34,7.52c-6.45,.93-12.23-4.08-12.23-10.6Z"/><path class="cls-1" d="M129.29,83.79c1.41-5.28,2.18-10.83,2.18-16.55C131.47,31.76,102.71,3,67.23,3S3,31.76,3,67.23c0,5.73,.76,11.27,2.18,16.55"/><path class="cls-2" d="M131.47,67.23C131.47,31.76,102.71,3,67.23,3S3,31.76,3,67.23c0,5.73,.76,11.27,2.18,16.55"/></svg>