<?xml version="1.0" encoding="UTF-8"?><svg id="Réteg_1" xmlns="http://www.w3.org/2000/svg" viewBox="0 0 95.22 99.76"><defs><style>.cls-1{fill:none;stroke:#6610f1;stroke-linecap:round;stroke-miterlimit:10;stroke-width:6px;}.cls-2{fill:#6610f1;}.cls-3{fill:#59c5c5;}</style></defs><path class="cls-1" d="M22.88,14.79H10c-3.87,0-7,3.13-7,7V89.76c0,3.87,3.13,7,7,7H85.22c3.87,0,7-3.13,7-7V21.76c0-1.92-.78-3.67-2.05-4.93-2-2-4.48-2.04-4.95-2.04h-7.61"/><line class="cls-1" x1="3" y1="39.71" x2="92.22" y2="39.71"/><line class="cls-1" x1="23.67" y1="3" x2="23.67" y2="28.2"/><line class="cls-1" x1="44.97" y1="3.13" x2="44.97" y2="28.33"/><line class="cls-1" x1="67.48" y1="3" x2="67.48" y2="28.2"/><line class="cls-1" x1="32.33" y1="14.79" x2="43.5" y2="14.79"/><line class="cls-1" x1="54.88" y1="14.79" x2="66.05" y2="14.79"/><rect class="cls-3" x="30.39" y="50.93" width="7.16" height="7.16"/><rect class="cls-3" x="44.06" y="50.93" width="7.16" height="7.16"/><rect class="cls-3" x="57.72" y="50.93" width="7.16" height="7.16"/><rect class="cls-3" x="71.38" y="50.93" width="7.16" height="7.16"/><g><rect class="cls-3" x="30.33" y="65.01" width="7.16" height="7.16"/><rect class="cls-3" x="43.99" y="65.01" width="7.16" height="7.16"/><rect class="cls-3" x="57.66" y="65.01" width="7.16" height="7.16"/><rect class="cls-3" x="71.32" y="65.01" width="7.16" height="7.16"/></g><rect class="cls-3" x="16.68" y="65.01" width="7.16" height="7.16"/><rect class="cls-3" x="16.68" y="79.09" width="7.16" height="7.16"/><rect class="cls-3" x="30.34" y="79.09" width="7.16" height="7.16"/><rect class="cls-2" x="44" y="79.09" width="7.16" height="7.16"/><rect class="cls-2" x="57.67" y="79.09" width="7.16" height="7.16"/></svg>