<?xml version="1.0" encoding="UTF-8"?><svg id="Réteg_1" xmlns="http://www.w3.org/2000/svg" viewBox="0 0 86.28 99.76"><defs><style>.cls-1{fill:none;stroke:#6610f1;stroke-linecap:round;stroke-miterlimit:10;stroke-width:6px;}</style></defs><g><path class="cls-1" d="M29.38,29.23c-.06,.78-.09,1.58-.09,2.39,0,11.48,6.31,20.79,14.09,20.79,7.78,0,14.09-9.31,14.09-20.79,0-5-1.2-9.59-3.2-13.18,0,0-13.62,11.14-33.84,10.64"/><path class="cls-1" d="M67.86,47.34V24.27c0-11.75-9.53-21.27-21.28-21.27h-6.9c-11.75,0-21.27,9.53-21.27,21.28v23.06"/></g><path class="cls-1" d="M3.29,96.76s-1.2-21.2,1.28-27.67c5.01-13.05,21.92-11.92,21.92-11.92l.41,.72,16.49,28.87,16.39-29.58s16.91-1.14,21.92,11.92c2.48,6.46,1.28,27.67,1.28,27.67"/></svg>